<?xml version="1.0" encoding="UTF-8" standalone="no"?>
<!-- Created with Inkscape (http://www.inkscape.org/) -->

<svg
   width="85mm"
   height="30mm"
   viewBox="0 0 85 30"
   version="1.1"
   id="svg1"
   inkscape:version="1.3.1 (91b66b0, 2023-11-16)"
   sodipodi:docname="cell.svg"
   inkscape:export-filename="cell.pdf"
   inkscape:export-xdpi="96"
   inkscape:export-ydpi="96"
   xmlns:inkscape="http://www.inkscape.org/namespaces/inkscape"
   xmlns:sodipodi="http://sodipodi.sourceforge.net/DTD/sodipodi-0.dtd"
   xmlns="http://www.w3.org/2000/svg"
   xmlns:svg="http://www.w3.org/2000/svg">
  <sodipodi:namedview
     id="namedview1"
     pagecolor="#505050"
     bordercolor="#eeeeee"
     borderopacity="1"
     inkscape:showpageshadow="0"
     inkscape:pageopacity="0"
     inkscape:pagecheckerboard="0"
     inkscape:deskcolor="#505050"
     inkscape:document-units="mm"
     inkscape:zoom="0.72693603"
     inkscape:cx="208.40898"
     inkscape:cy="176.08152"
     inkscape:window-width="1846"
     inkscape:window-height="1016"
     inkscape:window-x="74"
     inkscape:window-y="27"
     inkscape:window-maximized="1"
     inkscape:current-layer="layer1" />
  <defs
     id="defs1" />
  <g
     inkscape:label="Layer 1"
     inkscape:groupmode="layer"
     id="layer1"
     transform="translate(-50.006251,-101.86458)">
    <path
       inkscape:connector-curvature="0"
       id="path618-1-5"
       style="fill:#477f7c;fill-opacity:1;stroke:none;stroke-width:2.053;stroke-linecap:butt;stroke-linejoin:miter;stroke-miterlimit:4;stroke-dasharray:none;stroke-opacity:1"
       d="m 59.879482,124.43862 c -0.542269,-0.0221 -1.141183,0.23418 -1.632334,0 -1.36569,-0.65348 -1.662039,-2.59875 -2.855032,-3.53546 -1.257235,-0.98438 -4.007267,-0.47181 -4.341608,-2.03438 -0.277697,-1.28694 2.401182,-1.69174 2.573879,-2.99526 0.140921,-1.04448 -1.359472,-2.85504 -1.359472,-2.85504 0,0 3.332366,-1.32218 4.894931,-2.1829 0.855197,-0.47181 1.764275,-0.92013 2.436413,-1.62405 1.095591,-1.14947 1.408518,-2.88474 2.452991,-4.0805 0.760559,-0.87661 1.586743,-1.90243 2.712038,-2.18842 1.478288,-0.3751 2.997335,0.57266 4.500489,0.82895 2.849506,0.48839 5.75013,0.70668 8.567166,1.35947 1.800197,0.41862 3.538224,1.07695 5.302497,1.63303 1.13635,0.35576 2.29411,0.65004 3.400065,1.08731 2.658156,1.04931 5.437202,2.85503 7.749963,3.66947 2.312762,0.8179 8.397232,2.6554 12.644892,3.80764 2.79286,0.75849 7.34447,2.03991 8.43246,2.03991 1.08731,0 6.54039,0.60167 9.78917,1.0873 2.41777,0.36197 5.51596,-0.40688 7.2077,1.36017 0.66384,0.69631 0.89871,2.02954 0.40756,2.85503 -1.06312,1.78915 -3.88292,1.49211 -5.84753,2.17737 -1.7995,0.62655 -3.55618,1.46793 -5.43996,1.76774 -3.35654,0.53121 -6.8996,-0.82826 -10.19743,0 -1.39747,0.35092 -2.71134,1.10595 -3.80694,2.0399 -0.73983,0.62586 -0.89042,1.89967 -1.76772,2.31 -1.97221,0.92566 -4.3955,0.18099 -6.527273,-0.27286 -1.810557,-0.3827 -3.38141,-1.55152 -5.167792,-2.03714 -1.948024,-0.53398 -3.969275,-0.79303 -5.982232,-0.9526 -1.762203,-0.14023 -3.53477,0 -5.302497,0 -1.22477,0 -4.271148,-0.25629 -6.391871,-0.54503 -2.191184,-0.29704 -4.347136,-0.82274 -6.525193,-1.22201 -2.266481,-0.41862 -4.517069,-0.92083 -6.800128,-1.22547 -1.036184,-0.13746 -2.079966,-0.22657 -3.127202,-0.27217 z" />
  </g>
</svg>
