<?xml version="1.0" encoding="UTF-8" standalone="no"?>
<!-- Created with Inkscape (http://www.inkscape.org/) -->

<svg
   width="84.044022mm"
   height="30.628139mm"
   viewBox="0 0 84.044022 30.628139"
   version="1.1"
   id="svg1"
   inkscape:version="1.3.1 (91b66b0, 2023-11-16)"
   sodipodi:docname="group.svg"
   inkscape:export-filename="group.pdf"
   inkscape:export-xdpi="96"
   inkscape:export-ydpi="96"
   xmlns:inkscape="http://www.inkscape.org/namespaces/inkscape"
   xmlns:sodipodi="http://sodipodi.sourceforge.net/DTD/sodipodi-0.dtd"
   xmlns="http://www.w3.org/2000/svg"
   xmlns:svg="http://www.w3.org/2000/svg">
  <sodipodi:namedview
     id="namedview1"
     pagecolor="#505050"
     bordercolor="#eeeeee"
     borderopacity="1"
     inkscape:showpageshadow="0"
     inkscape:pageopacity="0"
     inkscape:pagecheckerboard="0"
     inkscape:deskcolor="#505050"
     inkscape:document-units="mm"
     inkscape:zoom="1.4538721"
     inkscape:cx="148.22487"
     inkscape:cy="101.79713"
     inkscape:window-width="1452"
     inkscape:window-height="752"
     inkscape:window-x="373"
     inkscape:window-y="134"
     inkscape:window-maximized="0"
     inkscape:current-layer="layer1" />
  <defs
     id="defs1" />
  <g
     inkscape:label="Layer 1"
     inkscape:groupmode="layer"
     id="layer1"
     transform="translate(-50.525062,-101.80228)">
    <path
       d="m 68.545717,156.76051 c -0.51646,0.55772 -1.460003,0.7588 -2.198162,0.59123 -1.033776,-0.23546 -1.850146,-1.17213 -2.410428,-2.07099 -0.711525,-1.13862 -1.392968,-2.60551 -1.017443,-3.89107 0.356627,-1.2151 1.742712,-1.87249 2.792822,-2.58144 0.63161,-0.42279 1.30962,-1.00027 2.07185,-0.9702 0.630742,0.0241 1.423049,0.33945 1.648195,0.92981 0.345454,0.90316 -0.68145,1.8132 -0.929799,2.74987 -0.262096,0.98308 -0.765665,1.99709 -0.591217,3.00079 0.08765,0.51646 0.711525,0.83613 0.802616,1.3526 0.05329,0.29906 0.03698,0.6677 -0.168434,0.8894 z"
       style="display:none;fill:#de5d1c;fill-opacity:1;fill-rule:nonzero;stroke:#000000;stroke-width:0.687896;stroke-linecap:butt;stroke-linejoin:miter;stroke-miterlimit:4;stroke-dasharray:none;stroke-opacity:1"
       id="path5"
       inkscape:connector-curvature="0"
       inkscape:label="golgi" />
    <path
       style="fill:#68aba7;fill-opacity:1;stroke:#000000;stroke-width:0.273747;stroke-linecap:butt;stroke-linejoin:miter;stroke-miterlimit:4;stroke-dasharray:none;stroke-opacity:1"
       d="m 112.06925,109.50425 c 1.30886,0.7425 2.46961,1.90079 3.94565,2.19344 2.02945,0.40235 4.22969,-1.44896 6.16522,-0.71792 1.33619,0.50469 1.71972,2.33328 2.86586,3.18566 1.1043,0.82129 2.58692,1.61295 3.99249,2.24036 1.43634,0.64112 2.79226,1.1107 3.58178,1.26495 2.54778,0.4978 -4.54843,2.41742 -7.04694,2.7985 -2.88664,0.44027 -5.85213,-0.19638 -8.73527,-0.65913 -3.855,-0.61869 -7.67173,-1.56327 -11.36906,-2.81774 -2.56464,-0.87019 -4.90175,-2.32333 -7.447246,-3.24798 -1.923925,-0.69883 -3.948148,-1.08865 -5.891987,-1.72997 -2.900537,-0.95696 -7.137396,-0.47679 -8.601926,-3.15711 -0.826736,-1.51307 -0.199437,-6.15533 1.123211,-5.0492 1.791314,1.49802 3.870495,3.08346 6.195613,3.23825 2.72545,0.18128 4.993838,-2.43851 7.701327,-2.79979 1.899968,-0.25342 5.674608,-1.15274 5.730498,0.47901 0.076,2.21505 2.49725,1.67011 3.7771,2.45579 1.31738,0.80873 2.66915,1.56018 4.01368,2.32288"
       id="path262"
       sodipodi:nodetypes="cssscssssssscsscsc" />
    <path
       style="fill:#68aba7;fill-opacity:1;stroke:#000000;stroke-width:0.273747;stroke-linecap:butt;stroke-linejoin:miter;stroke-miterlimit:4;stroke-dasharray:none;stroke-opacity:1"
       d="m 74.30155,118.88302 c 0.385855,0.92909 -2.131972,1.37034 -1.895937,2.34831 0.278613,1.15437 2.313512,0.72331 3.255843,1.44589 0.860148,0.6596 2.020489,1.4441 2.04565,2.5277 0.0192,0.82181 -0.813435,1.48019 -1.460705,1.98686 -2.078855,1.6274 -4.683869,3.14865 -7.320921,3.02229 -5.546878,-0.26575 -11.432854,-3.32517 -14.720674,-7.80051 -1.125728,-1.53232 -1.238771,-3.717 -1.041962,-5.60818 0.212821,-2.04501 0.753013,-4.40906 2.351299,-5.70246 1.295249,-1.04821 3.572545,-1.6626 9.174017,0.0765 5.56579,1.71881 7.989988,3.79458 9.61339,7.70363 z"
       id="path262-4"
       sodipodi:nodetypes="saaaaaaaacs" />
    <path
       inkscape:connector-curvature="0"
       id="path16"
       style="fill:#68aba7;fill-opacity:1;fill-rule:nonzero;stroke:#000000;stroke-width:0.280673;stroke-linecap:butt;stroke-linejoin:miter;stroke-miterlimit:4;stroke-dasharray:none;stroke-opacity:1"
       d="m 78.704225,125.04026 c -0.375768,-0.0132 -0.788985,0.16124 -1.127306,0 -0.945874,-0.45131 -1.152485,-1.79555 -1.974395,-2.44377 -0.870334,-0.68116 -2.771772,-0.32541 -3.001622,-1.40754 -0.19176,-0.88775 1.659963,-1.16734 1.7807,-2.068 0.09621,-0.72378 -0.940711,-1.9744 -0.940711,-1.9744 0,0 2.302386,-0.91293 3.384493,-1.51081 0.590126,-0.32541 1.218341,-0.63339 1.685146,-1.12214 0.754117,-0.7948 0.972992,-1.99249 1.692254,-2.8202 0.526835,-0.60497 1.096957,-1.31389 1.873668,-1.51083 1.024005,-0.25944 2.073172,0.39386 3.114608,0.57269 1.969878,0.33575 3.97268,0.48684 5.919317,0.93814 1.246105,0.29055 2.446356,0.74445 3.6647,1.12988 0.787058,0.24463 1.586364,0.44937 2.350809,0.75154 1.84076,0.72441 3.760264,1.97247 5.356964,2.53741 1.59863,0.56493 5.80569,1.83364 8.74337,2.63037 1.92727,0.5249 5.07481,1.41008 5.82636,1.41008 0.75153,0 4.52212,0.4158 6.76641,0.75155 1.67221,0.24985 3.81641,-0.28022 4.98376,0.94071 0.45904,0.48166 0.62046,1.40235 0.2802,1.97506 -0.7341,1.23576 -2.68397,1.03107 -4.04047,1.50305 -1.2461,0.4339 -2.45928,1.01624 -3.76028,1.22286 -2.32043,0.36609 0.0477,2.14422 -2.23199,2.71627 -0.96332,0.24216 -2.24493,3.48327 -6.09106,1.28611 -0.50943,0.43389 -1.97247,-0.41581 -2.58002,-0.1311 -1.36168,0.63855 -3.03908,-0.74121 -4.50922,-1.05369 -1.25383,-0.26547 -2.33788,-1.07241 -3.5743,-1.40752 -1.34619,-0.3706 -2.74401,-0.55007 -4.136051,-0.65855 -1.217682,-0.0982 -2.443774,0 -3.664684,0 -0.844515,0 -2.953211,-0.17635 -4.418187,-0.37837 -1.515978,-0.20404 -3.006778,-0.5675 -4.512444,-0.84449 -1.563106,-0.28797 -3.122355,-0.63598 -4.698389,-0.84515 -0.716026,-0.0957 -1.437859,-0.15626 -2.16163,-0.18924 z" />
    <path
       style="fill:#68aba7;fill-opacity:1;stroke:#000000;stroke-width:0.273747;stroke-linecap:butt;stroke-linejoin:miter;stroke-miterlimit:4;stroke-dasharray:none;stroke-opacity:1"
       d="m 83.614612,103.23585 c 0.468086,0.57213 -0.356531,1.44033 -0.426619,2.17622 -0.133422,1.40155 0.869527,3.10431 0.0149,4.2236 -0.541948,0.71032 -1.907189,0.11952 -2.587774,0.6984 -0.820263,0.69765 -0.629715,2.12654 -1.331455,2.94326 -1.37663,1.60226 -3.202724,3.49629 -5.31468,3.45184 -2.238577,-0.0472 -0.820017,-1.3204 -2.734794,-2.78514 -1.774865,-1.35773 -6.932001,-2.83673 -7.814064,-4.71543 -0.448616,-0.95547 -0.07125,-2.14819 0.236627,-3.15786 0.337771,-1.10773 0.712112,-2.44546 1.717682,-3.01995 2.33822,-1.33576 5.384923,0.0972 8.077647,0.1258 3.387169,0.0363 8.017004,-2.56258 10.161919,0.0593 z"
       id="path262-4-8"
       sodipodi:nodetypes="aaaaasssaaaa" />
  </g>
</svg>
