<?xml version="1.0" encoding="UTF-8" standalone="no"?>
<!-- Created with Inkscape (http://www.inkscape.org/) -->

<svg
   width="84.044022mm"
   height="30.628139mm"
   viewBox="0 0 84.044022 30.628139"
   version="1.1"
   id="svg1"
   inkscape:version="1.3.1 (91b66b0, 2023-11-16)"
   sodipodi:docname="marker_cytosol.svg"
   inkscape:export-filename="marker_cytosol.pdf"
   inkscape:export-xdpi="96"
   inkscape:export-ydpi="96"
   xmlns:inkscape="http://www.inkscape.org/namespaces/inkscape"
   xmlns:sodipodi="http://sodipodi.sourceforge.net/DTD/sodipodi-0.dtd"
   xmlns:xlink="http://www.w3.org/1999/xlink"
   xmlns="http://www.w3.org/2000/svg"
   xmlns:svg="http://www.w3.org/2000/svg">
  <sodipodi:namedview
     id="namedview1"
     pagecolor="#505050"
     bordercolor="#eeeeee"
     borderopacity="1"
     inkscape:showpageshadow="0"
     inkscape:pageopacity="0"
     inkscape:pagecheckerboard="0"
     inkscape:deskcolor="#505050"
     inkscape:document-units="mm"
     inkscape:zoom="1.4538721"
     inkscape:cx="148.22487"
     inkscape:cy="101.79713"
     inkscape:window-width="1452"
     inkscape:window-height="752"
     inkscape:window-x="373"
     inkscape:window-y="134"
     inkscape:window-maximized="0"
     inkscape:current-layer="layer1" />
  <defs
     id="defs1">
    <linearGradient
       inkscape:collect="always"
       xlink:href="#linearGradient7"
       id="linearGradient8"
       x1="70.66169"
       y1="875.51349"
       x2="289.46765"
       y2="904.06512"
       gradientUnits="userSpaceOnUse"
       gradientTransform="matrix(0.35277777,0,0,0.35277843,29.449646,-197.68726)" />
    <linearGradient
       id="linearGradient7"
       inkscape:collect="always">
      <stop
         style="stop-color:#00c800;stop-opacity:0.44938958;"
         offset="0"
         id="stop7" />
      <stop
         style="stop-color:#00c800;stop-opacity:0;"
         offset="1"
         id="stop8" />
    </linearGradient>
  </defs>
  <g
     inkscape:label="Layer 1"
     inkscape:groupmode="layer"
     id="layer1"
     transform="translate(-50.525062,-101.80228)">
    <path
       id="path2"
       style="fill:url(#linearGradient8);stroke:none;stroke-width:2.053;stroke-linecap:butt;stroke-linejoin:miter;stroke-miterlimit:4;stroke-dasharray:none;stroke-opacity:1"
       d="M 65.991818 102.58001 C 65.805869 102.58949 65.620565 102.61581 65.43578 102.66269 C 64.310486 102.94869 63.48436 103.97457 62.723801 104.85119 C 61.679329 106.04695 61.366309 107.78208 60.27072 108.93156 C 59.598584 109.63548 58.689373 110.08393 57.834177 110.55575 C 56.271612 111.41647 52.939385 112.73856 52.939385 112.73856 C 52.939385 112.73856 54.439913 114.54921 54.298992 115.59369 C 54.126294 116.8972 51.447293 117.3019 51.724989 118.58885 C 52.059329 120.15142 54.80909 119.63897 56.066326 120.62335 C 57.259317 121.56007 57.55576 123.50505 58.921449 124.15854 C 59.4126 124.39272 60.011639 124.13644 60.553907 124.15854 C 61.601141 124.20413 62.644663 124.29341 63.680848 124.43087 C 65.963901 124.73551 68.214471 125.23802 70.48095 125.65664 C 72.659005 126.05592 74.814951 126.58123 77.006133 126.87827 C 79.126855 127.16702 82.173739 127.42346 83.398508 127.42346 C 85.166233 127.42346 86.938308 127.28323 88.70051 127.42346 C 90.713465 127.58302 92.735068 127.84187 94.68309 128.37585 C 96.46947 128.86148 98.040177 130.03024 99.850733 130.41294 C 101.98251 130.86679 104.40578 131.61197 106.37798 130.68631 C 107.25528 130.27598 107.406 129.00171 108.14583 128.37585 C 109.24142 127.4419 110.55538 126.6871 111.95284 126.33618 C 115.25066 125.50792 118.79361 126.8674 122.15015 126.33618 C 124.03393 126.03638 125.79062 125.19488 127.59013 124.56833 C 129.55472 123.88306 132.37471 124.18036 133.43783 122.3912 C 133.92899 121.5657 133.69395 120.23239 133.0301 119.53608 C 131.33837 117.76903 128.24003 118.53794 125.82227 118.17596 C 122.5735 117.69034 117.12051 117.08869 116.03321 117.08869 C 114.94521 117.08869 110.39352 115.80699 107.60065 115.0485 C 103.35299 113.89626 97.268701 112.05888 94.955942 111.24098 C 92.643183 110.42654 89.864181 108.62075 87.206027 107.57144 C 86.100074 107.13417 84.942067 106.83992 83.805718 106.48416 C 82.041447 105.92808 80.303394 105.26981 78.503199 104.85119 C 75.686166 104.19839 72.785783 103.97997 69.93628 103.49158 C 68.621021 103.26733 67.29346 102.51364 65.991818 102.58001 z M 84.246001 112.72254 C 84.705234 112.71361 85.161305 112.74184 85.603541 112.80523 C 86.930246 112.99391 87.969509 114.07003 89.171799 114.66144 C 89.88999 115.01642 90.905659 115.00933 91.347893 115.6774 C 92.117381 116.84078 92.094544 118.59772 91.493104 119.85544 C 91.011951 120.85962 89.786911 121.30194 88.824016 121.85739 C 87.994971 122.33618 87.135555 122.88459 86.183867 122.99013 C 85.497518 123.0662 84.799902 122.84522 84.152467 122.6129 C 82.954897 122.18186 81.766305 121.60172 80.815203 120.75616 C 79.951371 119.98726 79.055111 119.06573 78.783285 117.94186 C 78.601676 117.18888 78.850395 116.36857 79.131068 115.64743 C 79.395818 114.97523 79.746316 114.24946 80.350115 113.84909 C 81.465872 113.10968 82.868301 112.74936 84.246001 112.72254 z " />
    <path
       d="m 68.545717,156.76051 c -0.51646,0.55772 -1.460003,0.7588 -2.198162,0.59123 -1.033776,-0.23546 -1.850146,-1.17213 -2.410428,-2.07099 -0.711525,-1.13862 -1.392968,-2.60551 -1.017443,-3.89107 0.356627,-1.2151 1.742712,-1.87249 2.792822,-2.58144 0.63161,-0.42279 1.30962,-1.00027 2.07185,-0.9702 0.630742,0.0241 1.423049,0.33945 1.648195,0.92981 0.345454,0.90316 -0.68145,1.8132 -0.929799,2.74987 -0.262096,0.98308 -0.765665,1.99709 -0.591217,3.00079 0.08765,0.51646 0.711525,0.83613 0.802616,1.3526 0.05329,0.29906 0.03698,0.6677 -0.168434,0.8894 z"
       style="display:none;fill:#de5d1c;fill-opacity:1;fill-rule:nonzero;stroke:#000000;stroke-width:0.687896;stroke-linecap:butt;stroke-linejoin:miter;stroke-miterlimit:4;stroke-dasharray:none;stroke-opacity:1"
       id="path5"
       inkscape:connector-curvature="0"
       inkscape:label="golgi" />
  </g>
</svg>
