<?xml version="1.0" encoding="UTF-8" standalone="no"?>
<!-- Created with Inkscape (http://www.inkscape.org/) -->

<svg
   width="84.044022mm"
   height="30.628139mm"
   viewBox="0 0 84.044022 30.628139"
   version="1.1"
   id="svg1"
   inkscape:version="1.3.1 (91b66b0, 2023-11-16)"
   sodipodi:docname="nucleus.svg"
   inkscape:export-filename="nucleus.pdf"
   inkscape:export-xdpi="96"
   inkscape:export-ydpi="96"
   xmlns:inkscape="http://www.inkscape.org/namespaces/inkscape"
   xmlns:sodipodi="http://sodipodi.sourceforge.net/DTD/sodipodi-0.dtd"
   xmlns="http://www.w3.org/2000/svg"
   xmlns:svg="http://www.w3.org/2000/svg">
  <sodipodi:namedview
     id="namedview1"
     pagecolor="#505050"
     bordercolor="#eeeeee"
     borderopacity="1"
     inkscape:showpageshadow="0"
     inkscape:pageopacity="0"
     inkscape:pagecheckerboard="0"
     inkscape:deskcolor="#505050"
     inkscape:document-units="mm"
     inkscape:zoom="2.0560856"
     inkscape:cx="193.81489"
     inkscape:cy="109.9176"
     inkscape:window-width="1452"
     inkscape:window-height="752"
     inkscape:window-x="99"
     inkscape:window-y="114"
     inkscape:window-maximized="0"
     inkscape:current-layer="layer1" />
  <defs
     id="defs1" />
  <g
     inkscape:label="Layer 1"
     inkscape:groupmode="layer"
     id="layer1"
     transform="translate(-50.525062,-101.80228)">
    <path
       inkscape:connector-curvature="0"
       id="path618-1-5-0"
       style="fill:#477f7c;fill-opacity:1;stroke:none;stroke-width:2.053;stroke-linecap:butt;stroke-linejoin:miter;stroke-miterlimit:4;stroke-dasharray:none;stroke-opacity:1"
       d="m 60.394358,124.41305 c -0.542269,-0.0221 -1.141183,0.23418 -1.632334,0 -1.365691,-0.65349 -1.662039,-2.59876 -2.855031,-3.53547 -1.257236,-0.98438 -4.00727,-0.47181 -4.341611,-2.03438 -0.277696,-1.28695 2.401182,-1.69175 2.573881,-2.99527 0.14092,-1.04448 -1.359472,-2.85504 -1.359472,-2.85504 0,0 3.332364,-1.32218 4.894929,-2.18291 0.855197,-0.47181 1.764277,-0.92013 2.436414,-1.62405 1.09559,-1.14947 1.408518,-2.88474 2.452991,-4.0805 0.760561,-0.87662 1.586741,-1.90244 2.712039,-2.18843 1.478287,-0.3751 2.997334,0.57266 4.500488,0.82895 2.849506,0.48839 5.75013,0.70668 8.567169,1.35948 1.80019,0.41862 3.53822,1.07694 5.30249,1.63303 1.13635,0.35575 2.29411,0.65004 3.40007,1.0873 2.65815,1.04932 5.4372,2.85504 7.74996,3.66949 2.31276,0.81789 8.397229,2.6554 12.644889,3.80764 2.79286,0.75849 7.34447,2.03991 8.43247,2.03991 1.0873,0 6.54039,0.60168 9.78917,1.08731 2.41776,0.36197 5.51595,-0.40688 7.20769,1.36017 0.66385,0.69631 0.89872,2.02954 0.40756,2.85504 -1.06312,1.78915 -3.88292,1.49211 -5.84752,2.17737 -1.79951,0.62655 -3.55619,1.46794 -5.43997,1.76774 -3.35654,0.53122 -6.8996,-0.82826 -10.19743,0 -1.39746,0.35092 -2.71134,1.10596 -3.80693,2.03991 -0.73984,0.62585 -0.89043,1.89967 -1.76773,2.31 -1.97221,0.92567 -4.39549,0.18099 -6.527269,-0.27286 -1.81056,-0.3827 -3.38141,-1.55152 -5.16779,-2.03714 -1.94803,-0.53398 -3.96928,-0.79303 -5.98223,-0.9526 -1.76221,-0.14024 -3.53477,0 -5.3025,0 -1.22477,0 -4.27115,-0.25629 -6.39187,-0.54504 -2.191185,-0.29704 -4.347137,-0.82273 -6.525194,-1.22201 -2.266481,-0.41862 -4.517069,-0.92083 -6.800127,-1.22546 -1.036186,-0.13747 -2.079967,-0.22658 -3.127202,-0.27218 z" />
    <path
       inkscape:connector-curvature="0"
       id="path1-2"
       style="display:inline;opacity:0.1;fill:none;fill-opacity:0.74902;stroke:#000000;stroke-width:2.053;stroke-linecap:butt;stroke-linejoin:miter;stroke-miterlimit:4;stroke-dasharray:none;stroke-opacity:1"
       d="m 60.394358,124.41305 c -0.542269,-0.0221 -1.141183,0.23418 -1.632334,0 -1.365691,-0.65349 -1.662039,-2.59876 -2.855031,-3.53547 -1.257236,-0.98438 -4.00727,-0.47181 -4.341611,-2.03438 -0.277696,-1.28695 2.401182,-1.69175 2.573881,-2.99527 0.14092,-1.04448 -1.359472,-2.85504 -1.359472,-2.85504 0,0 3.332364,-1.32218 4.894929,-2.18291 0.855197,-0.47181 1.764277,-0.92013 2.436414,-1.62405 1.09559,-1.14947 1.408518,-2.88474 2.452991,-4.0805 0.760561,-0.87662 1.586741,-1.90244 2.712039,-2.18843 1.478287,-0.3751 2.997334,0.57266 4.500488,0.82895 2.849506,0.48839 5.75013,0.70668 8.567169,1.35948 1.80019,0.41862 3.53822,1.07694 5.30249,1.63303 1.13635,0.35575 2.29411,0.65004 3.40007,1.0873 2.65815,1.04932 5.4372,2.85504 7.74996,3.66949 2.31276,0.81789 8.397229,2.6554 12.644889,3.80764 2.79286,0.75849 7.34447,2.03991 8.43247,2.03991 1.0873,0 6.54039,0.60168 9.78917,1.08731 2.41776,0.36197 5.51595,-0.40688 7.20769,1.36017 0.66385,0.69631 0.89872,2.02954 0.40756,2.85504 -1.06312,1.78915 -3.88292,1.49211 -5.84752,2.17737 -1.79951,0.62655 -3.55619,1.46794 -5.43997,1.76774 -3.35654,0.53122 -6.8996,-0.82826 -10.19743,0 -1.39746,0.35092 -2.71134,1.10596 -3.80693,2.03991 -0.73984,0.62585 -0.89043,1.89967 -1.76773,2.31 -1.97221,0.92567 -4.39549,0.18099 -6.527269,-0.27286 -1.81056,-0.3827 -3.38141,-1.55152 -5.16779,-2.03714 -1.94803,-0.53398 -3.96928,-0.79303 -5.98223,-0.9526 -1.76221,-0.14024 -3.53477,0 -5.3025,0 -1.22477,0 -4.27115,-0.25629 -6.39187,-0.54504 -2.191185,-0.29704 -4.347137,-0.82273 -6.525194,-1.22201 -2.266481,-0.41862 -4.517069,-0.92083 -6.800127,-1.22546 -1.036186,-0.13747 -2.079967,-0.22658 -3.127202,-0.27218 z"
       inkscape:label="junction" />
    <path
       d="m 91.238991,119.63342 c 0.60144,-1.25772 0.62444,-3.01487 -0.14505,-4.17825 -0.44224,-0.66807 -1.4582,-0.66099 -2.17639,-1.01597 -1.20229,-0.59141 -2.24125,-1.66752 -3.56795,-1.85621 -1.76895,-0.25355 -3.76608,0.0578 -5.25376,1.04368 -0.6038,0.40037 -0.95405,1.12623 -1.2188,1.79843 -0.28067,0.72114 -0.5295,1.54134 -0.34789,2.29432 0.27182,1.12388 1.16809,2.0455 2.03192,2.8144 0.9511,0.84556 2.13983,1.42577 3.3374,1.8568 0.64744,0.23233 1.34499,0.45344 2.03134,0.37738 0.95169,-0.10555 1.8108,-0.65392 2.63985,-1.13272 0.96289,-0.55545 2.18817,-0.99768 2.66933,-2.00186 z"
       style="fill:#83cfcb;fill-opacity:1;fill-rule:nonzero;stroke:#000000;stroke-width:0.353;stroke-linecap:butt;stroke-linejoin:miter;stroke-miterlimit:4;stroke-dasharray:none;stroke-opacity:1"
       id="path478-9-4-2-3"
       inkscape:connector-curvature="0"
       inkscape:label="nucleus" />
  </g>
</svg>
