<?xml version="1.0" encoding="UTF-8" standalone="no"?>
<!-- Created with Inkscape (http://www.inkscape.org/) -->

<svg
   xmlns:dc="http://purl.org/dc/elements/1.1/"
   xmlns:cc="http://creativecommons.org/ns#"
   xmlns:rdf="http://www.w3.org/1999/02/22-rdf-syntax-ns#"
   xmlns:svg="http://www.w3.org/2000/svg"
   xmlns="http://www.w3.org/2000/svg"
   xmlns:sodipodi="http://sodipodi.sourceforge.net/DTD/sodipodi-0.dtd"
   xmlns:inkscape="http://www.inkscape.org/namespaces/inkscape"
   version="1.1"
   id="svg2"
   xml:space="preserve"
   width="117.62451"
   height="44.322933"
   viewBox="0 0 117.62451 44.322933"
   sodipodi:docname="cell_perimeter.svg"
   inkscape:version="0.92.5 (2060ec1f9f, 2020-04-08)"><metadata
     id="metadata8"><rdf:RDF><cc:Work
         rdf:about=""><dc:format>image/svg+xml</dc:format><dc:type
           rdf:resource="http://purl.org/dc/dcmitype/StillImage" /><dc:title></dc:title></cc:Work></rdf:RDF></metadata><defs
     id="defs6" /><sodipodi:namedview
     pagecolor="#ffffff"
     bordercolor="#666666"
     borderopacity="1"
     objecttolerance="10"
     gridtolerance="10"
     guidetolerance="10"
     inkscape:pageopacity="0"
     inkscape:pageshadow="2"
     inkscape:window-width="1848"
     inkscape:window-height="1016"
     id="namedview4"
     showgrid="false"
     showguides="false"
     inkscape:zoom="10.984105"
     inkscape:cx="58.812256"
     inkscape:cy="22.161467"
     inkscape:window-x="72"
     inkscape:window-y="27"
     inkscape:window-maximized="1"
     inkscape:current-layer="g10" /><g
     id="g10"
     inkscape:groupmode="layer"
     inkscape:label="cell_centroid"
     transform="matrix(1.3333333,0,0,1.3333333,0,1.1080733e-6)"><path
       d="m 9.691,23.324 c -0.582,-0.023 -1.222,0.25 -1.746,0 C 6.48,22.625 6.16,20.543 4.887,19.539 3.539,18.484 0.594,19.035 0.238,17.359 -0.059,15.984 2.809,15.551 2.996,14.156 3.145,13.035 1.539,11.098 1.539,11.098 c 0,0 3.566,-1.414 5.242,-2.34 0.914,-0.504 1.887,-0.981 2.61,-1.738 1.168,-1.231 1.507,-3.086 2.621,-4.368 0.816,-0.937 1.699,-2.035 2.902,-2.34 1.586,-0.402 3.211,0.61 4.824,0.887 3.051,0.52 6.153,0.754 9.168,1.453 1.93,0.45 3.789,1.153 5.676,1.75 1.219,0.379 2.457,0.696 3.641,1.164 2.851,1.122 5.824,3.055 8.297,3.93 2.476,0.875 8.992,2.84 13.542,4.074 2.985,0.813 7.86,2.184 9.024,2.184 1.164,0 7.004,0.644 10.48,1.164 2.59,0.387 5.911,-0.434 7.719,1.457 0.711,0.746 0.961,2.172 0.434,3.059 -1.137,1.914 -4.157,1.597 -6.258,2.328 -1.93,0.672 -3.809,1.574 -5.824,1.894 -3.594,0.567 0.074,3.321 -3.457,4.207 -1.492,0.375 -3.477,5.395 -9.434,1.992 -0.789,0.672 -3.055,-0.644 -3.996,-0.203 -2.109,0.989 -4.707,-1.148 -6.984,-1.632 -1.942,-0.411 -3.621,-1.661 -5.536,-2.18 -2.085,-0.574 -4.25,-0.852 -6.406,-1.02 -1.886,-0.152 -3.785,0 -5.676,0 -1.308,0 -4.574,-0.273 -6.843,-0.586 C 24.957,25.918 22.648,25.355 20.316,24.926 17.895,24.48 15.48,23.941 13.039,23.617 11.93,23.469 10.812,23.375 9.691,23.324 Z"
       style="fill:none;fill-opacity:1;fill-rule:nonzero;stroke:#c80000;stroke-width:0.90000002;stroke-linecap:butt;stroke-linejoin:miter;stroke-miterlimit:4;stroke-dasharray:none;stroke-opacity:1"
       id="path16"
       inkscape:connector-curvature="0" /></g></svg>