<?xml version="1.0" encoding="UTF-8" standalone="no"?>
<!-- Created with Inkscape (http://www.inkscape.org/) -->

<svg
   width="40.330681mm"
   height="19.476879mm"
   viewBox="0 0 40.330681 19.476879"
   version="1.1"
   id="svg1192"
   inkscape:version="1.3.1 (91b66b0, 2023-11-16)"
   sodipodi:docname="cell_shape_index.svg"
   inkscape:export-filename="cell-major-axis.pdf"
   inkscape:export-xdpi="96"
   inkscape:export-ydpi="96"
   xml:space="preserve"
   xmlns:inkscape="http://www.inkscape.org/namespaces/inkscape"
   xmlns:sodipodi="http://sodipodi.sourceforge.net/DTD/sodipodi-0.dtd"
   xmlns:xlink="http://www.w3.org/1999/xlink"
   xmlns="http://www.w3.org/2000/svg"
   xmlns:svg="http://www.w3.org/2000/svg"
   xmlns:rdf="http://www.w3.org/1999/02/22-rdf-syntax-ns#"
   xmlns:cc="http://creativecommons.org/ns#"
   xmlns:dc="http://purl.org/dc/elements/1.1/"><defs
     id="defs1186"><linearGradient
       id="linearGradient5590"
       y2="173.17"
       xlink:href="#linearGradient5546"
       spreadMethod="reflect"
       gradientUnits="userSpaceOnUse"
       x2="2.7650001"
       gradientTransform="matrix(0.9610401,0,0,0.9610402,91.679548,18.669998)"
       y1="154.08"
       x1="-38.890999" /><linearGradient
       id="linearGradient5546"><stop
         id="stop5548"
         stop-color="#d9d9d9"
         offset="0" /><stop
         id="stop5554"
         stop-color="#b8b8b8"
         offset="0.1157" /><stop
         id="stop5556"
         stop-color="#989898"
         offset="0.31556" /><stop
         id="stop5550"
         stop-color="#646464"
         offset="1" /></linearGradient><linearGradient
       id="linearGradient5395"
       y2="193.73"
       gradientUnits="userSpaceOnUse"
       x2="136.42999"
       gradientTransform="matrix(0.9610401,0,0,0.9610402,5.3826041,3.1134884)"
       y1="193.73"
       x1="65.227997"><stop
         id="stop5170"
         stop-color="#878787"
         offset="0" /><stop
         id="stop5176"
         stop-color="#9b9b9b"
         offset="0.45" /><stop
         id="stop5178"
         stop-color="#9b9b9b"
         offset="0.55" /><stop
         id="stop5172"
         stop-color="#878787"
         offset="1" /></linearGradient><linearGradient
       id="linearGradient5390"
       y2="211.32001"
       xlink:href="#linearGradient2222"
       gradientUnits="userSpaceOnUse"
       x2="137.5"
       gradientTransform="matrix(0.9610401,0,0,0.9610402,5.3922756,-8.3703234)"
       y1="211.32001"
       x1="62.860001" /><linearGradient
       id="linearGradient2222"><stop
         id="stop2224"
         stop-color="#818181"
         offset="0" /><stop
         id="stop3200"
         stop-color="#e6e6e6"
         offset="0.45" /><stop
         id="stop3202"
         stop-color="#e6e6e6"
         offset="0.55" /><stop
         id="stop2226"
         stop-color="#818181"
         offset="1" /></linearGradient><linearGradient
       id="linearGradient5392"
       y2="213.37"
       xlink:href="#linearGradient4173"
       gradientUnits="userSpaceOnUse"
       x2="137.73"
       gradientTransform="matrix(0.9610401,0,0,0.9610402,5.3922756,-8.3703234)"
       y1="213.37"
       x1="62.860001" /><linearGradient
       id="linearGradient4173"><stop
         id="stop4175"
         stop-color="#444"
         offset="0" /><stop
         id="stop4181"
         stop-color="#a7a7a7"
         offset="0.45" /><stop
         id="stop4183"
         stop-color="#a7a7a7"
         offset="0.55" /><stop
         id="stop4177"
         stop-color="#444"
         offset="1" /></linearGradient><linearGradient
       id="linearGradient5384"
       y2="211.32001"
       xlink:href="#linearGradient2222"
       gradientUnits="userSpaceOnUse"
       x2="137.5"
       gradientTransform="matrix(0.8352892,0,0,0.6970898,18.004109,40.213983)"
       y1="211.32001"
       x1="62.860001" /><linearGradient
       id="linearGradient5386"
       y2="213.37"
       xlink:href="#linearGradient4173"
       gradientUnits="userSpaceOnUse"
       x2="137.73"
       gradientTransform="matrix(0.8352892,0,0,0.6970898,18.004109,40.213983)"
       y1="213.37"
       x1="62.860001" /><linearGradient
       id="linearGradient5381"
       y2="191.25"
       gradientUnits="userSpaceOnUse"
       x2="115.13"
       gradientTransform="matrix(0.9610401,0,0,0.9610402,5.1158809,0.087885)"
       y1="191.25"
       x1="84.375"><stop
         id="stop5283"
         stop-color="#4c4c4c"
         stop-opacity="0"
         offset="0" /><stop
         id="stop5289"
         stop-color="#696969"
         offset="0.45" /><stop
         id="stop5291"
         stop-color="#696969"
         offset="0.55" /><stop
         id="stop5285"
         stop-color="#4b4b4b"
         stop-opacity="0"
         offset="1" /></linearGradient><linearGradient
       id="linearGradient5430"
       y2="172.19"
       gradientUnits="userSpaceOnUse"
       x2="100.5"
       gradientTransform="matrix(1.0776601,0,0,0.9867354,-6.2888377,6.220097)"
       y1="171.31"
       x1="100.5"><stop
         id="stop5299"
         stop-color="#5c5c5c"
         offset="0" /><stop
         id="stop5301"
         stop-color="#6e6e6e"
         offset="1" /></linearGradient><linearGradient
       id="linearGradient5489"
       y2="30.781"
       gradientUnits="userSpaceOnUse"
       x2="-160.35001"
       gradientTransform="translate(203.02758,10.341437)"
       y1="30.781"
       x1="-149.55"><stop
         id="stop5485"
         stop-color="#3d3d3d"
         offset="0" /><stop
         id="stop5487"
         stop-color="#3d3d3d"
         stop-opacity="0"
         offset="1" /></linearGradient><linearGradient
       id="linearGradient5528"
       y2="29.562"
       spreadMethod="reflect"
       gradientUnits="userSpaceOnUse"
       x2="104"
       gradientTransform="matrix(0.9610401,0,0,0.9610402,5.9099672,4.0594995)"
       y1="29.562"
       x1="98.869003"><stop
         id="stop5524"
         stop-color="#9e9e9e"
         offset="0" /><stop
         id="stop5530"
         stop-color="#999"
         offset="0.2" /><stop
         id="stop5526"
         stop-color="#6c6c6c"
         offset="1" /></linearGradient><linearGradient
       id="linearGradient5416"
       y2="107.94"
       xlink:href="#linearGradient5410"
       spreadMethod="reflect"
       gradientUnits="userSpaceOnUse"
       x2="117.22"
       gradientTransform="matrix(0.9610401,0,0,0.9610402,-6.5464743,4.0594995)"
       y1="107.94"
       x1="111.62" /><linearGradient
       id="linearGradient5410"><stop
         id="stop5412"
         stop-color="#bfbfbf"
         offset="0" /><stop
         id="stop5421"
         stop-color="#828282"
         offset="0.95" /><stop
         id="stop5414"
         stop-color="#828282"
         offset="1" /></linearGradient><linearGradient
       id="linearGradient5408"
       y2="149.22"
       gradientUnits="userSpaceOnUse"
       x2="104.65"
       gradientTransform="matrix(0.9610401,0,0,0.9610402,5.5156734,4.0594995)"
       y1="149.22"
       x1="95.989998"><stop
         id="stop5404"
         stop-color="#808080"
         offset="0" /><stop
         id="stop5406"
         stop-color="#535353"
         offset="1" /></linearGradient><radialGradient
       id="radialGradient5453"
       gradientUnits="userSpaceOnUse"
       cy="5.1875"
       cx="98.5"
       gradientTransform="matrix(0.757066,0.790695,-0.8837761,0.8461785,28.513592,-77.085512)"
       r="5.5"><stop
         id="stop5449"
         stop-color="#dcdcdc"
         offset="0" /><stop
         id="stop5451"
         stop-color="#434343"
         offset="1" /></radialGradient><linearGradient
       id="linearGradient5568"
       y2="173.17"
       xlink:href="#linearGradient5546"
       spreadMethod="reflect"
       gradientUnits="userSpaceOnUse"
       x2="2.7650001"
       gradientTransform="matrix(0.9610401,0,0,0.9610402,204.00111,18.669998)"
       y1="154.08"
       x1="-38.890999" /><linearGradient
       id="linearGradient5564"
       y2="166.82001"
       xlink:href="#linearGradient5558"
       gradientUnits="userSpaceOnUse"
       x2="-45.608002"
       gradientTransform="matrix(0.9610401,0,0,0.9610402,204.00111,4.0594995)"
       y1="131.75999"
       x1="-45.608002" /><linearGradient
       id="linearGradient5558"><stop
         id="stop5560"
         stop-color="#999"
         offset="0" /><stop
         id="stop5562"
         stop-color="#525252"
         offset="1" /></linearGradient><linearGradient
       id="linearGradient5552"
       y2="170.35001"
       xlink:href="#linearGradient5546"
       spreadMethod="reflect"
       gradientUnits="userSpaceOnUse"
       x2="-5.0131001"
       gradientTransform="matrix(0.9610401,0,0,0.9610402,204.00111,18.669998)"
       y1="168.92999"
       x1="-49.497002" /><linearGradient
       id="linearGradient5588"
       y2="166.82001"
       xlink:href="#linearGradient5558"
       gradientUnits="userSpaceOnUse"
       x2="-45.608002"
       gradientTransform="matrix(-0.9610401,0,0,0.9610402,-0.3255689,4.0594995)"
       y1="131.75999"
       x1="-45.608002" /><linearGradient
       id="linearGradient5592"
       y2="166.82001"
       xlink:href="#linearGradient5558"
       gradientUnits="userSpaceOnUse"
       x2="-45.608002"
       gradientTransform="matrix(0.9074747,-0.3163665,0.3163664,0.9074748,74.97152,-7.8955071)"
       y1="131.75999"
       x1="-45.608002" /><linearGradient
       id="linearGradient5594"
       y2="170.35001"
       xlink:href="#linearGradient5546"
       spreadMethod="reflect"
       gradientUnits="userSpaceOnUse"
       x2="-5.0131001"
       gradientTransform="matrix(0.9610401,0,0,0.9610402,91.679548,18.669998)"
       y1="168.92999"
       x1="-49.497002" /></defs><sodipodi:namedview
     id="base"
     pagecolor="#ffffff"
     bordercolor="#666666"
     borderopacity="1.0"
     inkscape:pageopacity="0.0"
     inkscape:pageshadow="2"
     inkscape:zoom="2.9967081"
     inkscape:cx="75.416087"
     inkscape:cy="20.35567"
     inkscape:document-units="mm"
     inkscape:current-layer="layer1"
     showgrid="false"
     fit-margin-top="0"
     fit-margin-left="0"
     fit-margin-right="0"
     fit-margin-bottom="0"
     inkscape:window-width="1452"
     inkscape:window-height="752"
     inkscape:window-x="179"
     inkscape:window-y="274"
     inkscape:window-maximized="0"
     inkscape:showpageshadow="0"
     inkscape:pagecheckerboard="0"
     inkscape:deskcolor="#505050" /><metadata
     id="metadata1189"><rdf:RDF><cc:Work
         rdf:about=""><dc:format>image/svg+xml</dc:format><dc:type
           rdf:resource="http://purl.org/dc/dcmitype/StillImage" /></cc:Work></rdf:RDF></metadata><g
     inkscape:label="Layer 1"
     inkscape:groupmode="layer"
     id="layer1"
     transform="translate(-64.118909,-31.53643)"><path
       d="M 76.532118,46.160696 86.096239,37.34136"
       style="fill:none;fill-opacity:1;stroke:#ff0000;stroke-width:0.507911;stroke-linecap:butt;stroke-linejoin:miter;stroke-miterlimit:4;stroke-dasharray:none;stroke-dashoffset:0;stroke-opacity:1"
       id="path664-3-6-1"
       inkscape:connector-curvature="0"
       sodipodi:nodetypes="cc" /><path
       d="m 66.671759,37.634342 c -0.137088,-0.0053 -0.287848,0.0589 -0.41128,0 -0.345089,-0.164654 -0.420465,-0.655078 -0.720328,-0.891573 -0.317527,-0.248512 -1.011238,-0.118717 -1.095095,-0.513511 -0.06995,-0.32389 0.605612,-0.425884 0.649661,-0.754485 0.03509,-0.264057 -0.343204,-0.720327 -0.343204,-0.720327 0,0 0.83999,-0.333075 1.23478,-0.5512 0.215298,-0.118716 0.444493,-0.231081 0.614799,-0.409395 0.275128,-0.289969 0.35498,-0.726925 0.617392,-1.028905 0.192212,-0.220716 0.400208,-0.479357 0.683581,-0.551201 0.37359,-0.09469 0.756367,0.143696 1.136317,0.208937 0.718677,0.122481 1.449375,0.177611 2.159568,0.342264 0.454622,0.105999 0.892522,0.271592 1.337015,0.41222 0.287144,0.08928 0.578756,0.163947 0.857654,0.274187 0.671567,0.264293 1.371876,0.719622 1.954402,0.925733 0.583238,0.206111 2.118115,0.668976 3.189891,0.959652 0.703132,0.191507 1.851465,0.514452 2.125648,0.514452 0.274189,0 1.649818,0.151697 2.468636,0.274187 0.610057,0.09117 1.39235,-0.102238 1.818237,0.343205 0.167482,0.175724 0.226363,0.511625 0.102072,0.720562 -0.267842,0.450853 -0.979201,0.376183 -1.4741,0.548372 -0.454604,0.158292 -0.897234,0.370766 -1.371878,0.446141 -0.846579,0.133565 0.01745,0.78228 -0.814312,0.990981 -0.35145,0.08834 -0.819024,1.270822 -2.22223,0.469225 -0.185851,0.158295 -0.719616,-0.151696 -0.941277,-0.04781 -0.496787,0.232966 -1.108755,-0.270416 -1.645119,-0.384425 -0.457445,-0.09683 -0.852947,-0.391256 -1.304029,-0.51351 -0.491137,-0.135199 -1.001112,-0.200694 -1.508969,-0.240268 -0.444258,-0.03581 -0.891574,0 -1.337013,0 -0.308105,0 -1.077428,-0.06432 -1.6119,-0.138041 -0.553088,-0.07443 -1.096983,-0.207053 -1.646298,-0.308104 -0.570279,-0.105062 -1.139146,-0.232022 -1.714136,-0.308343 -0.261231,-0.03485 -0.524583,-0.05701 -0.788639,-0.06902 z"
       style="fill:none;fill-opacity:1;fill-rule:nonzero;stroke:#c80000;stroke-width:0.211998;stroke-linecap:butt;stroke-linejoin:miter;stroke-miterlimit:4;stroke-dasharray:none;stroke-opacity:1"
       id="path16"
       inkscape:connector-curvature="0" /><g
       id="g14"
       transform="matrix(0.2113056,0,0,0.2113056,84.646893,41.811699)"><path
         inkscape:connector-curvature="0"
         id="path16-8"
         style="fill:#477f7c;fill-opacity:1;fill-rule:nonzero;stroke:#000000;stroke-width:0.434713;stroke-linecap:butt;stroke-linejoin:miter;stroke-miterlimit:4;stroke-dasharray:none;stroke-opacity:1"
         d="m 9.691,23.324 c -0.582,-0.023 -1.222,0.25 -1.746,0 C 6.48,22.625 6.16,20.543 4.887,19.539 3.539,18.484 0.594,19.035 0.238,17.359 -0.059,15.984 2.809,15.551 2.996,14.156 3.145,13.035 1.539,11.098 1.539,11.098 c 0,0 3.566,-1.414 5.242,-2.34 0.914,-0.504 1.887,-0.981 2.61,-1.738 1.168,-1.231 1.507,-3.086 2.621,-4.368 0.816,-0.937 1.699,-2.035 2.902,-2.34 1.586,-0.402 3.211,0.61 4.824,0.887 3.051,0.52 6.153,0.754 9.168,1.453 1.93,0.45 3.789,1.153 5.676,1.75 1.219,0.379 2.457,0.696 3.641,1.164 2.851,1.122 5.824,3.055 8.297,3.93 2.476,0.875 8.992,2.84 13.542,4.074 2.985,0.813 7.86,2.184 9.024,2.184 1.164,0 7.004,0.644 10.48,1.164 2.59,0.387 5.911,-0.434 7.719,1.457 0.711,0.746 0.961,2.172 0.434,3.059 -1.137,1.914 -4.157,1.597 -6.258,2.328 -1.93,0.672 -3.809,1.574 -5.824,1.894 -3.594,0.567 0.074,3.321 -3.457,4.207 -1.492,0.375 -3.477,5.395 -9.434,1.992 -0.789,0.672 -3.055,-0.644 -3.996,-0.203 -2.109,0.989 -4.707,-1.148 -6.984,-1.632 -1.942,-0.411 -3.621,-1.661 -5.536,-2.18 -2.085,-0.574 -4.25,-0.852 -6.406,-1.02 -1.886,-0.152 -3.785,0 -5.676,0 -1.308,0 -4.574,-0.273 -6.843,-0.586 C 24.957,25.918 22.648,25.355 20.316,24.926 17.895,24.48 15.48,23.941 13.039,23.617 11.93,23.469 10.812,23.375 9.691,23.324 Z" /></g><text
       xml:space="preserve"
       style="font-style:italic;font-variant:normal;font-weight:normal;font-stretch:normal;font-size:4.22612px;line-height:1;font-family:Sans;-inkscape-font-specification:'Sans Italic';text-align:center;text-anchor:middle;fill:#ff0000;stroke-width:0.223418;stroke-linecap:round;stroke-miterlimit:8"
       x="93.146187"
       y="46.904613"
       id="text1"><tspan
         sodipodi:role="line"
         id="tspan1"
         style="font-style:italic;font-variant:normal;font-weight:normal;font-stretch:normal;font-family:Sans;-inkscape-font-specification:'Sans Italic';fill:#ff0000;fill-opacity:1;stroke-width:0.223418"
         x="93.146187"
         y="46.904613">A</tspan></text><text
       xml:space="preserve"
       style="font-style:normal;font-variant:normal;font-weight:bold;font-stretch:normal;font-size:9.87777px;line-height:1.25;font-family:Ubuntu;-inkscape-font-specification:'Ubuntu Bold';text-align:center;text-anchor:middle;fill:none;stroke:#000000;stroke-width:0.475001;stroke-linecap:round;stroke-dasharray:none"
       x="101.46914"
       y="41.186699"
       id="text6"><tspan
         sodipodi:role="line"
         id="tspan6"
         style="stroke-width:0.475"></tspan></text><path
       style="fill:none;fill-rule:evenodd;stroke:#000000;stroke-width:0.322836;stroke-linecap:round;stroke-linejoin:round;stroke-miterlimit:4;stroke-dasharray:none;stroke-opacity:1"
       d="m 78.91574,45.445937 h 2.732944 l 0.986768,4.912436 2.4799,-10.49582 18.158798,0.0169"
       id="path3427"
       inkscape:connector-curvature="0"
       sodipodi:nodetypes="ccccc" /></g></svg>
