<?xml version="1.0" encoding="UTF-8" standalone="no"?>
<!-- Created with Inkscape (http://www.inkscape.org/) -->

<svg
   width="40.330681mm"
   height="19.476879mm"
   viewBox="0 0 40.330681 19.476879"
   version="1.1"
   id="svg1192"
   inkscape:version="1.3.1 (91b66b0, 2023-11-16)"
   sodipodi:docname="cell-major-axis.svg"
   inkscape:export-filename="cell-major-axis.pdf"
   inkscape:export-xdpi="96"
   inkscape:export-ydpi="96"
   xmlns:inkscape="http://www.inkscape.org/namespaces/inkscape"
   xmlns:sodipodi="http://sodipodi.sourceforge.net/DTD/sodipodi-0.dtd"
   xmlns="http://www.w3.org/2000/svg"
   xmlns:svg="http://www.w3.org/2000/svg"
   xmlns:rdf="http://www.w3.org/1999/02/22-rdf-syntax-ns#"
   xmlns:cc="http://creativecommons.org/ns#"
   xmlns:dc="http://purl.org/dc/elements/1.1/">
  <defs
     id="defs1186">
    <marker
       style="overflow:visible"
       id="marker1"
       refX="0"
       refY="0"
       orient="auto-start-reverse"
       inkscape:stockid="Triangle arrow"
       markerWidth="1"
       markerHeight="1"
       viewBox="0 0 1 1"
       inkscape:isstock="true"
       inkscape:collect="always"
       preserveAspectRatio="xMidYMid">
      <path
         transform="scale(0.5)"
         style="fill:context-stroke;fill-rule:evenodd;stroke:context-stroke;stroke-width:1pt"
         d="M 5.77,0 -2.88,5 V -5 Z"
         id="path1" />
    </marker>
    <marker
       style="overflow:visible"
       id="Triangle"
       refX="0"
       refY="0"
       orient="auto-start-reverse"
       inkscape:stockid="Triangle arrow"
       markerWidth="1"
       markerHeight="1"
       viewBox="0 0 1 1"
       inkscape:isstock="true"
       inkscape:collect="always"
       preserveAspectRatio="xMidYMid">
      <path
         transform="scale(0.5)"
         style="fill:context-stroke;fill-rule:evenodd;stroke:context-stroke;stroke-width:1pt"
         d="M 5.77,0 -2.88,5 V -5 Z"
         id="path135" />
    </marker>
  </defs>
  <sodipodi:namedview
     id="base"
     pagecolor="#ffffff"
     bordercolor="#666666"
     borderopacity="1.0"
     inkscape:pageopacity="0.0"
     inkscape:pageshadow="2"
     inkscape:zoom="4.2379853"
     inkscape:cx="62.647692"
     inkscape:cy="44.832624"
     inkscape:document-units="mm"
     inkscape:current-layer="g662"
     showgrid="false"
     fit-margin-top="0"
     fit-margin-left="0"
     fit-margin-right="0"
     fit-margin-bottom="0"
     inkscape:window-width="1452"
     inkscape:window-height="752"
     inkscape:window-x="278"
     inkscape:window-y="264"
     inkscape:window-maximized="0"
     inkscape:showpageshadow="0"
     inkscape:pagecheckerboard="0"
     inkscape:deskcolor="#505050" />
  <metadata
     id="metadata1189">
    <rdf:RDF>
      <cc:Work
         rdf:about="">
        <dc:format>image/svg+xml</dc:format>
        <dc:type
           rdf:resource="http://purl.org/dc/dcmitype/StillImage" />
      </cc:Work>
    </rdf:RDF>
  </metadata>
  <g
     inkscape:label="Layer 1"
     inkscape:groupmode="layer"
     id="layer1"
     transform="translate(-64.118909,-31.53643)">
    <g
       id="g1"
       inkscape:label="g1"
       transform="matrix(0.92879165,-0.16377103,0.16377103,0.92879165,-1.2582896,15.319872)">
      <g
         transform="matrix(-0.34075716,-0.09130561,-0.09130561,0.34075716,262.72083,49.501253)"
         id="g650">
        <path
           d="m 539.383,121.336 c 0.789,-0.035 1.652,0.34 2.363,0 1.977,-0.945 2.406,-3.766 4.133,-5.117 1.824,-1.43 5.805,-0.684 6.289,-2.949 0.398,-1.864 -3.477,-2.446 -3.73,-4.336 -0.2,-1.512 1.968,-4.133 1.968,-4.133 0,0 -4.82,-1.91 -7.086,-3.16 -1.238,-0.684 -2.55,-1.329 -3.527,-2.352 -1.586,-1.66 -2.039,-4.172 -3.547,-5.906 -1.105,-1.266 -2.297,-2.75 -3.926,-3.164 -2.14,-0.543 -4.34,0.824 -6.519,1.199 -4.125,0.703 -8.324,1.02 -12.399,1.965 -2.609,0.605 -5.125,1.562 -7.679,2.363 -1.641,0.516 -3.317,0.942 -4.918,1.574 -3.852,1.52 -7.875,4.133 -11.223,5.317 -3.344,1.179 -12.156,3.843 -18.305,5.511 -4.039,1.094 -10.629,2.954 -12.203,2.954 -1.574,0 -9.472,0.871 -14.172,1.574 -3.5,0.523 -7.988,-0.59 -10.433,1.969 -0.961,1.003 -1.301,2.937 -0.59,4.132 1.535,2.586 5.621,2.161 8.461,3.149 2.609,0.91 5.148,2.129 7.875,2.558 4.859,0.77 9.992,-1.195 14.762,0 2.023,0.508 3.925,1.602 5.511,2.954 1.071,0.91 1.289,2.75 2.559,3.347 2.855,1.336 6.367,0.258 9.449,-0.394 2.625,-0.555 4.895,-2.246 7.481,-2.953 2.82,-0.77 5.746,-1.149 8.66,-1.379 2.551,-0.2 5.121,0 7.679,0 1.77,0 6.184,-0.368 9.25,-0.786 3.176,-0.433 6.297,-1.191 9.45,-1.773 3.277,-0.602 6.535,-1.332 9.839,-1.77 1.504,-0.199 3.016,-0.328 4.528,-0.394 z"
           style="fill:#477f7c;fill-opacity:1;fill-rule:nonzero;stroke:#000000;stroke-width:0.587793;stroke-linecap:butt;stroke-linejoin:miter;stroke-miterlimit:4;stroke-dasharray:none;stroke-opacity:1"
           id="path652"
           inkscape:connector-curvature="0" />
      </g>
      <g
         transform="matrix(-0.34075716,-0.09130561,-0.09130561,0.34075716,262.72083,49.501253)"
         id="g662">
        <path
           d="M 435.383,118 550.406,106.348"
           style="fill:none;stroke:#ff0000;stroke-width:1.46069;stroke-linecap:butt;stroke-linejoin:miter;stroke-miterlimit:4;stroke-dasharray:5.84275, 5.84275;stroke-dashoffset:0;stroke-opacity:1"
           id="path664"
           inkscape:connector-curvature="0" />
        <path
           d="m 101.66634,56.343344 3.8411,-12.771314"
           style="fill:none;fill-opacity:1;stroke:#ff0000;stroke-width:0.499999;stroke-linecap:butt;stroke-linejoin:miter;stroke-miterlimit:4;stroke-dasharray:none;stroke-dashoffset:0;stroke-opacity:1"
           id="path664-3-6"
           inkscape:connector-curvature="0"
           sodipodi:nodetypes="cc"
           transform="matrix(-2.7380575,-0.73366034,-0.73366034,2.7380575,755.66184,57.21057)" />
        <path
           d="m 527.20877,98.9862 -75.25355,7.3016"
           style="fill:none;fill-opacity:1;stroke:#ff0000;stroke-width:1.13145;stroke-linecap:butt;stroke-linejoin:miter;stroke-miterlimit:4;stroke-dasharray:none;stroke-dashoffset:0;stroke-opacity:1;marker-start:url(#marker1);marker-end:url(#Triangle)"
           id="path664-3-6-4"
           inkscape:connector-curvature="0"
           sodipodi:nodetypes="cc" />
        <path
           d="m 64.785133,42.344965 3.8411,-12.771314"
           style="fill:none;fill-opacity:1;stroke:#ff0000;stroke-width:0.499999;stroke-linecap:butt;stroke-linejoin:miter;stroke-miterlimit:4;stroke-dasharray:none;stroke-dashoffset:0;stroke-opacity:1"
           id="path664-3-6-3"
           inkscape:connector-curvature="0"
           sodipodi:nodetypes="cc"
           transform="matrix(-2.7380575,-0.73366034,-0.73366034,2.7380575,755.66184,57.21057)" />
      </g>
    </g>
  </g>
</svg>
