<?xml version="1.0" encoding="UTF-8" standalone="no"?>
<!-- Created with Inkscape (http://www.inkscape.org/) -->

<svg
   width="40.330681mm"
   height="19.476879mm"
   viewBox="0 0 40.330681 19.476879"
   version="1.1"
   id="svg1192"
   inkscape:version="1.3.1 (91b66b0, 2023-11-16)"
   sodipodi:docname="cell_circularity.svg"
   inkscape:export-filename="cell-major-axis.pdf"
   inkscape:export-xdpi="96"
   inkscape:export-ydpi="96"
   xml:space="preserve"
   xmlns:inkscape="http://www.inkscape.org/namespaces/inkscape"
   xmlns:sodipodi="http://sodipodi.sourceforge.net/DTD/sodipodi-0.dtd"
   xmlns:xlink="http://www.w3.org/1999/xlink"
   xmlns="http://www.w3.org/2000/svg"
   xmlns:svg="http://www.w3.org/2000/svg"
   xmlns:rdf="http://www.w3.org/1999/02/22-rdf-syntax-ns#"
   xmlns:cc="http://creativecommons.org/ns#"
   xmlns:dc="http://purl.org/dc/elements/1.1/"><defs
     id="defs1186"><linearGradient
       id="linearGradient5590"
       y2="173.17"
       xlink:href="#linearGradient5546"
       spreadMethod="reflect"
       gradientUnits="userSpaceOnUse"
       x2="2.7650001"
       gradientTransform="matrix(0.9610401,0,0,0.9610402,91.679548,18.669998)"
       y1="154.08"
       x1="-38.890999" /><linearGradient
       id="linearGradient5546"><stop
         id="stop5548"
         stop-color="#d9d9d9"
         offset="0" /><stop
         id="stop5554"
         stop-color="#b8b8b8"
         offset="0.1157" /><stop
         id="stop5556"
         stop-color="#989898"
         offset="0.31556" /><stop
         id="stop5550"
         stop-color="#646464"
         offset="1" /></linearGradient><linearGradient
       id="linearGradient5395"
       y2="193.73"
       gradientUnits="userSpaceOnUse"
       x2="136.42999"
       gradientTransform="matrix(0.9610401,0,0,0.9610402,5.3826041,3.1134884)"
       y1="193.73"
       x1="65.227997"><stop
         id="stop5170"
         stop-color="#878787"
         offset="0" /><stop
         id="stop5176"
         stop-color="#9b9b9b"
         offset="0.45" /><stop
         id="stop5178"
         stop-color="#9b9b9b"
         offset="0.55" /><stop
         id="stop5172"
         stop-color="#878787"
         offset="1" /></linearGradient><linearGradient
       id="linearGradient5390"
       y2="211.32001"
       xlink:href="#linearGradient2222"
       gradientUnits="userSpaceOnUse"
       x2="137.5"
       gradientTransform="matrix(0.9610401,0,0,0.9610402,5.3922756,-8.3703234)"
       y1="211.32001"
       x1="62.860001" /><linearGradient
       id="linearGradient2222"><stop
         id="stop2224"
         stop-color="#818181"
         offset="0" /><stop
         id="stop3200"
         stop-color="#e6e6e6"
         offset="0.45" /><stop
         id="stop3202"
         stop-color="#e6e6e6"
         offset="0.55" /><stop
         id="stop2226"
         stop-color="#818181"
         offset="1" /></linearGradient><linearGradient
       id="linearGradient5392"
       y2="213.37"
       xlink:href="#linearGradient4173"
       gradientUnits="userSpaceOnUse"
       x2="137.73"
       gradientTransform="matrix(0.9610401,0,0,0.9610402,5.3922756,-8.3703234)"
       y1="213.37"
       x1="62.860001" /><linearGradient
       id="linearGradient4173"><stop
         id="stop4175"
         stop-color="#444"
         offset="0" /><stop
         id="stop4181"
         stop-color="#a7a7a7"
         offset="0.45" /><stop
         id="stop4183"
         stop-color="#a7a7a7"
         offset="0.55" /><stop
         id="stop4177"
         stop-color="#444"
         offset="1" /></linearGradient><linearGradient
       id="linearGradient5384"
       y2="211.32001"
       xlink:href="#linearGradient2222"
       gradientUnits="userSpaceOnUse"
       x2="137.5"
       gradientTransform="matrix(0.8352892,0,0,0.6970898,18.004109,40.213983)"
       y1="211.32001"
       x1="62.860001" /><linearGradient
       id="linearGradient5386"
       y2="213.37"
       xlink:href="#linearGradient4173"
       gradientUnits="userSpaceOnUse"
       x2="137.73"
       gradientTransform="matrix(0.8352892,0,0,0.6970898,18.004109,40.213983)"
       y1="213.37"
       x1="62.860001" /><linearGradient
       id="linearGradient5381"
       y2="191.25"
       gradientUnits="userSpaceOnUse"
       x2="115.13"
       gradientTransform="matrix(0.9610401,0,0,0.9610402,5.1158809,0.087885)"
       y1="191.25"
       x1="84.375"><stop
         id="stop5283"
         stop-color="#4c4c4c"
         stop-opacity="0"
         offset="0" /><stop
         id="stop5289"
         stop-color="#696969"
         offset="0.45" /><stop
         id="stop5291"
         stop-color="#696969"
         offset="0.55" /><stop
         id="stop5285"
         stop-color="#4b4b4b"
         stop-opacity="0"
         offset="1" /></linearGradient><linearGradient
       id="linearGradient5430"
       y2="172.19"
       gradientUnits="userSpaceOnUse"
       x2="100.5"
       gradientTransform="matrix(1.0776601,0,0,0.9867354,-6.2888377,6.220097)"
       y1="171.31"
       x1="100.5"><stop
         id="stop5299"
         stop-color="#5c5c5c"
         offset="0" /><stop
         id="stop5301"
         stop-color="#6e6e6e"
         offset="1" /></linearGradient><linearGradient
       id="linearGradient5489"
       y2="30.781"
       gradientUnits="userSpaceOnUse"
       x2="-160.35001"
       gradientTransform="translate(203.02758,10.341437)"
       y1="30.781"
       x1="-149.55"><stop
         id="stop5485"
         stop-color="#3d3d3d"
         offset="0" /><stop
         id="stop5487"
         stop-color="#3d3d3d"
         stop-opacity="0"
         offset="1" /></linearGradient><linearGradient
       id="linearGradient5528"
       y2="29.562"
       spreadMethod="reflect"
       gradientUnits="userSpaceOnUse"
       x2="104"
       gradientTransform="matrix(0.9610401,0,0,0.9610402,5.9099672,4.0594995)"
       y1="29.562"
       x1="98.869003"><stop
         id="stop5524"
         stop-color="#9e9e9e"
         offset="0" /><stop
         id="stop5530"
         stop-color="#999"
         offset="0.2" /><stop
         id="stop5526"
         stop-color="#6c6c6c"
         offset="1" /></linearGradient><linearGradient
       id="linearGradient5416"
       y2="107.94"
       xlink:href="#linearGradient5410"
       spreadMethod="reflect"
       gradientUnits="userSpaceOnUse"
       x2="117.22"
       gradientTransform="matrix(0.9610401,0,0,0.9610402,-6.5464743,4.0594995)"
       y1="107.94"
       x1="111.62" /><linearGradient
       id="linearGradient5410"><stop
         id="stop5412"
         stop-color="#bfbfbf"
         offset="0" /><stop
         id="stop5421"
         stop-color="#828282"
         offset="0.95" /><stop
         id="stop5414"
         stop-color="#828282"
         offset="1" /></linearGradient><linearGradient
       id="linearGradient5408"
       y2="149.22"
       gradientUnits="userSpaceOnUse"
       x2="104.65"
       gradientTransform="matrix(0.9610401,0,0,0.9610402,5.5156734,4.0594995)"
       y1="149.22"
       x1="95.989998"><stop
         id="stop5404"
         stop-color="#808080"
         offset="0" /><stop
         id="stop5406"
         stop-color="#535353"
         offset="1" /></linearGradient><radialGradient
       id="radialGradient5453"
       gradientUnits="userSpaceOnUse"
       cy="5.1875"
       cx="98.5"
       gradientTransform="matrix(0.757066,0.790695,-0.8837761,0.8461785,28.513592,-77.085512)"
       r="5.5"><stop
         id="stop5449"
         stop-color="#dcdcdc"
         offset="0" /><stop
         id="stop5451"
         stop-color="#434343"
         offset="1" /></radialGradient><linearGradient
       id="linearGradient5568"
       y2="173.17"
       xlink:href="#linearGradient5546"
       spreadMethod="reflect"
       gradientUnits="userSpaceOnUse"
       x2="2.7650001"
       gradientTransform="matrix(0.9610401,0,0,0.9610402,204.00111,18.669998)"
       y1="154.08"
       x1="-38.890999" /><linearGradient
       id="linearGradient5564"
       y2="166.82001"
       xlink:href="#linearGradient5558"
       gradientUnits="userSpaceOnUse"
       x2="-45.608002"
       gradientTransform="matrix(0.9610401,0,0,0.9610402,204.00111,4.0594995)"
       y1="131.75999"
       x1="-45.608002" /><linearGradient
       id="linearGradient5558"><stop
         id="stop5560"
         stop-color="#999"
         offset="0" /><stop
         id="stop5562"
         stop-color="#525252"
         offset="1" /></linearGradient><linearGradient
       id="linearGradient5552"
       y2="170.35001"
       xlink:href="#linearGradient5546"
       spreadMethod="reflect"
       gradientUnits="userSpaceOnUse"
       x2="-5.0131001"
       gradientTransform="matrix(0.9610401,0,0,0.9610402,204.00111,18.669998)"
       y1="168.92999"
       x1="-49.497002" /><linearGradient
       id="linearGradient5588"
       y2="166.82001"
       xlink:href="#linearGradient5558"
       gradientUnits="userSpaceOnUse"
       x2="-45.608002"
       gradientTransform="matrix(-0.9610401,0,0,0.9610402,-0.3255689,4.0594995)"
       y1="131.75999"
       x1="-45.608002" /><linearGradient
       id="linearGradient5592"
       y2="166.82001"
       xlink:href="#linearGradient5558"
       gradientUnits="userSpaceOnUse"
       x2="-45.608002"
       gradientTransform="matrix(0.9074747,-0.3163665,0.3163664,0.9074748,74.97152,-7.8955071)"
       y1="131.75999"
       x1="-45.608002" /><linearGradient
       id="linearGradient5594"
       y2="170.35001"
       xlink:href="#linearGradient5546"
       spreadMethod="reflect"
       gradientUnits="userSpaceOnUse"
       x2="-5.0131001"
       gradientTransform="matrix(0.9610401,0,0,0.9610402,91.679548,18.669998)"
       y1="168.92999"
       x1="-49.497002" /></defs><sodipodi:namedview
     id="base"
     pagecolor="#ffffff"
     bordercolor="#666666"
     borderopacity="1.0"
     inkscape:pageopacity="0.0"
     inkscape:pageshadow="2"
     inkscape:zoom="4.2379852"
     inkscape:cx="80.344782"
     inkscape:cy="36.573983"
     inkscape:document-units="mm"
     inkscape:current-layer="layer1"
     showgrid="false"
     fit-margin-top="0"
     fit-margin-left="0"
     fit-margin-right="0"
     fit-margin-bottom="0"
     inkscape:window-width="1846"
     inkscape:window-height="1016"
     inkscape:window-x="74"
     inkscape:window-y="27"
     inkscape:window-maximized="1"
     inkscape:showpageshadow="0"
     inkscape:pagecheckerboard="0"
     inkscape:deskcolor="#505050" /><metadata
     id="metadata1189"><rdf:RDF><cc:Work
         rdf:about=""><dc:format>image/svg+xml</dc:format><dc:type
           rdf:resource="http://purl.org/dc/dcmitype/StillImage" /></cc:Work></rdf:RDF></metadata><g
     inkscape:label="Layer 1"
     inkscape:groupmode="layer"
     id="layer1"
     transform="translate(-64.118909,-31.53643)"><path
       d="m 82.67031,46.264185 9.564121,-8.819336"
       style="fill:none;fill-opacity:1;stroke:#ff0000;stroke-width:0.507911;stroke-linecap:butt;stroke-linejoin:miter;stroke-miterlimit:4;stroke-dasharray:none;stroke-dashoffset:0;stroke-opacity:1"
       id="path664-3-6-1"
       inkscape:connector-curvature="0"
       sodipodi:nodetypes="cc" /><path
       d="m 89.048261,46.725865 c -0.09066,-0.0035 -0.190361,0.03895 -0.27199,0 -0.228216,-0.108889 -0.278064,-0.433219 -0.476371,-0.58962 -0.209989,-0.164347 -0.668757,-0.07851 -0.724214,-0.339597 -0.04626,-0.214197 0.400506,-0.281648 0.429637,-0.49896 0.02321,-0.174628 -0.226969,-0.476371 -0.226969,-0.476371 0,0 0.555506,-0.220271 0.816591,-0.364522 0.142382,-0.07851 0.293954,-0.15282 0.406582,-0.270744 0.181949,-0.191763 0.234758,-0.480734 0.408297,-0.680441 0.127115,-0.145965 0.264668,-0.31701 0.452069,-0.364523 0.247065,-0.06262 0.500205,0.09503 0.751476,0.138176 0.475279,0.081 0.958508,0.117458 1.428177,0.226347 0.300653,0.0701 0.590247,0.179611 0.884201,0.272612 0.189896,0.05904 0.382747,0.108422 0.567189,0.181327 0.444124,0.174783 0.907256,0.475904 1.292496,0.61221 0.385709,0.136307 1.400763,0.442411 2.109555,0.634642 0.464999,0.126649 1.224421,0.340221 1.405745,0.340221 0.181329,0 1.091066,0.100321 1.632572,0.181327 0.403446,0.06029 0.920796,-0.06761 1.202446,0.22697 0.11076,0.11621 0.1497,0.33835 0.0675,0.476525 -0.17713,0.298161 -0.64757,0.24878 -0.97486,0.362653 -0.300641,0.104683 -0.593363,0.245197 -0.907258,0.295044 -0.559864,0.08833 0.01154,0.517342 -0.538524,0.655361 -0.232423,0.05842 -0.541642,0.840427 -1.469618,0.310311 -0.122907,0.104684 -0.4759,-0.100321 -0.62249,-0.03162 -0.328538,0.154066 -0.733248,-0.178833 -1.087959,-0.25423 -0.30252,-0.06403 -0.564075,-0.258748 -0.862387,-0.339598 -0.324801,-0.08941 -0.662061,-0.132724 -0.99792,-0.158895 -0.293799,-0.02368 -0.58962,0 -0.8842,0 -0.203758,0 -0.71253,-0.04253 -1.06599,-0.09129 -0.365772,-0.04922 -0.725463,-0.136929 -1.088739,-0.203757 -0.37714,-0.06948 -0.753347,-0.153442 -1.133602,-0.203915 -0.172758,-0.02305 -0.34692,-0.0377 -0.521547,-0.04565 z"
       style="fill:none;fill-opacity:1;fill-rule:nonzero;stroke:#c80000;stroke-width:0.1402;stroke-linecap:butt;stroke-linejoin:miter;stroke-miterlimit:4;stroke-dasharray:none;stroke-opacity:1"
       id="path16"
       inkscape:connector-curvature="0" /><g
       id="g14"
       transform="matrix(0.20122932,0,0,0.20122932,70.913276,35.11708)"><path
         inkscape:connector-curvature="0"
         id="path16-8"
         style="fill:#477f7c;fill-opacity:1;fill-rule:nonzero;stroke:#000000;stroke-width:0.434713;stroke-linecap:butt;stroke-linejoin:miter;stroke-miterlimit:4;stroke-dasharray:none;stroke-opacity:1"
         d="m 9.691,23.324 c -0.582,-0.023 -1.222,0.25 -1.746,0 C 6.48,22.625 6.16,20.543 4.887,19.539 3.539,18.484 0.594,19.035 0.238,17.359 -0.059,15.984 2.809,15.551 2.996,14.156 3.145,13.035 1.539,11.098 1.539,11.098 c 0,0 3.566,-1.414 5.242,-2.34 0.914,-0.504 1.887,-0.981 2.61,-1.738 1.168,-1.231 1.507,-3.086 2.621,-4.368 0.816,-0.937 1.699,-2.035 2.902,-2.34 1.586,-0.402 3.211,0.61 4.824,0.887 3.051,0.52 6.153,0.754 9.168,1.453 1.93,0.45 3.789,1.153 5.676,1.75 1.219,0.379 2.457,0.696 3.641,1.164 2.851,1.122 5.824,3.055 8.297,3.93 2.476,0.875 8.992,2.84 13.542,4.074 2.985,0.813 7.86,2.184 9.024,2.184 1.164,0 7.004,0.644 10.48,1.164 2.59,0.387 5.911,-0.434 7.719,1.457 0.711,0.746 0.961,2.172 0.434,3.059 -1.137,1.914 -4.157,1.597 -6.258,2.328 -1.93,0.672 -3.809,1.574 -5.824,1.894 -3.594,0.567 0.074,3.321 -3.457,4.207 -1.492,0.375 -3.477,5.395 -9.434,1.992 -0.789,0.672 -3.055,-0.644 -3.996,-0.203 -2.109,0.989 -4.707,-1.148 -6.984,-1.632 -1.942,-0.411 -3.621,-1.661 -5.536,-2.18 -2.085,-0.574 -4.25,-0.852 -6.406,-1.02 -1.886,-0.152 -3.785,0 -5.676,0 -1.308,0 -4.574,-0.273 -6.843,-0.586 C 24.957,25.918 22.648,25.355 20.316,24.926 17.895,24.48 15.48,23.941 13.039,23.617 11.93,23.469 10.812,23.375 9.691,23.324 Z" /></g><text
       xml:space="preserve"
       style="font-style:italic;font-variant:normal;font-weight:normal;font-stretch:normal;font-size:4.02459px;line-height:1;font-family:Sans;-inkscape-font-specification:'Sans Italic';text-align:center;text-anchor:middle;fill:#ff0000;stroke-width:0.212764;stroke-linecap:round;stroke-miterlimit:8"
       x="79.007278"
       y="39.967136"
       id="text1"><tspan
         sodipodi:role="line"
         id="tspan1"
         style="font-style:italic;font-variant:normal;font-weight:normal;font-stretch:normal;font-family:Sans;-inkscape-font-specification:'Sans Italic';fill:#ff0000;fill-opacity:1;stroke-width:0.212764"
         x="79.007278"
         y="39.967136">A</tspan></text><text
       xml:space="preserve"
       style="font-style:italic;font-variant:normal;font-weight:normal;font-stretch:normal;font-size:4.02459px;line-height:1;font-family:Sans;-inkscape-font-specification:'Sans Italic';text-align:center;text-anchor:middle;fill:#ff0000;stroke-width:0.212764;stroke-linecap:round;stroke-miterlimit:8"
       x="65.46357"
       y="44.160248"
       id="text1-6"><tspan
         sodipodi:role="line"
         id="tspan1-6"
         style="font-style:normal;font-variant:normal;font-weight:normal;font-stretch:normal;font-family:Sans;-inkscape-font-specification:Sans;fill:#ff0000;fill-opacity:1;stroke-width:0.212764"
         x="65.46357"
         y="44.160248">4</tspan></text><text
       xml:space="preserve"
       style="font-style:normal;font-variant:normal;font-weight:normal;font-stretch:normal;font-size:2.4901px;line-height:1;font-family:Sans;-inkscape-font-specification:Sans;text-align:center;text-anchor:middle;fill:#ff0000;stroke-width:0.131642;stroke-linecap:round;stroke-miterlimit:8"
       x="101.77828"
       y="43.187923"
       id="text1-8"><tspan
         sodipodi:role="line"
         id="tspan1-2"
         style="font-style:normal;font-variant:normal;font-weight:normal;font-stretch:normal;font-family:Sans;-inkscape-font-specification:Sans;fill:#ff0000;fill-opacity:1;stroke-width:0.131642"
         x="101.77828"
         y="43.187923">2</tspan></text><path
       style="fill:none;stroke:#000000;stroke-width:0.21984;stroke-linecap:round"
       d="m 88.069146,48.429907 c -0.788477,-0.369065 -1.361581,-1.485919 -1.361581,-2.806391 0,-1.269448 0.529669,-2.35071 1.271164,-2.76029"
       id="path4" /><path
       style="fill:none;stroke:#000000;stroke-width:0.21984;stroke-linecap:round"
       d="m 100.4123,48.429907 c 0.78848,-0.369065 1.36158,-1.485919 1.36158,-2.806391 0,-1.269448 -0.52967,-2.35071 -1.27116,-2.76029"
       id="path4-5" /><path
       style="fill:none;stroke:#000000;stroke-width:0.351799;stroke-linecap:round;stroke-dasharray:none"
       d="m 99.888685,49.492957 c 2.278765,-1.066618 3.935055,-4.294391 3.935055,-8.110632 0,-3.66878 -1.53079,-6.79369 -3.67372,-7.977401"
       id="path4-5-6" /><path
       style="fill:none;stroke:#000000;stroke-width:0.351799;stroke-linecap:round;stroke-dasharray:none"
       d="m 74.113988,49.492957 c -2.278759,-1.066618 -3.935052,-4.294391 -3.935052,-8.110632 0,-3.66878 1.53079,-6.79369 3.673718,-7.977401"
       id="path4-5-6-0" /><text
       xml:space="preserve"
       style="font-style:normal;font-variant:normal;font-weight:bold;font-stretch:normal;font-size:9.87777px;line-height:1.25;font-family:Ubuntu;-inkscape-font-specification:'Ubuntu Bold';text-align:center;text-anchor:middle;fill:none;stroke:#000000;stroke-width:0.475001;stroke-linecap:round;stroke-dasharray:none"
       x="101.46914"
       y="41.186699"
       id="text6"><tspan
         sodipodi:role="line"
         id="tspan6"
         style="stroke-width:0.475"></tspan></text><path
       id="path10772-6"
       style="font-style:normal;font-variant:normal;font-weight:normal;font-stretch:normal;font-size:442.279px;line-height:125%;font-family:'Linux Libertine G';-inkscape-font-specification:'Linux Libertine G';font-variant-ligatures:normal;font-variant-caps:normal;font-variant-numeric:normal;font-feature-settings:normal;text-align:start;letter-spacing:0px;word-spacing:0px;writing-mode:lr-tb;text-anchor:start;fill:#ff0000;fill-opacity:1;stroke:none;stroke-width:0.02631px;stroke-linecap:butt;stroke-linejoin:miter;stroke-opacity:1"
       d="m 69.334353,41.942802 0.05673,0.06167 q -0.133193,0.283653 -0.463712,0.283653 h -0.254052 q -0.0148,0.182525 -0.0148,1.287541 0,0.160326 0.037,0.234323 0.03947,0.074 0.125795,0.074 0.246655,0 0.453846,-0.207191 0.06907,0.0074 0.09126,0.0814 -0.108528,0.145527 -0.283654,0.273787 -0.172658,0.128261 -0.332984,0.128261 -0.239255,0 -0.325585,-0.108529 -0.08387,-0.110994 -0.08387,-0.404514 0,-0.582107 0.01973,-1.359071 h -0.626504 q 0,0.947156 -0.15786,1.410868 -0.155393,0.461246 -0.517976,0.461246 -0.0888,0 -0.143061,-0.04193 -0.05427,-0.04193 -0.05427,-0.128261 0,-0.07153 0.05427,-0.128261 0.05673,-0.0592 0.152927,-0.08386 0.05673,-0.01233 0.0888,-0.02467 0.03453,-0.01233 0.08387,-0.05179 0.04933,-0.03947 0.07647,-0.09866 0.02713,-0.0592 0.06167,-0.167725 0.03453,-0.108529 0.0518,-0.258989 0.01726,-0.150459 0.0296,-0.374915 0.01233,-0.224457 0.01233,-0.513044 h -0.09126 q -0.189925,0 -0.305854,0.09126 -0.113461,0.09126 -0.180058,0.305854 -0.04193,0.0148 -0.07893,0.0049 -0.037,-0.01233 -0.04193,-0.0444 0.01233,-0.09866 0.04193,-0.189925 0.0296,-0.09373 0.08387,-0.187458 0.05673,-0.0962 0.130727,-0.165259 0.07647,-0.07153 0.189925,-0.115928 0.113462,-0.04439 0.251588,-0.04439 z"
       inkscape:connector-curvature="0" /></g></svg>
