<?xml version="1.0" encoding="UTF-8" standalone="no"?>
<!-- Created with Inkscape (http://www.inkscape.org/) -->

<svg
   width="26.556017mm"
   height="21.00099mm"
   viewBox="0 0 26.556017 21.00099"
   version="1.1"
   id="svg6653"
   inkscape:version="1.3.1 (91b66b0, 2023-11-16)"
   sodipodi:docname="junction_protein_area.svg"
   inkscape:export-filename="junction_protein_area.pdf"
   inkscape:export-xdpi="96"
   inkscape:export-ydpi="96"
   xmlns:inkscape="http://www.inkscape.org/namespaces/inkscape"
   xmlns:sodipodi="http://sodipodi.sourceforge.net/DTD/sodipodi-0.dtd"
   xmlns="http://www.w3.org/2000/svg"
   xmlns:svg="http://www.w3.org/2000/svg"
   xmlns:rdf="http://www.w3.org/1999/02/22-rdf-syntax-ns#"
   xmlns:cc="http://creativecommons.org/ns#"
   xmlns:dc="http://purl.org/dc/elements/1.1/">
  <defs
     id="defs6647">
    <inkscape:path-effect
       effect="fillet_chamfer"
       id="path-effect2"
       is_visible="true"
       lpeversion="1"
       nodesatellites_param="F,0,0,1,0,0,0,1 @ F,0,0,1,0,0,0,1 @ F,0,0,1,0,0,0,1 @ F,0,0,1,0,0,0,1 @ F,0,0,1,0,0,0,1 @ F,0,0,1,0,0,0,1 @ F,0,0,1,0,0,0,1 @ F,0,0,1,0,0,0,1 @ F,0,0,1,0,0,0,1 @ F,0,0,1,0,0,0,1 @ F,0,0,1,0,0,0,1 @ F,0,0,1,0,0,0,1 @ F,0,0,1,0,0,0,1 @ F,0,0,1,0,0,0,1 @ F,0,0,1,0,0,0,1 @ F,0,0,1,0,0,0,1 @ F,0,0,1,0,0,0,1 @ F,0,0,1,0,0,0,1 @ F,0,0,1,0,0,0,1 @ F,0,0,1,0,0,0,1"
       radius="0"
       unit="px"
       method="auto"
       mode="F"
       chamfer_steps="1"
       flexible="false"
       use_knot_distance="true"
       apply_no_radius="true"
       apply_with_radius="true"
       only_selected="false"
       hide_knots="false" />
    <inkscape:path-effect
       effect="fillet_chamfer"
       id="path-effect1"
       is_visible="true"
       lpeversion="1"
       nodesatellites_param="F,0,0,1,0,0,0,1 @ F,0,0,1,0,0,0,1 @ F,0,0,1,0,0,0,1 @ F,0,0,1,0,0,0,1 @ F,0,0,1,0,0,0,1 @ F,0,0,1,0,0,0,1 @ F,0,0,1,0,0,0,1 @ F,0,0,1,0,0,0,1 @ F,0,0,1,0,0,0,1 @ F,0,0,1,0,0,0,1 @ F,0,0,1,0,0,0,1 @ F,0,0,1,0,0,0,1 @ F,0,0,1,0,0,0,1 @ F,0,0,1,0,0,0,1 @ F,0,0,1,0,0,0,1 @ F,0,0,1,0,0,0,1 @ F,0,0,1,0,0,0,1 @ F,0,0,1,0,0,0,1 @ F,0,0,1,0,0,0,1"
       radius="0"
       unit="px"
       method="auto"
       mode="F"
       chamfer_steps="1"
       flexible="false"
       use_knot_distance="true"
       apply_no_radius="true"
       apply_with_radius="true"
       only_selected="false"
       hide_knots="false" />
  </defs>
  <sodipodi:namedview
     id="base"
     pagecolor="#ffffff"
     bordercolor="#666666"
     borderopacity="1.0"
     inkscape:pageopacity="0.0"
     inkscape:pageshadow="2"
     inkscape:zoom="7.1018121"
     inkscape:cx="52.169784"
     inkscape:cy="45.903777"
     inkscape:document-units="mm"
     inkscape:current-layer="layer1"
     showgrid="false"
     fit-margin-top="0"
     fit-margin-left="0"
     fit-margin-right="0"
     fit-margin-bottom="0"
     inkscape:window-width="1846"
     inkscape:window-height="1016"
     inkscape:window-x="74"
     inkscape:window-y="27"
     inkscape:window-maximized="1"
     inkscape:showpageshadow="0"
     inkscape:pagecheckerboard="0"
     inkscape:deskcolor="#505050" />
  <metadata
     id="metadata6650">
    <rdf:RDF>
      <cc:Work
         rdf:about="">
        <dc:format>image/svg+xml</dc:format>
        <dc:type
           rdf:resource="http://purl.org/dc/dcmitype/StillImage" />
      </cc:Work>
    </rdf:RDF>
  </metadata>
  <g
     inkscape:label="Layer 1"
     inkscape:groupmode="layer"
     id="layer1"
     transform="translate(-36.283822,-65.636699)">
    <path
       inkscape:connector-curvature="0"
       id="path4369-6-6-6"
       d="m 370.48681,80.148634 c -0.23423,-0.961566 -1.96273,0.25601 -2.9441,0.384016 -0.62335,0.08131 -1.24473,0.308256 -1.87006,0.243924 -1.91764,-0.19728 -3.64153,-1.266615 -5.4623,-1.899923 -1.78888,-0.622216 -3.57775,-1.244434 -5.36663,-1.86665 -0.86633,-0.301332 -1.73267,-0.602664 -2.599,-0.903997 -0.33819,-0.117631 -0.6839,-0.49024 -1.01457,-0.352894 -0.30616,0.127163 -0.28763,0.597396 -0.43145,0.896093 -0.57694,1.198259 -1.15388,2.396516 -1.73083,3.594772 -0.18626,0.386842 -0.21766,0.899806 -0.55878,1.160525 -0.53352,0.40777 -1.32057,0.244547 -1.98085,0.36682 -1.22353,0.226576 -3.24988,-0.491326 -3.67058,0.679726 -0.95441,2.656672 3.70387,4.264398 5.44211,6.48866 1.75304,2.2432 2.42036,5.754547 5.0235,6.90726 0.56969,0.252269 1.2388,-0.134649 1.8582,-0.201974 0.76814,-0.08349 1.53628,-0.166984 2.30442,-0.250476 1.8219,-0.198029 3.63653,-0.706555 5.46571,-0.594086 0.75496,0.04642 1.47256,0.346477 2.20884,0.519715 0.44982,0.105837 0.88742,0.309727 1.34946,0.317511 1.71594,0.02891 4.99856,0.70574 5.04856,-1.009708 0.17418,-5.976307 0.0812,-9.746433 -1.07165,-14.479314 z"
       style="stroke-width:1.0383px;fill:#477f7c;fill-opacity:1;stroke:none;stroke-linecap:butt;stroke-linejoin:miter;stroke-opacity:1;opacity:0.3"
       sodipodi:nodetypes="saaaaaaaaaaaaaaaaaass"
       inkscape:path-effect="#path-effect2"
       inkscape:original-d="m 370.48681,80.148634 c -0.23423,-0.961566 -1.96273,0.25601 -2.9441,0.384016 -0.62335,0.08131 -1.24473,0.308256 -1.87006,0.243924 -1.91764,-0.19728 -3.64153,-1.266615 -5.4623,-1.899923 -1.78888,-0.622216 -3.57775,-1.244434 -5.36663,-1.86665 -0.86633,-0.301332 -1.73267,-0.602664 -2.599,-0.903997 -0.33819,-0.117631 -0.6839,-0.49024 -1.01457,-0.352894 -0.30616,0.127163 -0.28763,0.597396 -0.43145,0.896093 -0.57694,1.198259 -1.15388,2.396516 -1.73083,3.594772 -0.18626,0.386842 -0.21766,0.899806 -0.55878,1.160525 -0.53352,0.40777 -1.32057,0.244547 -1.98085,0.36682 -1.22353,0.226576 -3.24988,-0.491326 -3.67058,0.679726 -0.95441,2.656672 3.70387,4.264398 5.44211,6.48866 1.75304,2.2432 2.42036,5.754547 5.0235,6.90726 0.56969,0.252269 1.2388,-0.134649 1.8582,-0.201974 0.76814,-0.08349 1.53628,-0.166984 2.30442,-0.250476 1.8219,-0.198029 3.63653,-0.706555 5.46571,-0.594086 0.75496,0.04642 1.47256,0.346477 2.20884,0.519715 0.44982,0.105837 0.88742,0.309727 1.34946,0.317511 1.71594,0.02891 4.99856,0.70574 5.04856,-1.009708 0.17418,-5.976307 0.0812,-9.746433 -1.07165,-14.479314 z"
       inkscape:label="cell2"
       transform="matrix(0.62065741,0,0,0.61847968,-168.72047,19.594254)" />
    <path
       inkscape:connector-curvature="0"
       id="path4367-3-3-3"
       d="m 351.17786,104.54778 1.20585,-4.890396 c 0.31319,-1.27014 1.19115,-2.526656 0.93956,-3.810418 -0.54752,-2.793799 -3.27046,-4.66406 -5.0235,-6.90726 -1.73824,-2.224262 -2.9604,-5.143327 -5.44211,-6.48866 -0.907,-0.491684 -2.04841,-0.248286 -3.07261,-0.372429 -1.02219,-0.123899 -2.04439,-0.247798 -3.06658,-0.371698 -0.25603,-0.03103 -0.51944,-0.161551 -0.76809,-0.0931 -0.1937,0.05332 -0.31795,0.245691 -0.47693,0.368536 -0.59834,0.462356 -1.19669,0.924711 -1.79503,1.387067 -0.6156,0.475693 -1.23121,0.951384 -1.84681,1.427078 -0.16203,0.125205 -0.4539,0.173395 -0.48609,0.375617 -0.0429,0.269613 0.30703,0.451512 0.46055,0.677269 0.50328,0.740106 1.00655,1.480216 1.50982,2.220323 0.92911,1.366338 1.85823,2.732672 2.78735,4.099008 0.66887,0.98362 1.33774,1.967238 2.0066,2.950861 0.11743,0.172692 0.28737,0.319589 0.35229,0.518077 0.22295,0.681636 0.0503,1.433462 0.0754,2.150193 0.0479,1.365521 -0.72751,3.044012 0.14374,4.096562 3.71866,4.49246 11.15253,8.11429 12.49659,2.66337 z"
       style="stroke-width:1.0383px;fill:#477f7c;fill-opacity:1;stroke:none;stroke-linecap:butt;stroke-linejoin:miter;stroke-opacity:1"
       sodipodi:nodetypes="saaaaaaaaaaaaaaaaass"
       inkscape:path-effect="#path-effect1"
       inkscape:original-d="m 351.17786,104.54778 1.20585,-4.890396 c 0.31319,-1.27014 1.19115,-2.526656 0.93956,-3.810418 -0.54752,-2.793799 -3.27046,-4.66406 -5.0235,-6.90726 -1.73824,-2.224262 -2.9604,-5.143327 -5.44211,-6.48866 -0.907,-0.491684 -2.04841,-0.248286 -3.07261,-0.372429 -1.02219,-0.123899 -2.04439,-0.247798 -3.06658,-0.371698 -0.25603,-0.03103 -0.51944,-0.161551 -0.76809,-0.0931 -0.1937,0.05332 -0.31795,0.245691 -0.47693,0.368536 -0.59834,0.462356 -1.19669,0.924711 -1.79503,1.387067 -0.6156,0.475693 -1.23121,0.951384 -1.84681,1.427078 -0.16203,0.125205 -0.4539,0.173395 -0.48609,0.375617 -0.0429,0.269613 0.30703,0.451512 0.46055,0.677269 0.50328,0.740106 1.00655,1.480216 1.50982,2.220323 0.92911,1.366338 1.85823,2.732672 2.78735,4.099008 0.66887,0.98362 1.33774,1.967238 2.0066,2.950861 0.11743,0.172692 0.28737,0.319589 0.35229,0.518077 0.22295,0.681636 0.0503,1.433462 0.0754,2.150193 0.0479,1.365521 -0.72751,3.044012 0.14374,4.096562 3.71866,4.49246 11.15253,8.11429 12.49659,2.66337 z"
       inkscape:label="cell1"
       transform="matrix(0.62065741,0,0,0.61847968,-168.72047,19.594254)" />
    <path
       sodipodi:nodetypes="zzzzzzzzzzzzzz"
       inkscape:connector-curvature="0"
       id="path4373-5-6-7"
       d="m 362.11435,90.980492 c 0.61739,-0.0707 1.70442,-0.28228 2.30243,-0.73259 0.598,-0.450306 0.92855,-1.049886 1.1512,-1.726812 0.22266,-0.67693 0.28668,-1.422686 0.10457,-2.197776 -0.18211,-0.775076 -0.62104,-1.698672 -1.25586,-2.250102 -0.63481,-0.551416 -1.42649,-0.726226 -2.30244,-0.889566 -0.87596,-0.16326 -2.06407,-0.0848 -2.87803,0 -0.81395,0.0847 -1.45363,0.0209 -1.98845,0.418626 -0.53482,0.39776 -0.82999,0.95201 -0.9419,1.726816 -0.11197,0.7748 0.28594,1.961006 0.57561,2.668722 0.28967,0.707716 0.6174,1.142306 0.99423,1.569826 0.37682,0.427516 0.70233,0.761236 1.20353,0.994236 0.50119,0.233 1.21985,0.24778 1.72682,0.31397 0.50696,0.0663 0.6909,0.17542 1.30829,0.10457 z"
       style="stroke-width:0.245719;opacity:0.3;fill:#83cfcb;fill-opacity:1;stroke:#000000;stroke-linecap:butt;stroke-linejoin:miter;stroke-dasharray:none;stroke-opacity:1"
       inkscape:label="nuclei2"
       transform="matrix(0.62065741,0,0,0.61847968,-168.72047,19.594254)" />
    <path
       sodipodi:nodetypes="zzzzzzzzzzzz"
       inkscape:connector-curvature="0"
       id="path4375-3-2-5"
       d="m 343.32862,92.288688 c -0.59475,0.366776 -1.60204,1.037146 -2.09312,1.936132 -0.49109,0.898986 -0.5338,2.099742 -0.5756,3.244312 -0.0418,1.144576 -0.0784,2.590598 0.36629,3.558298 0.44479,0.96769 1.12176,1.52255 1.93613,2.04079 0.81438,0.51822 1.8384,1.17498 2.82572,0.94189 0.98731,-0.23307 1.58576,-1.16595 2.19778,-2.19776 0.61201,-1.03182 1.14703,-2.735006 1.1512,-3.924602 0.005,-1.189586 -0.38757,-1.947072 -0.83725,-2.930352 -0.44968,-0.983286 -1.13993,-2.404802 -1.8838,-2.878028 -0.74388,-0.4732 -1.3027,-0.31919 -1.83147,-0.26163 -0.52877,0.0575 -0.66113,0.10408 -1.25588,0.47095 z"
       style="stroke-width:0.245719;opacity:0.505817;fill:#83cfcb;fill-opacity:1;stroke:#000000;stroke-linecap:butt;stroke-linejoin:miter;stroke-dasharray:none;stroke-opacity:1"
       inkscape:label="nuclei1"
       transform="matrix(0.62065741,0,0,0.61847968,-168.72047,19.594254)" />
    <path
       sodipodi:nodetypes="ssssssssssss"
       inkscape:connector-curvature="0"
       id="path4379-6-1-5"
       d="m 353.2186,87.317554 c 0.42613,-0.17461 0.48002,-0.80828 0.83725,-1.09889 0.34498,-0.280626 0.96645,-0.199386 1.20354,-0.575606 0.2511,-0.39844 0.0168,-0.942216 0,-1.412856 -0.0174,-0.48933 0.0191,-0.991436 -0.10457,-1.465176 -0.0829,-0.31707 -0.12874,-0.736626 -0.41862,-0.889566 -0.48441,-0.2556 -1.15137,-0.0182 -1.62217,0.26164 -0.41683,0.247836 -0.62211,0.746666 -0.88956,1.151196 -0.27565,0.416896 -0.63239,0.818576 -0.7326,1.308206 -0.0985,0.481216 0.0327,0.989976 0.15702,1.465176 0.10079,0.385546 0.15455,0.856466 0.47096,1.098886 0.29368,0.225066 0.7565,0.297286 1.09887,0.15702 z"
       style="stroke-width:0.245719;opacity:0.3;fill:#de5d1c;fill-opacity:1;stroke:#000000;stroke-linecap:butt;stroke-linejoin:miter;stroke-dasharray:none;stroke-opacity:1"
       transform="matrix(0.62065741,0,0,0.61847968,-168.72047,19.594254)"
       inkscape:label="golgi2" />
    <path
       sodipodi:nodetypes="zzzzzzzzzzzzz"
       inkscape:connector-curvature="0"
       id="path4377-5-6-3"
       d="m 344.63682,90.300232 c 0.35488,-0.13268 0.78953,-0.422156 0.83725,-0.889576 0.0477,-0.46743 -0.39352,-0.998786 -0.83725,-1.360526 -0.44374,-0.36174 -1.19151,-0.5438 -1.72682,-0.62793 -0.5353,-0.0842 -0.97489,-0.0681 -1.41285,0.0523 -0.43796,0.12035 -0.77286,0.15208 -1.15122,0.62794 -0.37836,0.4758 -0.50619,1.591586 -0.62793,2.250082 -0.12167,0.6585 -0.37826,1.275976 -0.15702,1.674496 0.22126,0.398506 0.59337,0.502386 0.9419,0.470956 0.34852,-0.0314 0.51208,-0.359866 0.83724,-0.627936 0.32515,-0.26808 0.72051,-0.715686 1.09889,-0.994226 0.37839,-0.27853 0.7624,-0.59454 1.15122,-0.68026 0.38881,-0.0857 0.69167,0.23745 1.04655,0.10474 z"
       style="stroke-width:0.2477;opacity:0.508378;fill:#de5d1c;fill-opacity:1;stroke:#000000;stroke-linecap:butt;stroke-linejoin:miter;stroke-miterlimit:4;stroke-dasharray:none;stroke-opacity:1"
       inkscape:label="golgi1"
       transform="matrix(0.62065741,0,0,0.61847968,-168.72047,19.594254)" />
    <path
       style="fill:none;fill-opacity:1;stroke:#00ff00;stroke-width:1.70371;stroke-linecap:butt;stroke-linejoin:miter;stroke-miterlimit:4;stroke-dasharray:none;stroke-opacity:0.462245"
       d="m 43.68127,70.630228 c -0.449833,-0.32259 -1.183528,-0.262783 -1.835623,-0.356617 -0.665064,-0.0957 -1.43718,-0.2706 -1.805022,-0.07163 -1.065556,0.576365 -2.661254,1.308618 -2.817996,2.195945 -0.143859,0.814422 0.848489,1.699839 1.562509,2.674018 0.813195,1.109493 2.62446,2.35498 2.414822,3.653072 -0.197691,1.224109 -0.750051,3.047889 0.293671,4.065939 2.220129,2.165525 6.688078,5.008277 7.921605,0.830561 0.288967,-0.978672 0.740033,-2.072252 0.970641,-3.030397 0.0421,-0.174902 0.202194,-1.77287 -0.135636,-2.514634 -0.277448,-0.609189 -1.599923,-2.861763 -3.249235,-4.690199 -1.325579,-1.469544 -3.021388,-2.613096 -3.349128,-2.803657"
       id="path618-1-5-7-0-1"
       inkscape:label="junction_area"
       transform="translate(-1.2708333e-6)" />
    <path
       style="fill:none;fill-opacity:1;stroke:#00ff00;stroke-width:1.70371;stroke-linecap:butt;stroke-linejoin:miter;stroke-miterlimit:4;stroke-dasharray:none;stroke-opacity:0.462245;opacity:0.3"
       d="m 44.035298,70.770725 c 1.017455,-0.947766 3.102786,-0.05994 3.623557,-0.774563 0.557838,-0.765486 1.023915,-3.471535 1.631234,-3.487364 0.734623,-0.01915 2.980264,0.939173 5.212368,1.828039 1.438259,0.572739 2.809018,1.289513 3.972652,1.120888 1.009432,-0.14628 2.760638,-1.289001 2.861159,0.01398 0.09597,1.243954 0.574696,2.138458 0.568308,4.453409 -0.0015,0.554687 0.06509,3.764715 -0.101815,4.388257 -0.131182,0.490071 -2.519818,0.424528 -3.027555,0.404359 -1.096198,-0.04355 -2.217306,-0.506605 -2.603789,-0.504234 -0.916751,0.0055 -2.424889,0.0854 -5.060386,0.542229"
       id="path1"
       inkscape:label="junction_area2"
       transform="translate(-1.2708333e-6)" />
    <path
       id="rect2"
       style="opacity:1;fill:#ff0000;stroke-width:1.761;stroke-linecap:round;stroke-opacity:0.462245"
       d="m 43.774931,70.17256 c 0.306574,-0.186194 0.780598,0.06655 1.024292,0.329742 0.150914,0.162988 0.02869,0.465329 0.154873,0.648133 0.314078,0.455001 0.92141,0.611661 1.371722,0.932425 0.210471,0.149921 0.434211,0.285358 0.621394,0.463506 0.167577,0.159489 0.334162,0.330421 0.441949,0.535118 0.160546,0.304889 0.07757,0.718382 0.284709,0.993746 0.187676,0.249491 0.587184,0.263214 0.793556,0.497476 0.201032,0.2282 0.251916,0.553662 0.383269,0.827952 0.170367,0.355759 0.25392,0.773974 0.525009,1.060505 0.233767,0.247083 0.677851,0.235221 0.888045,0.502645 0.37449,0.476455 0.463825,1.143828 0.496379,1.748967 0.0708,1.316066 -0.338272,2.620776 -0.665243,3.897543 -0.227646,0.888915 -0.277867,1.925975 -0.898163,2.602158 -0.614563,0.669933 -1.583544,1.072841 -2.491967,1.108415 -0.984163,0.03854 -1.926922,-0.503199 -2.785373,-0.986029 -0.684377,-0.384922 -1.273773,-0.930176 -1.825031,-1.489328 -0.516237,-0.523631 -1.133522,-1.032586 -1.370273,-1.728746 -0.32957,-0.969093 0.225388,-2.062914 0.04488,-3.070472 -0.13106,-0.731545 -0.420478,-1.443088 -0.804514,-2.079367 -0.428738,-0.710341 -1.153695,-1.200895 -1.635482,-1.876382 -0.590585,-0.828029 -1.571916,-1.628696 -1.521922,-2.644532 0.0089,-0.1811 0.215631,-0.291736 0.316305,-0.442537 0.193445,-0.289766 0.303846,-0.643128 0.552299,-0.887375 0.541886,-0.532714 1.236138,-0.927081 1.955682,-1.171376 0.441721,-0.149971 0.923743,-0.163195 1.390222,-0.160515 0.715943,0.0041 1.425936,0.144864 2.130718,0.270857 0.254951,0.04558 0.628431,-0.0497 0.756983,0.175132 0.127822,0.223561 -0.01105,0.604279 -0.231743,0.736994 -0.654977,0.393877 -1.490247,-0.406392 -2.254446,-0.417942 -0.72622,-0.01098 -1.527879,-0.03681 -2.153429,0.332249 -0.702743,0.414598 -1.480102,1.121191 -1.496619,1.936952 -0.0065,0.321833 0.373916,0.52409 0.559029,0.787438 0.476183,0.677431 0.953687,1.354029 1.419025,2.038955 0.621102,0.914192 1.539864,1.697535 1.832358,2.763351 0.204353,0.744644 -0.209988,1.547285 -0.11543,2.313649 0.08636,0.69995 0.22014,1.440399 0.615905,2.024145 0.402042,0.593002 1.109305,0.907384 1.678543,1.342421 0.516531,0.394756 0.958484,0.944501 1.575309,1.149839 0.772154,0.257045 1.67178,0.294696 2.441261,0.02976 0.46904,-0.161493 0.907249,-0.504446 1.161491,-0.930404 0.954713,-1.599531 1.254851,-3.651314 1.004942,-5.497262 -0.07641,-0.564417 -0.490911,-1.027962 -0.743133,-1.538639 -0.15996,-0.323873 -0.305552,-0.655841 -0.488424,-0.967351 -0.160365,-0.273171 -0.335465,-0.538993 -0.531953,-0.787452 -0.247911,-0.313481 -0.626327,-0.528212 -0.812111,-0.882068 -0.143628,-0.273562 0.0203,-0.69239 -0.204825,-0.90401 -0.180607,-0.169772 -0.544863,0.04102 -0.734007,-0.119189 -0.139651,-0.118286 -0.04645,-0.39078 -0.175968,-0.520077 -0.139859,-0.139616 -0.407021,-0.06631 -0.561911,-0.189034 -0.204503,-0.162039 -0.213752,-0.496246 -0.412595,-0.665183 -0.270483,-0.229803 -0.735717,-0.153699 -0.98363,-0.407687 -0.11574,-0.118576 -0.09235,-0.322553 -0.179163,-0.463686 -0.120709,-0.196228 -0.398704,-0.29186 -0.46309,-0.513063 -0.06712,-0.23059 -0.08497,-0.585699 0.120299,-0.710366 z"
       sodipodi:nodetypes="aaaaaaaaaaaaaaaaaaaaaaaaaaaaaaaaaaaaaaaaaaaaaaaaaaaaaaa"
       inkscape:label="protein_area"
       transform="translate(-1.2708333e-6)" />
    <path
       style="fill:#ff0000;stroke-width:1.761;stroke-linecap:round;stroke-opacity:0.462245;fill-opacity:0.52600431;opacity:0.3"
       d="m 47.239134,70.140403 c -0.124287,0.787235 -2.294679,0.811675 -2.390868,0.02052 -0.09037,-0.743309 1.568004,-0.09592 2.185442,-0.519532 1.093816,-0.750439 1.035745,-2.751652 2.252076,-3.280928 0.251036,-0.109236 0.545834,0.05857 0.812293,0.121427 0.989107,0.233336 1.933918,0.625407 2.898806,0.944421 1.254761,0.414853 2.472213,0.959021 3.758824,1.260948 0.520659,0.122183 1.273063,0.796847 1.821291,0.734989 0.888403,-0.100241 1.57742,-0.981862 2.38905,-0.678618 0.20975,0.07837 0.374344,0.262394 0.501987,0.446361 0.44611,0.642963 0.715789,1.418073 0.847144,2.189541 0.249799,1.467105 -0.08846,2.975144 -0.142257,4.462391 -0.0333,0.920726 0.462122,2.040955 -0.111757,2.761726 -0.313426,0.393652 -0.956333,0.340677 -1.456313,0.397407 -1.067848,0.121164 -2.146904,-0.112984 -3.221464,-0.130331 -1.237453,-0.01998 -2.476912,-0.03661 -3.712718,0.03027 -0.926018,0.05011 -1.987073,0.777467 -2.768227,0.27765 -0.158577,-0.101464 -0.284141,-0.37425 -0.184309,-0.533861 0.395577,-0.632447 1.479448,-0.194455 2.221683,-0.269005 1.385828,-0.139192 2.784196,-0.514116 4.165134,-0.33272 0.690929,0.09076 1.274213,0.665418 1.970267,0.699021 0.692447,0.03343 1.441643,-0.118008 2.017929,-0.503359 0.291826,-0.195138 0.522659,-0.511449 0.625957,-0.846964 0.400119,-1.299604 -0.05232,-2.720721 -0.159567,-4.076289 -0.07729,-0.976911 0.03915,-2.019088 -0.348368,-2.919177 -0.183461,-0.426128 -0.454802,-0.910406 -0.890574,-1.069609 -0.549164,-0.200629 -1.102756,0.281308 -1.726918,0.307009 -0.383809,0.0158 -1.376855,-0.05743 -1.744153,-0.170424 -0.729259,-0.224344 -0.821895,-0.212741 -1.54134,-0.465898 -1.466927,-0.516179 -2.859809,-1.242192 -4.351074,-1.683148 -0.401542,-0.118733 -0.819357,-0.340428 -1.229653,-0.256818 -0.276818,0.05641 -0.51944,0.263285 -0.695667,0.484089 -0.194395,0.24357 -0.276366,0.564021 -0.350524,0.866703 -0.105352,0.430002 0.151565,0.978402 -0.127595,1.322016 -0.289437,0.356263 -1.310116,-0.0488 -1.31454,0.410199 l 3e-6,10e-7 z"
       id="rect2-2"
       inkscape:label="protein_area2"
       sodipodi:nodetypes="aaaaaasssaaaaaaaaaaaaaaaaasssaaaaaaaa"
       transform="translate(-1.2708333e-6)" />
    <text
       xml:space="preserve"
       style="font-style:italic;font-variant:normal;font-weight:normal;font-stretch:normal;font-size:5.16479px;line-height:1;font-family:Sans;-inkscape-font-specification:'Sans Italic';text-align:center;text-anchor:middle;fill:#ff0000;stroke-width:0.273042;stroke-linecap:round;stroke-miterlimit:8"
       x="38.860344"
       y="69.629677"
       id="text1"><tspan
         sodipodi:role="line"
         id="tspan1"
         style="font-style:italic;font-variant:normal;font-weight:normal;font-stretch:normal;font-family:Sans;-inkscape-font-specification:'Sans Italic';fill:#ff0000;fill-opacity:1;stroke-width:0.273042"
         x="38.860344"
         y="69.629677">A</tspan></text>
  </g>
</svg>
