<?xml version="1.0" encoding="UTF-8" standalone="no"?>
<!-- Created with Inkscape (http://www.inkscape.org/) -->

<svg
   width="26.556017mm"
   height="21.00099mm"
   viewBox="0 0 26.556017 21.00099"
   version="1.1"
   id="svg6653"
   inkscape:version="1.3.1 (91b66b0, 2023-11-16)"
   sodipodi:docname="junction_protein_intensity.svg"
   inkscape:export-filename="junction_protein_area.pdf"
   inkscape:export-xdpi="96"
   inkscape:export-ydpi="96"
   xmlns:inkscape="http://www.inkscape.org/namespaces/inkscape"
   xmlns:sodipodi="http://sodipodi.sourceforge.net/DTD/sodipodi-0.dtd"
   xmlns="http://www.w3.org/2000/svg"
   xmlns:svg="http://www.w3.org/2000/svg"
   xmlns:rdf="http://www.w3.org/1999/02/22-rdf-syntax-ns#"
   xmlns:cc="http://creativecommons.org/ns#"
   xmlns:dc="http://purl.org/dc/elements/1.1/">
  <defs
     id="defs6647">
    <inkscape:path-effect
       effect="fillet_chamfer"
       id="path-effect2"
       is_visible="true"
       lpeversion="1"
       nodesatellites_param="F,0,0,1,0,0,0,1 @ F,0,0,1,0,0,0,1 @ F,0,0,1,0,0,0,1 @ F,0,0,1,0,0,0,1 @ F,0,0,1,0,0,0,1 @ F,0,0,1,0,0,0,1 @ F,0,0,1,0,0,0,1 @ F,0,0,1,0,0,0,1 @ F,0,0,1,0,0,0,1 @ F,0,0,1,0,0,0,1 @ F,0,0,1,0,0,0,1 @ F,0,0,1,0,0,0,1 @ F,0,0,1,0,0,0,1 @ F,0,0,1,0,0,0,1 @ F,0,0,1,0,0,0,1 @ F,0,0,1,0,0,0,1 @ F,0,0,1,0,0,0,1 @ F,0,0,1,0,0,0,1 @ F,0,0,1,0,0,0,1 @ F,0,0,1,0,0,0,1"
       radius="0"
       unit="px"
       method="auto"
       mode="F"
       chamfer_steps="1"
       flexible="false"
       use_knot_distance="true"
       apply_no_radius="true"
       apply_with_radius="true"
       only_selected="false"
       hide_knots="false" />
    <inkscape:path-effect
       effect="fillet_chamfer"
       id="path-effect1"
       is_visible="true"
       lpeversion="1"
       nodesatellites_param="F,0,0,1,0,0,0,1 @ F,0,0,1,0,0,0,1 @ F,0,0,1,0,0,0,1 @ F,0,0,1,0,0,0,1 @ F,0,0,1,0,0,0,1 @ F,0,0,1,0,0,0,1 @ F,0,0,1,0,0,0,1 @ F,0,0,1,0,0,0,1 @ F,0,0,1,0,0,0,1 @ F,0,0,1,0,0,0,1 @ F,0,0,1,0,0,0,1 @ F,0,0,1,0,0,0,1 @ F,0,0,1,0,0,0,1 @ F,0,0,1,0,0,0,1 @ F,0,0,1,0,0,0,1 @ F,0,0,1,0,0,0,1 @ F,0,0,1,0,0,0,1 @ F,0,0,1,0,0,0,1 @ F,0,0,1,0,0,0,1"
       radius="0"
       unit="px"
       method="auto"
       mode="F"
       chamfer_steps="1"
       flexible="false"
       use_knot_distance="true"
       apply_no_radius="true"
       apply_with_radius="true"
       only_selected="false"
       hide_knots="false" />
  </defs>
  <sodipodi:namedview
     id="base"
     pagecolor="#ffffff"
     bordercolor="#666666"
     borderopacity="1.0"
     inkscape:pageopacity="0.0"
     inkscape:pageshadow="2"
     inkscape:zoom="3.5509061"
     inkscape:cx="23.796743"
     inkscape:cy="18.305187"
     inkscape:document-units="mm"
     inkscape:current-layer="layer1"
     showgrid="false"
     fit-margin-top="0"
     fit-margin-left="0"
     fit-margin-right="0"
     fit-margin-bottom="0"
     inkscape:window-width="1846"
     inkscape:window-height="1016"
     inkscape:window-x="74"
     inkscape:window-y="27"
     inkscape:window-maximized="1"
     inkscape:showpageshadow="0"
     inkscape:pagecheckerboard="0"
     inkscape:deskcolor="#505050" />
  <metadata
     id="metadata6650">
    <rdf:RDF>
      <cc:Work
         rdf:about="">
        <dc:format>image/svg+xml</dc:format>
        <dc:type
           rdf:resource="http://purl.org/dc/dcmitype/StillImage" />
      </cc:Work>
    </rdf:RDF>
  </metadata>
  <g
     inkscape:label="Layer 1"
     inkscape:groupmode="layer"
     id="layer1"
     transform="translate(-36.283822,-65.636699)">
    <path
       inkscape:connector-curvature="0"
       id="path4369-6-6-6"
       d="m 370.48681,80.148634 c -0.23423,-0.961566 -1.96273,0.25601 -2.9441,0.384016 -0.62335,0.08131 -1.24473,0.308256 -1.87006,0.243924 -1.91764,-0.19728 -3.64153,-1.266615 -5.4623,-1.899923 -1.78888,-0.622216 -3.57775,-1.244434 -5.36663,-1.86665 -0.86633,-0.301332 -1.73267,-0.602664 -2.599,-0.903997 -0.33819,-0.117631 -0.6839,-0.49024 -1.01457,-0.352894 -0.30616,0.127163 -0.28763,0.597396 -0.43145,0.896093 -0.57694,1.198259 -1.15388,2.396516 -1.73083,3.594772 -0.18626,0.386842 -0.21766,0.899806 -0.55878,1.160525 -0.53352,0.40777 -1.32057,0.244547 -1.98085,0.36682 -1.22353,0.226576 -3.24988,-0.491326 -3.67058,0.679726 -0.95441,2.656672 3.70387,4.264398 5.44211,6.48866 1.75304,2.2432 2.42036,5.754547 5.0235,6.90726 0.56969,0.252269 1.2388,-0.134649 1.8582,-0.201974 0.76814,-0.08349 1.53628,-0.166984 2.30442,-0.250476 1.8219,-0.198029 3.63653,-0.706555 5.46571,-0.594086 0.75496,0.04642 1.47256,0.346477 2.20884,0.519715 0.44982,0.105837 0.88742,0.309727 1.34946,0.317511 1.71594,0.02891 4.99856,0.70574 5.04856,-1.009708 0.17418,-5.976307 0.0812,-9.746433 -1.07165,-14.479314 z"
       style="fill:#477f7c;fill-opacity:1;stroke:none;stroke-width:1.0383px;stroke-linecap:butt;stroke-linejoin:miter;stroke-opacity:1;opacity:0.3"
       sodipodi:nodetypes="saaaaaaaaaaaaaaaaaass"
       inkscape:path-effect="#path-effect2"
       inkscape:original-d="m 370.48681,80.148634 c -0.23423,-0.961566 -1.96273,0.25601 -2.9441,0.384016 -0.62335,0.08131 -1.24473,0.308256 -1.87006,0.243924 -1.91764,-0.19728 -3.64153,-1.266615 -5.4623,-1.899923 -1.78888,-0.622216 -3.57775,-1.244434 -5.36663,-1.86665 -0.86633,-0.301332 -1.73267,-0.602664 -2.599,-0.903997 -0.33819,-0.117631 -0.6839,-0.49024 -1.01457,-0.352894 -0.30616,0.127163 -0.28763,0.597396 -0.43145,0.896093 -0.57694,1.198259 -1.15388,2.396516 -1.73083,3.594772 -0.18626,0.386842 -0.21766,0.899806 -0.55878,1.160525 -0.53352,0.40777 -1.32057,0.244547 -1.98085,0.36682 -1.22353,0.226576 -3.24988,-0.491326 -3.67058,0.679726 -0.95441,2.656672 3.70387,4.264398 5.44211,6.48866 1.75304,2.2432 2.42036,5.754547 5.0235,6.90726 0.56969,0.252269 1.2388,-0.134649 1.8582,-0.201974 0.76814,-0.08349 1.53628,-0.166984 2.30442,-0.250476 1.8219,-0.198029 3.63653,-0.706555 5.46571,-0.594086 0.75496,0.04642 1.47256,0.346477 2.20884,0.519715 0.44982,0.105837 0.88742,0.309727 1.34946,0.317511 1.71594,0.02891 4.99856,0.70574 5.04856,-1.009708 0.17418,-5.976307 0.0812,-9.746433 -1.07165,-14.479314 z"
       inkscape:label="cell2"
       transform="matrix(0.58545236,0,0,0.58339815,-155.69622,22.736052)" />
    <path
       inkscape:connector-curvature="0"
       id="path4367-3-3-3"
       d="m 351.17786,104.54778 1.20585,-4.890396 c 0.31319,-1.27014 1.19115,-2.526656 0.93956,-3.810418 -0.54752,-2.793799 -3.27046,-4.66406 -5.0235,-6.90726 -1.73824,-2.224262 -2.9604,-5.143327 -5.44211,-6.48866 -0.907,-0.491684 -2.04841,-0.248286 -3.07261,-0.372429 -1.02219,-0.123899 -2.04439,-0.247798 -3.06658,-0.371698 -0.25603,-0.03103 -0.51944,-0.161551 -0.76809,-0.0931 -0.1937,0.05332 -0.31795,0.245691 -0.47693,0.368536 -0.59834,0.462356 -1.19669,0.924711 -1.79503,1.387067 -0.6156,0.475693 -1.23121,0.951384 -1.84681,1.427078 -0.16203,0.125205 -0.4539,0.173395 -0.48609,0.375617 -0.0429,0.269613 0.30703,0.451512 0.46055,0.677269 0.50328,0.740106 1.00655,1.480216 1.50982,2.220323 0.92911,1.366338 1.85823,2.732672 2.78735,4.099008 0.66887,0.98362 1.33774,1.967238 2.0066,2.950861 0.11743,0.172692 0.28737,0.319589 0.35229,0.518077 0.22295,0.681636 0.0503,1.433462 0.0754,2.150193 0.0479,1.365521 -0.72751,3.044012 0.14374,4.096562 3.71866,4.49246 11.15253,8.11429 12.49659,2.66337 z"
       style="fill:#477f7c;fill-opacity:1;stroke:none;stroke-width:1.0383px;stroke-linecap:butt;stroke-linejoin:miter;stroke-opacity:1"
       sodipodi:nodetypes="saaaaaaaaaaaaaaaaass"
       inkscape:path-effect="#path-effect1"
       inkscape:original-d="m 351.17786,104.54778 1.20585,-4.890396 c 0.31319,-1.27014 1.19115,-2.526656 0.93956,-3.810418 -0.54752,-2.793799 -3.27046,-4.66406 -5.0235,-6.90726 -1.73824,-2.224262 -2.9604,-5.143327 -5.44211,-6.48866 -0.907,-0.491684 -2.04841,-0.248286 -3.07261,-0.372429 -1.02219,-0.123899 -2.04439,-0.247798 -3.06658,-0.371698 -0.25603,-0.03103 -0.51944,-0.161551 -0.76809,-0.0931 -0.1937,0.05332 -0.31795,0.245691 -0.47693,0.368536 -0.59834,0.462356 -1.19669,0.924711 -1.79503,1.387067 -0.6156,0.475693 -1.23121,0.951384 -1.84681,1.427078 -0.16203,0.125205 -0.4539,0.173395 -0.48609,0.375617 -0.0429,0.269613 0.30703,0.451512 0.46055,0.677269 0.50328,0.740106 1.00655,1.480216 1.50982,2.220323 0.92911,1.366338 1.85823,2.732672 2.78735,4.099008 0.66887,0.98362 1.33774,1.967238 2.0066,2.950861 0.11743,0.172692 0.28737,0.319589 0.35229,0.518077 0.22295,0.681636 0.0503,1.433462 0.0754,2.150193 0.0479,1.365521 -0.72751,3.044012 0.14374,4.096562 3.71866,4.49246 11.15253,8.11429 12.49659,2.66337 z"
       inkscape:label="cell1"
       transform="matrix(0.58545236,0,0,0.58339815,-155.69622,22.736052)" />
    <path
       sodipodi:nodetypes="zzzzzzzzzzzzzz"
       inkscape:connector-curvature="0"
       id="path4373-5-6-7"
       d="m 56.304473,75.813903 c 0.361452,-0.04125 0.997857,-0.164681 1.347963,-0.427391 0.350101,-0.262708 0.543622,-0.612502 0.673973,-1.007419 0.130357,-0.39492 0.167837,-0.829993 0.06122,-1.282179 -0.106617,-0.452178 -0.36359,-0.991002 -0.735247,-1.312705 -0.371651,-0.321695 -0.835142,-0.423679 -1.347969,-0.518971 -0.512832,-0.09525 -1.208414,-0.04947 -1.684949,0 -0.476529,0.04941 -0.851031,0.01219 -1.164143,0.244225 -0.313111,0.232053 -0.485919,0.555401 -0.551437,1.007422 -0.06555,0.452017 0.167404,1.144047 0.336992,1.556927 0.169588,0.41288 0.361458,0.666419 0.582074,0.915834 0.22061,0.249412 0.411181,0.444103 0.70461,0.580035 0.293423,0.135932 0.714164,0.144555 1.01097,0.18317 0.296801,0.03868 0.40449,0.102339 0.765942,0.06101 z"
       style="opacity:0.3;fill:#83cfcb;fill-opacity:1;stroke:#000000;stroke-width:0.143604;stroke-linecap:butt;stroke-linejoin:miter;stroke-dasharray:none;stroke-opacity:1"
       inkscape:label="nuclei2" />
    <path
       sodipodi:nodetypes="zzzzzzzzzzzz"
       inkscape:connector-curvature="0"
       id="path4375-3-2-5"
       d="m 45.306323,76.577103 c -0.348198,0.213976 -0.937918,0.605069 -1.225422,1.129535 -0.28751,0.524467 -0.312514,1.224986 -0.336986,1.892726 -0.02447,0.667744 -0.0459,1.51135 0.214445,2.075904 0.260403,0.564549 0.656737,0.888253 1.133512,1.190594 0.476781,0.302328 1.076295,0.685481 1.654324,0.549496 0.578023,-0.135972 0.928387,-0.680213 1.286696,-1.282169 0.358302,-0.601962 0.671531,-1.595597 0.673973,-2.289605 0.0029,-0.694002 -0.226904,-1.135918 -0.49017,-1.709562 -0.263267,-0.573647 -0.667375,-1.402957 -1.102876,-1.679036 -0.435506,-0.276064 -0.762668,-0.186215 -1.072238,-0.152635 -0.30957,0.03355 -0.38706,0.06072 -0.735258,0.274752 z"
       style="opacity:0.505817;fill:#83cfcb;fill-opacity:1;stroke:#000000;stroke-width:0.143604;stroke-linecap:butt;stroke-linejoin:miter;stroke-dasharray:none;stroke-opacity:1"
       inkscape:label="nuclei1" />
    <path
       sodipodi:nodetypes="ssssssssssss"
       inkscape:connector-curvature="0"
       id="path4379-6-1-5"
       d="m 51.096435,73.676952 c 0.249479,-0.101867 0.281029,-0.471549 0.49017,-0.64109 0.201969,-0.163717 0.565811,-0.116322 0.704615,-0.335808 0.147008,-0.232449 0.0098,-0.549687 0,-0.824257 -0.01019,-0.285475 0.01118,-0.578402 -0.06122,-0.854781 -0.04853,-0.184978 -0.07537,-0.429747 -0.245082,-0.518971 -0.283599,-0.149117 -0.674073,-0.01062 -0.949704,0.15264 -0.244034,0.144587 -0.364215,0.435603 -0.520795,0.671605 -0.16138,0.243217 -0.370234,0.477556 -0.428902,0.763205 -0.05767,0.280741 0.01914,0.577551 0.09193,0.854781 0.05901,0.224927 0.09048,0.499661 0.275724,0.641088 0.171936,0.131304 0.442895,0.173437 0.643336,0.09161 z"
       style="opacity:0.3;fill:#de5d1c;fill-opacity:1;stroke:#000000;stroke-width:0.143604;stroke-linecap:butt;stroke-linejoin:miter;stroke-dasharray:none;stroke-opacity:1"
       inkscape:label="golgi2" />
    <path
       sodipodi:nodetypes="zzzzzzzzzzzzz"
       inkscape:connector-curvature="0"
       id="path4377-5-6-3"
       d="m 46.072212,75.417041 c 0.207765,-0.0774 0.462232,-0.246285 0.49017,-0.518977 0.02793,-0.272698 -0.230387,-0.58269 -0.49017,-0.793728 -0.259789,-0.211039 -0.697573,-0.317252 -1.010971,-0.366334 -0.313393,-0.04912 -0.570752,-0.03973 -0.827156,0.03051 -0.256405,0.07021 -0.452473,0.08872 -0.673985,0.366339 -0.221512,0.277581 -0.29635,0.928529 -0.367623,1.312694 -0.07123,0.384168 -0.221453,0.744402 -0.09193,0.976898 0.129538,0.232487 0.34739,0.293091 0.551438,0.274755 0.204042,-0.01832 0.299798,-0.209946 0.490164,-0.366337 0.19036,-0.156397 0.421824,-0.41753 0.643348,-0.58003 0.221529,-0.162494 0.446349,-0.346853 0.673984,-0.396862 0.22763,-0.05 0.40494,0.138528 0.612705,0.0611 z"
       style="opacity:0.508378;fill:#de5d1c;fill-opacity:1;stroke:#000000;stroke-width:0.144762;stroke-linecap:butt;stroke-linejoin:miter;stroke-miterlimit:4;stroke-dasharray:none;stroke-opacity:1"
       inkscape:label="golgi1" />
    <path
       style="fill:none;fill-opacity:1;stroke:#00ff00;stroke-width:1.60707;stroke-linecap:butt;stroke-linejoin:miter;stroke-miterlimit:4;stroke-dasharray:none;stroke-opacity:0.462245"
       d="m 44.657618,70.877154 c -0.424317,-0.304292 -1.116395,-0.247878 -1.731502,-0.336389 -0.62734,-0.09027 -1.35566,-0.255251 -1.702637,-0.06757 -1.005116,0.543672 -2.510302,1.23439 -2.658153,2.071386 -0.135699,0.768226 0.80036,1.60342 1.47388,2.522342 0.767068,1.04656 2.475595,2.2214 2.277848,3.445862 -0.186478,1.154674 -0.707507,2.875006 0.277013,3.83531 2.094198,2.042691 6.308716,4.724196 7.472274,0.783449 0.272576,-0.923159 0.698057,-1.954709 0.915584,-2.858506 0.03971,-0.164981 0.190725,-1.672309 -0.127942,-2.371998 -0.261711,-0.574635 -1.509172,-2.699438 -3.064931,-4.424161 -1.25039,-1.386188 -2.850009,-2.464875 -3.159159,-2.644627"
       id="path618-1-5-7-0-1"
       inkscape:label="junction_area" />
    <path
       style="fill:none;fill-opacity:1;stroke:#00ff00;stroke-width:1.60707;stroke-linecap:butt;stroke-linejoin:miter;stroke-miterlimit:4;stroke-dasharray:none;stroke-opacity:0.462245;opacity:0.3"
       d="m 44.991565,71.009681 c 0.959743,-0.894006 2.926789,-0.05654 3.418021,-0.730628 0.526196,-0.722066 0.965836,-3.274622 1.538707,-3.289553 0.692953,-0.01806 2.811217,0.885901 4.916711,1.724349 1.356678,0.540252 2.649684,1.216369 3.747314,1.057309 0.952175,-0.137983 2.604049,-1.215886 2.698868,0.01319 0.09053,1.173394 0.542098,2.01716 0.536072,4.200802 -0.0014,0.523224 0.0614,3.551172 -0.09604,4.139345 -0.123742,0.462273 -2.376889,0.400448 -2.855826,0.381423 -1.034019,-0.04108 -2.091535,-0.477869 -2.456096,-0.475633 -0.864751,0.0052 -2.287344,0.08056 -4.77335,0.511473"
       id="path1"
       inkscape:label="junction_area2" />
    <path
       id="rect2"
       style="opacity:1;fill:#ff0000;stroke-width:1.66111;stroke-linecap:round;stroke-opacity:0.462245"
       d="m 44.745967,70.445446 c 0.289184,-0.175633 0.73632,0.06278 0.966192,0.311038 0.142353,0.153743 0.02706,0.438935 0.146088,0.611369 0.296263,0.429193 0.869145,0.576967 1.293915,0.879536 0.198532,0.141417 0.409581,0.269172 0.586147,0.437215 0.158072,0.150443 0.315208,0.311679 0.416881,0.504765 0.151439,0.287595 0.07317,0.677634 0.268559,0.937379 0.177031,0.235339 0.553878,0.248284 0.748544,0.469258 0.189629,0.215256 0.237627,0.522257 0.361529,0.780988 0.160704,0.33558 0.239517,0.730073 0.49523,1.000351 0.220507,0.233068 0.639401,0.221879 0.837673,0.474134 0.353248,0.44943 0.437515,1.078948 0.468223,1.649762 0.06678,1.241416 -0.319085,2.47212 -0.627509,3.676466 -0.214733,0.838494 -0.262106,1.816729 -0.847217,2.454558 -0.579704,0.631933 -1.493722,1.011987 -2.350617,1.045543 -0.92834,0.03635 -1.817623,-0.474657 -2.627381,-0.930099 -0.645558,-0.363089 -1.201522,-0.877415 -1.721511,-1.40485 -0.486955,-0.49393 -1.069226,-0.974016 -1.292548,-1.630688 -0.310876,-0.914124 0.212603,-1.945901 0.04233,-2.896308 -0.123626,-0.69005 -0.396628,-1.361233 -0.75888,-1.961421 -0.404419,-0.670049 -1.088255,-1.132778 -1.542714,-1.769949 -0.557086,-0.781062 -1.482753,-1.536313 -1.435595,-2.494529 0.0084,-0.170827 0.2034,-0.275188 0.298363,-0.417435 0.182473,-0.27333 0.286611,-0.606648 0.520972,-0.837041 0.511149,-0.502498 1.166021,-0.874495 1.844751,-1.104933 0.416666,-0.141465 0.871346,-0.153938 1.311366,-0.15141 0.675333,0.0039 1.345053,0.136647 2.009859,0.255493 0.240489,0.043 0.592785,-0.04688 0.714045,0.165198 0.120572,0.21088 -0.01042,0.570003 -0.218598,0.69519 -0.617825,0.371536 -1.405717,-0.38334 -2.126569,-0.394235 -0.685027,-0.01036 -1.441214,-0.03472 -2.031282,0.313403 -0.662882,0.391081 -1.396147,1.057594 -1.411727,1.827084 -0.0061,0.303578 0.352706,0.494362 0.527319,0.742772 0.449173,0.639006 0.899592,1.277226 1.338535,1.923301 0.585872,0.862337 1.45252,1.601248 1.728423,2.606608 0.192761,0.702406 -0.198077,1.45952 -0.108883,2.182414 0.08146,0.660247 0.207653,1.358696 0.58097,1.909331 0.379237,0.559365 1.046382,0.855915 1.583332,1.266276 0.487232,0.372364 0.904117,0.890927 1.485954,1.084617 0.728356,0.242465 1.576953,0.277981 2.302787,0.02807 0.442435,-0.152332 0.855788,-0.475832 1.095609,-0.877629 0.90056,-1.508802 1.183673,-3.444204 0.94794,-5.185445 -0.07208,-0.532402 -0.463066,-0.969654 -0.700981,-1.451364 -0.150887,-0.305503 -0.288221,-0.618641 -0.46072,-0.912481 -0.151269,-0.257676 -0.316437,-0.50842 -0.501779,-0.742786 -0.233849,-0.2957 -0.590801,-0.498251 -0.766047,-0.832035 -0.135481,-0.258045 0.01915,-0.653116 -0.193206,-0.852733 -0.170363,-0.160142 -0.513958,0.03869 -0.692373,-0.112428 -0.13173,-0.111577 -0.04381,-0.368614 -0.165987,-0.490577 -0.131926,-0.131697 -0.383934,-0.06255 -0.530038,-0.178312 -0.192903,-0.152848 -0.201627,-0.468098 -0.389192,-0.627452 -0.25514,-0.216768 -0.693985,-0.144981 -0.927836,-0.384562 -0.109175,-0.11185 -0.08711,-0.304257 -0.169,-0.437385 -0.113862,-0.185097 -0.376089,-0.275305 -0.436823,-0.483961 -0.06331,-0.21751 -0.08015,-0.552477 0.113475,-0.670072 z"
       sodipodi:nodetypes="aaaaaaaaaaaaaaaaaaaaaaaaaaaaaaaaaaaaaaaaaaaaaaaaaaaaaaa"
       inkscape:label="protein_area" />
    <path
       style="fill:#ff0000;fill-opacity:0.526004;stroke-width:1.66111;stroke-linecap:round;stroke-opacity:0.462245;opacity:0.3"
       d="m 48.013672,70.415113 c -0.117237,0.742581 -2.164519,0.765635 -2.255252,0.01936 -0.08524,-0.701147 1.479063,-0.09048 2.061479,-0.490063 1.031772,-0.707873 0.976995,-2.595572 2.124333,-3.094827 0.236797,-0.10304 0.514873,0.05525 0.766218,0.11454 0.933003,0.2201 1.824222,0.589932 2.734379,0.890851 1.183588,0.391322 2.331984,0.904623 3.545616,1.189424 0.491126,0.115253 1.200852,0.751648 1.717983,0.693299 0.838011,-0.09455 1.487945,-0.926169 2.253538,-0.640125 0.197852,0.07392 0.35311,0.24751 0.473513,0.421042 0.420806,0.606493 0.675188,1.337637 0.799092,2.065346 0.23563,1.383887 -0.08344,2.806387 -0.134188,4.209274 -0.03141,0.8685 0.43591,1.925188 -0.105418,2.605075 -0.295648,0.371323 -0.902087,0.321353 -1.373707,0.374865 -1.007278,0.114291 -2.025127,-0.106575 -3.038736,-0.122938 -1.167262,-0.01885 -2.336416,-0.03453 -3.502124,0.02855 -0.873493,0.04727 -1.874362,0.733367 -2.611207,0.261901 -0.149583,-0.09571 -0.268024,-0.353022 -0.173855,-0.503579 0.373139,-0.596574 1.39553,-0.183426 2.095664,-0.253747 1.307221,-0.131297 2.62627,-0.484954 3.928879,-0.313847 0.651738,0.08561 1.201936,0.627674 1.858509,0.659371 0.65317,0.03153 1.35987,-0.111315 1.903467,-0.474808 0.275273,-0.184069 0.493013,-0.482438 0.590452,-0.798922 0.377423,-1.225888 -0.04935,-2.566396 -0.150516,-3.845073 -0.07291,-0.921498 0.03693,-1.904561 -0.328608,-2.753595 -0.173055,-0.401957 -0.429005,-0.858766 -0.840059,-1.008938 -0.518014,-0.189249 -1.040205,0.265351 -1.628963,0.289595 -0.362039,0.0149 -1.298757,-0.05417 -1.645221,-0.160758 -0.687894,-0.211618 -0.775275,-0.200674 -1.453912,-0.439471 -1.383719,-0.4869 -2.697594,-1.171732 -4.104271,-1.587676 -0.378766,-0.111998 -0.772882,-0.321118 -1.159905,-0.242251 -0.261116,0.05321 -0.489976,0.248351 -0.656207,0.456631 -0.183368,0.229754 -0.26069,0.532028 -0.330641,0.817541 -0.09938,0.405612 0.142967,0.922905 -0.120358,1.247029 -0.273019,0.336055 -1.235803,-0.04603 -1.239976,0.386931 l 2e-6,10e-7 z"
       id="rect2-2"
       inkscape:label="protein_area2"
       sodipodi:nodetypes="aaaaaasssaaaaaaaaaaaaaaaaasssaaaaaaaa" />
    <rect
       style="fill:#ff0000;stroke-width:1.03926;stroke-linecap:round"
       id="rect1"
       width="10.69162"
       height="0.9868024"
       x="36.821358"
       y="67.631828" />
  </g>
</svg>
