<?xml version="1.0" encoding="UTF-8" standalone="no"?>
<!-- Created with Inkscape (http://www.inkscape.org/) -->

<svg
   width="26.556017mm"
   height="21.00099mm"
   viewBox="0 0 26.556017 21.00099"
   version="1.1"
   id="svg6653"
   inkscape:version="1.3.1 (91b66b0, 2023-11-16)"
   sodipodi:docname="junction_interface_linearity_index.svg"
   inkscape:export-filename="junction_interface_occupancy.pdf"
   inkscape:export-xdpi="96"
   inkscape:export-ydpi="96"
   xmlns:inkscape="http://www.inkscape.org/namespaces/inkscape"
   xmlns:sodipodi="http://sodipodi.sourceforge.net/DTD/sodipodi-0.dtd"
   xmlns="http://www.w3.org/2000/svg"
   xmlns:svg="http://www.w3.org/2000/svg"
   xmlns:rdf="http://www.w3.org/1999/02/22-rdf-syntax-ns#"
   xmlns:cc="http://creativecommons.org/ns#"
   xmlns:dc="http://purl.org/dc/elements/1.1/">
  <defs
     id="defs6647">
    <inkscape:path-effect
       effect="fillet_chamfer"
       id="path-effect2"
       is_visible="true"
       lpeversion="1"
       nodesatellites_param="F,0,0,1,0,0,0,1 @ F,0,0,1,0,0,0,1 @ F,0,0,1,0,0,0,1 @ F,0,0,1,0,0,0,1 @ F,0,0,1,0,0,0,1 @ F,0,0,1,0,0,0,1 @ F,0,0,1,0,0,0,1 @ F,0,0,1,0,0,0,1 @ F,0,0,1,0,0,0,1 @ F,0,0,1,0,0,0,1 @ F,0,0,1,0,0,0,1 @ F,0,0,1,0,0,0,1 @ F,0,0,1,0,0,0,1 @ F,0,0,1,0,0,0,1 @ F,0,0,1,0,0,0,1 @ F,0,0,1,0,0,0,1 @ F,0,0,1,0,0,0,1 @ F,0,0,1,0,0,0,1 @ F,0,0,1,0,0,0,1 @ F,0,0,1,0,0,0,1"
       radius="0"
       unit="px"
       method="auto"
       mode="F"
       chamfer_steps="1"
       flexible="false"
       use_knot_distance="true"
       apply_no_radius="true"
       apply_with_radius="true"
       only_selected="false"
       hide_knots="false" />
    <inkscape:path-effect
       effect="fillet_chamfer"
       id="path-effect1"
       is_visible="true"
       lpeversion="1"
       nodesatellites_param="F,0,0,1,0,0,0,1 @ F,0,0,1,0,0,0,1 @ F,0,0,1,0,0,0,1 @ F,0,0,1,0,0,0,1 @ F,0,0,1,0,0,0,1 @ F,0,0,1,0,0,0,1 @ F,0,0,1,0,0,0,1 @ F,0,0,1,0,0,0,1 @ F,0,0,1,0,0,0,1 @ F,0,0,1,0,0,0,1 @ F,0,0,1,0,0,0,1 @ F,0,0,1,0,0,0,1 @ F,0,0,1,0,0,0,1 @ F,0,0,1,0,0,0,1 @ F,0,0,1,0,0,0,1 @ F,0,0,1,0,0,0,1 @ F,0,0,1,0,0,0,1 @ F,0,0,1,0,0,0,1 @ F,0,0,1,0,0,0,1"
       radius="0"
       unit="px"
       method="auto"
       mode="F"
       chamfer_steps="1"
       flexible="false"
       use_knot_distance="true"
       apply_no_radius="true"
       apply_with_radius="true"
       only_selected="false"
       hide_knots="false" />
    <inkscape:path-effect
       effect="fillet_chamfer"
       id="path-effect2-5"
       is_visible="true"
       lpeversion="1"
       nodesatellites_param="F,0,0,1,0,0,0,1 @ F,0,0,1,0,0,0,1 @ F,0,0,1,0,0,0,1 @ F,0,0,1,0,0,0,1 @ F,0,0,1,0,0,0,1 @ F,0,0,1,0,0,0,1 @ F,0,0,1,0,0,0,1 @ F,0,0,1,0,0,0,1 @ F,0,0,1,0,0,0,1 @ F,0,0,1,0,0,0,1 @ F,0,0,1,0,0,0,1 @ F,0,0,1,0,0,0,1 @ F,0,0,1,0,0,0,1 @ F,0,0,1,0,0,0,1 @ F,0,0,1,0,0,0,1 @ F,0,0,1,0,0,0,1 @ F,0,0,1,0,0,0,1 @ F,0,0,1,0,0,0,1 @ F,0,0,1,0,0,0,1 @ F,0,0,1,0,0,0,1"
       radius="0"
       unit="px"
       method="auto"
       mode="F"
       chamfer_steps="1"
       flexible="false"
       use_knot_distance="true"
       apply_no_radius="true"
       apply_with_radius="true"
       only_selected="false"
       hide_knots="false" />
    <inkscape:path-effect
       effect="fillet_chamfer"
       id="path-effect1-5"
       is_visible="true"
       lpeversion="1"
       nodesatellites_param="F,0,0,1,0,0,0,1 @ F,0,0,1,0,0,0,1 @ F,0,0,1,0,0,0,1 @ F,0,0,1,0,0,0,1 @ F,0,0,1,0,0,0,1 @ F,0,0,1,0,0,0,1 @ F,0,0,1,0,0,0,1 @ F,0,0,1,0,0,0,1 @ F,0,0,1,0,0,0,1 @ F,0,0,1,0,0,0,1 @ F,0,0,1,0,0,0,1 @ F,0,0,1,0,0,0,1 @ F,0,0,1,0,0,0,1 @ F,0,0,1,0,0,0,1 @ F,0,0,1,0,0,0,1 @ F,0,0,1,0,0,0,1 @ F,0,0,1,0,0,0,1 @ F,0,0,1,0,0,0,1 @ F,0,0,1,0,0,0,1"
       radius="0"
       unit="px"
       method="auto"
       mode="F"
       chamfer_steps="1"
       flexible="false"
       use_knot_distance="true"
       apply_no_radius="true"
       apply_with_radius="true"
       only_selected="false"
       hide_knots="false" />
    <inkscape:path-effect
       effect="fillet_chamfer"
       id="path-effect2-2"
       is_visible="true"
       lpeversion="1"
       nodesatellites_param="F,0,0,1,0,0,0,1 @ F,0,0,1,0,0,0,1 @ F,0,0,1,0,0,0,1 @ F,0,0,1,0,0,0,1 @ F,0,0,1,0,0,0,1 @ F,0,0,1,0,0,0,1 @ F,0,0,1,0,0,0,1 @ F,0,0,1,0,0,0,1 @ F,0,0,1,0,0,0,1 @ F,0,0,1,0,0,0,1 @ F,0,0,1,0,0,0,1 @ F,0,0,1,0,0,0,1 @ F,0,0,1,0,0,0,1 @ F,0,0,1,0,0,0,1 @ F,0,0,1,0,0,0,1 @ F,0,0,1,0,0,0,1 @ F,0,0,1,0,0,0,1 @ F,0,0,1,0,0,0,1 @ F,0,0,1,0,0,0,1 @ F,0,0,1,0,0,0,1"
       radius="0"
       unit="px"
       method="auto"
       mode="F"
       chamfer_steps="1"
       flexible="false"
       use_knot_distance="true"
       apply_no_radius="true"
       apply_with_radius="true"
       only_selected="false"
       hide_knots="false" />
    <inkscape:path-effect
       effect="fillet_chamfer"
       id="path-effect1-54"
       is_visible="true"
       lpeversion="1"
       nodesatellites_param="F,0,0,1,0,0,0,1 @ F,0,0,1,0,0,0,1 @ F,0,0,1,0,0,0,1 @ F,0,0,1,0,0,0,1 @ F,0,0,1,0,0,0,1 @ F,0,0,1,0,0,0,1 @ F,0,0,1,0,0,0,1 @ F,0,0,1,0,0,0,1 @ F,0,0,1,0,0,0,1 @ F,0,0,1,0,0,0,1 @ F,0,0,1,0,0,0,1 @ F,0,0,1,0,0,0,1 @ F,0,0,1,0,0,0,1 @ F,0,0,1,0,0,0,1 @ F,0,0,1,0,0,0,1 @ F,0,0,1,0,0,0,1 @ F,0,0,1,0,0,0,1 @ F,0,0,1,0,0,0,1 @ F,0,0,1,0,0,0,1"
       radius="0"
       unit="px"
       method="auto"
       mode="F"
       chamfer_steps="1"
       flexible="false"
       use_knot_distance="true"
       apply_no_radius="true"
       apply_with_radius="true"
       only_selected="false"
       hide_knots="false" />
    <inkscape:path-effect
       effect="fillet_chamfer"
       id="path-effect1-6"
       is_visible="true"
       lpeversion="1"
       nodesatellites_param="F,0,0,1,0,0,0,1 @ F,0,0,1,0,0,0,1 @ F,0,0,1,0,0,0,1 @ F,0,0,1,0,0,0,1 @ F,0,0,1,0,0,0,1 @ F,0,0,1,0,0,0,1 @ F,0,0,1,0,0,0,1 @ F,0,0,1,0,0,0,1 @ F,0,0,1,0,0,0,1 @ F,0,0,1,0,0,0,1 @ F,0,0,1,0,0,0,1 @ F,0,0,1,0,0,0,1 @ F,0,0,1,0,0,0,1 @ F,0,0,1,0,0,0,1 @ F,0,0,1,0,0,0,1 @ F,0,0,1,0,0,0,1 @ F,0,0,1,0,0,0,1 @ F,0,0,1,0,0,0,1 @ F,0,0,1,0,0,0,1"
       radius="0"
       unit="px"
       method="auto"
       mode="F"
       chamfer_steps="1"
       flexible="false"
       use_knot_distance="true"
       apply_no_radius="true"
       apply_with_radius="true"
       only_selected="false"
       hide_knots="false" />
    <inkscape:path-effect
       effect="fillet_chamfer"
       id="path-effect2-1"
       is_visible="true"
       lpeversion="1"
       nodesatellites_param="F,0,0,1,0,0,0,1 @ F,0,0,1,0,0,0,1 @ F,0,0,1,0,0,0,1 @ F,0,0,1,0,0,0,1 @ F,0,0,1,0,0,0,1 @ F,0,0,1,0,0,0,1 @ F,0,0,1,0,0,0,1 @ F,0,0,1,0,0,0,1 @ F,0,0,1,0,0,0,1 @ F,0,0,1,0,0,0,1 @ F,0,0,1,0,0,0,1 @ F,0,0,1,0,0,0,1 @ F,0,0,1,0,0,0,1 @ F,0,0,1,0,0,0,1 @ F,0,0,1,0,0,0,1 @ F,0,0,1,0,0,0,1 @ F,0,0,1,0,0,0,1 @ F,0,0,1,0,0,0,1 @ F,0,0,1,0,0,0,1 @ F,0,0,1,0,0,0,1"
       radius="0"
       unit="px"
       method="auto"
       mode="F"
       chamfer_steps="1"
       flexible="false"
       use_knot_distance="true"
       apply_no_radius="true"
       apply_with_radius="true"
       only_selected="false"
       hide_knots="false" />
    <inkscape:path-effect
       effect="fillet_chamfer"
       id="path-effect2-1-3"
       is_visible="true"
       lpeversion="1"
       nodesatellites_param="F,0,0,1,0,0,0,1 @ F,0,0,1,0,0,0,1 @ F,0,0,1,0,0,0,1 @ F,0,0,1,0,0,0,1 @ F,0,0,1,0,0,0,1 @ F,0,0,1,0,0,0,1 @ F,0,0,1,0,0,0,1 @ F,0,0,1,0,0,0,1 @ F,0,0,1,0,0,0,1 @ F,0,0,1,0,0,0,1 @ F,0,0,1,0,0,0,1 @ F,0,0,1,0,0,0,1 @ F,0,0,1,0,0,0,1 @ F,0,0,1,0,0,0,1 @ F,0,0,1,0,0,0,1 @ F,0,0,1,0,0,0,1 @ F,0,0,1,0,0,0,1 @ F,0,0,1,0,0,0,1 @ F,0,0,1,0,0,0,1 @ F,0,0,1,0,0,0,1"
       radius="0"
       unit="px"
       method="auto"
       mode="F"
       chamfer_steps="1"
       flexible="false"
       use_knot_distance="true"
       apply_no_radius="true"
       apply_with_radius="true"
       only_selected="false"
       hide_knots="false" />
    <inkscape:path-effect
       effect="fillet_chamfer"
       id="path-effect1-6-6"
       is_visible="true"
       lpeversion="1"
       nodesatellites_param="F,0,0,1,0,0,0,1 @ F,0,0,1,0,0,0,1 @ F,0,0,1,0,0,0,1 @ F,0,0,1,0,0,0,1 @ F,0,0,1,0,0,0,1 @ F,0,0,1,0,0,0,1 @ F,0,0,1,0,0,0,1 @ F,0,0,1,0,0,0,1 @ F,0,0,1,0,0,0,1 @ F,0,0,1,0,0,0,1 @ F,0,0,1,0,0,0,1 @ F,0,0,1,0,0,0,1 @ F,0,0,1,0,0,0,1 @ F,0,0,1,0,0,0,1 @ F,0,0,1,0,0,0,1 @ F,0,0,1,0,0,0,1 @ F,0,0,1,0,0,0,1 @ F,0,0,1,0,0,0,1 @ F,0,0,1,0,0,0,1"
       radius="0"
       unit="px"
       method="auto"
       mode="F"
       chamfer_steps="1"
       flexible="false"
       use_knot_distance="true"
       apply_no_radius="true"
       apply_with_radius="true"
       only_selected="false"
       hide_knots="false" />
  </defs>
  <sodipodi:namedview
     id="base"
     pagecolor="#ffffff"
     bordercolor="#666666"
     borderopacity="1.0"
     inkscape:pageopacity="0.0"
     inkscape:pageshadow="2"
     inkscape:zoom="7.1018121"
     inkscape:cx="48.508746"
     inkscape:cy="36.187947"
     inkscape:document-units="mm"
     inkscape:current-layer="layer1"
     showgrid="false"
     fit-margin-top="0"
     fit-margin-left="0"
     fit-margin-right="0"
     fit-margin-bottom="0"
     inkscape:window-width="1846"
     inkscape:window-height="1016"
     inkscape:window-x="74"
     inkscape:window-y="27"
     inkscape:window-maximized="1"
     inkscape:showpageshadow="0"
     inkscape:pagecheckerboard="0"
     inkscape:deskcolor="#505050" />
  <metadata
     id="metadata6650">
    <rdf:RDF>
      <cc:Work
         rdf:about="">
        <dc:format>image/svg+xml</dc:format>
        <dc:type
           rdf:resource="http://purl.org/dc/dcmitype/StillImage" />
      </cc:Work>
    </rdf:RDF>
  </metadata>
  <g
     inkscape:label="Layer 1"
     inkscape:groupmode="layer"
     id="layer1"
     transform="translate(-36.283822,-65.636699)">
    <rect
       style="fill:#ff0000;stroke-width:1.16042;stroke-linecap:round"
       id="rect1"
       width="21.283276"
       height="0.61804074"
       x="8.6506805"
       y="-88.611946"
       transform="rotate(135)" />
    <path
       inkscape:connector-curvature="0"
       id="path4369-6-6-6"
       d="m 370.48681,80.148634 c -0.23423,-0.961566 -1.96273,0.25601 -2.9441,0.384016 -0.62335,0.08131 -1.24473,0.308256 -1.87006,0.243924 -1.91764,-0.19728 -3.64153,-1.266615 -5.4623,-1.899923 -1.78888,-0.622216 -3.57775,-1.244434 -5.36663,-1.86665 -0.86633,-0.301332 -1.73267,-0.602664 -2.599,-0.903997 -0.33819,-0.117631 -0.6839,-0.49024 -1.01457,-0.352894 -0.30616,0.127163 -0.28763,0.597396 -0.43145,0.896093 -0.57694,1.198259 -1.15388,2.396516 -1.73083,3.594772 -0.18626,0.386842 -0.21766,0.899806 -0.55878,1.160525 -0.53352,0.40777 -1.32057,0.244547 -1.98085,0.36682 -1.22353,0.226576 -3.24988,-0.491326 -3.67058,0.679726 -0.95441,2.656672 3.70387,4.264398 5.44211,6.48866 1.75304,2.2432 2.42036,5.754547 5.0235,6.90726 0.56969,0.252269 1.2388,-0.134649 1.8582,-0.201974 0.76814,-0.08349 1.53628,-0.166984 2.30442,-0.250476 1.8219,-0.198029 3.63653,-0.706555 5.46571,-0.594086 0.75496,0.04642 1.47256,0.346477 2.20884,0.519715 0.44982,0.105837 0.88742,0.309727 1.34946,0.317511 1.71594,0.02891 4.99856,0.70574 5.04856,-1.009708 0.17418,-5.976307 0.0812,-9.746433 -1.07165,-14.479314 z"
       style="opacity:0.3;fill:#477f7c;fill-opacity:1;stroke:none;stroke-width:1.0383px;stroke-linecap:butt;stroke-linejoin:miter;stroke-opacity:1"
       sodipodi:nodetypes="saaaaaaaaaaaaaaaaaass"
       inkscape:path-effect="#path-effect2-1"
       inkscape:original-d="m 370.48681,80.148634 c -0.23423,-0.961566 -1.96273,0.25601 -2.9441,0.384016 -0.62335,0.08131 -1.24473,0.308256 -1.87006,0.243924 -1.91764,-0.19728 -3.64153,-1.266615 -5.4623,-1.899923 -1.78888,-0.622216 -3.57775,-1.244434 -5.36663,-1.86665 -0.86633,-0.301332 -1.73267,-0.602664 -2.599,-0.903997 -0.33819,-0.117631 -0.6839,-0.49024 -1.01457,-0.352894 -0.30616,0.127163 -0.28763,0.597396 -0.43145,0.896093 -0.57694,1.198259 -1.15388,2.396516 -1.73083,3.594772 -0.18626,0.386842 -0.21766,0.899806 -0.55878,1.160525 -0.53352,0.40777 -1.32057,0.244547 -1.98085,0.36682 -1.22353,0.226576 -3.24988,-0.491326 -3.67058,0.679726 -0.95441,2.656672 3.70387,4.264398 5.44211,6.48866 1.75304,2.2432 2.42036,5.754547 5.0235,6.90726 0.56969,0.252269 1.2388,-0.134649 1.8582,-0.201974 0.76814,-0.08349 1.53628,-0.166984 2.30442,-0.250476 1.8219,-0.198029 3.63653,-0.706555 5.46571,-0.594086 0.75496,0.04642 1.47256,0.346477 2.20884,0.519715 0.44982,0.105837 0.88742,0.309727 1.34946,0.317511 1.71594,0.02891 4.99856,0.70574 5.04856,-1.009708 0.17418,-5.976307 0.0812,-9.746433 -1.07165,-14.479314 z"
       inkscape:label="cell2"
       transform="matrix(0.34115994,0,0,0.3399629,-76.040547,40.607033)" />
    <path
       inkscape:connector-curvature="0"
       id="path4367-3-3-3-0"
       d="m 351.17786,104.54778 1.20585,-4.890396 c 0.31319,-1.27014 1.19115,-2.526656 0.93956,-3.810418 -0.54752,-2.793799 -3.27046,-4.66406 -5.0235,-6.90726 -1.73824,-2.224262 -2.9604,-5.143327 -5.44211,-6.48866 -0.907,-0.491684 -2.04841,-0.248286 -3.07261,-0.372429 -1.02219,-0.123899 -2.04439,-0.247798 -3.06658,-0.371698 -0.25603,-0.03103 -0.51944,-0.161551 -0.76809,-0.0931 -0.1937,0.05332 -0.31795,0.245691 -0.47693,0.368536 -0.59834,0.462356 -1.19669,0.924711 -1.79503,1.387067 -0.6156,0.475693 -1.23121,0.951384 -1.84681,1.427078 -0.16203,0.125205 -0.4539,0.173395 -0.48609,0.375617 -0.0429,0.269613 0.30703,0.451512 0.46055,0.677269 0.50328,0.740106 1.00655,1.480216 1.50982,2.220323 0.92911,1.366338 1.85823,2.732672 2.78735,4.099008 0.66887,0.98362 1.33774,1.967238 2.0066,2.950861 0.11743,0.172692 0.28737,0.319589 0.35229,0.518077 0.22295,0.681636 0.0503,1.433462 0.0754,2.150193 0.0479,1.365521 -0.72751,3.044012 0.14374,4.096562 3.71866,4.49246 11.15253,8.11429 12.49659,2.66337 z"
       style="fill:#477f7c;fill-opacity:1;stroke:none;stroke-width:1.0383px;stroke-linecap:butt;stroke-linejoin:miter;stroke-opacity:1"
       sodipodi:nodetypes="saaaaaaaaaaaaaaaaass"
       inkscape:path-effect="#path-effect1-6"
       inkscape:original-d="m 351.17786,104.54778 1.20585,-4.890396 c 0.31319,-1.27014 1.19115,-2.526656 0.93956,-3.810418 -0.54752,-2.793799 -3.27046,-4.66406 -5.0235,-6.90726 -1.73824,-2.224262 -2.9604,-5.143327 -5.44211,-6.48866 -0.907,-0.491684 -2.04841,-0.248286 -3.07261,-0.372429 -1.02219,-0.123899 -2.04439,-0.247798 -3.06658,-0.371698 -0.25603,-0.03103 -0.51944,-0.161551 -0.76809,-0.0931 -0.1937,0.05332 -0.31795,0.245691 -0.47693,0.368536 -0.59834,0.462356 -1.19669,0.924711 -1.79503,1.387067 -0.6156,0.475693 -1.23121,0.951384 -1.84681,1.427078 -0.16203,0.125205 -0.4539,0.173395 -0.48609,0.375617 -0.0429,0.269613 0.30703,0.451512 0.46055,0.677269 0.50328,0.740106 1.00655,1.480216 1.50982,2.220323 0.92911,1.366338 1.85823,2.732672 2.78735,4.099008 0.66887,0.98362 1.33774,1.967238 2.0066,2.950861 0.11743,0.172692 0.28737,0.319589 0.35229,0.518077 0.22295,0.681636 0.0503,1.433462 0.0754,2.150193 0.0479,1.365521 -0.72751,3.044012 0.14374,4.096562 3.71866,4.49246 11.15253,8.11429 12.49659,2.66337 z"
       inkscape:label="cell1"
       transform="matrix(0.34115994,0,0,0.3399629,-76.040547,40.607033)" />
    <path
       sodipodi:nodetypes="zzzzzzzzzzzzzz"
       inkscape:connector-curvature="0"
       id="path4373-5-6-7"
       d="m 47.498369,71.537026 c 0.210629,-0.02404 0.581479,-0.09596 0.785498,-0.249053 0.204013,-0.153088 0.316783,-0.356922 0.392741,-0.587053 0.07596,-0.23013 0.09781,-0.48366 0.03567,-0.747161 -0.06213,-0.263497 -0.211874,-0.577486 -0.428448,-0.764952 -0.216573,-0.187461 -0.486662,-0.24689 -0.785502,-0.302419 -0.298841,-0.05549 -0.704178,-0.02882 -0.981868,0 -0.277687,0.02879 -0.49592,0.0071 -0.678379,0.142317 -0.18246,0.135224 -0.28316,0.323648 -0.321339,0.587054 -0.0382,0.263403 0.09755,0.666668 0.196375,0.907265 0.09883,0.240597 0.210632,0.388343 0.339191,0.533683 0.128556,0.14534 0.239607,0.258793 0.410597,0.338004 0.170985,0.07922 0.416163,0.08423 0.589122,0.106738 0.172953,0.02254 0.235707,0.05964 0.446335,0.03555 z"
       style="opacity:0.3;fill:#83cfcb;fill-opacity:1;stroke:#000000;stroke-width:0.0836824;stroke-linecap:butt;stroke-linejoin:miter;stroke-dasharray:none;stroke-opacity:1"
       inkscape:label="nuclei2" />
    <path
       sodipodi:nodetypes="zzzzzzzzzzzz"
       inkscape:connector-curvature="0"
       id="path4375-3-2-5-6"
       d="m 41.089431,71.981764 c -0.202905,0.124691 -0.546553,0.352591 -0.71409,0.658214 -0.16754,0.305621 -0.182111,0.713834 -0.196371,1.102945 -0.01426,0.389113 -0.02674,0.880707 0.124964,1.20969 0.151743,0.328978 0.382697,0.51761 0.660529,0.693792 0.277833,0.176175 0.627189,0.39945 0.964023,0.320208 0.336831,-0.07924 0.540998,-0.396379 0.749794,-0.747157 0.208793,-0.35078 0.391321,-0.929801 0.392744,-1.334219 0.0016,-0.404415 -0.132225,-0.661932 -0.285638,-0.996211 -0.153412,-0.334281 -0.388897,-0.817543 -0.642675,-0.978423 -0.253783,-0.16087 -0.444431,-0.108512 -0.624825,-0.08894 -0.180395,0.01955 -0.225551,0.03538 -0.428455,0.160106 z"
       style="opacity:0.505817;fill:#83cfcb;fill-opacity:1;stroke:#000000;stroke-width:0.0836824;stroke-linecap:butt;stroke-linejoin:miter;stroke-dasharray:none;stroke-opacity:1"
       inkscape:label="nuclei1" />
    <path
       sodipodi:nodetypes="ssssssssssss"
       inkscape:connector-curvature="0"
       id="path4379-6-1-5"
       d="m 44.463495,70.291764 c 0.145379,-0.05936 0.163763,-0.274787 0.285637,-0.373583 0.117694,-0.0954 0.329713,-0.06779 0.410599,-0.195685 0.08566,-0.135454 0.0058,-0.320318 0,-0.480318 -0.006,-0.166354 0.0066,-0.337052 -0.03567,-0.498105 -0.02828,-0.107793 -0.04392,-0.250426 -0.142818,-0.302421 -0.165261,-0.08689 -0.3928,-0.0062 -0.553418,0.08895 -0.142207,0.08426 -0.212239,0.253838 -0.303483,0.391364 -0.09404,0.141729 -0.215746,0.278285 -0.249934,0.44474 -0.0336,0.163597 0.01117,0.336557 0.05356,0.498106 0.03439,0.131071 0.05273,0.291167 0.160672,0.373582 0.100184,0.07651 0.258088,0.101067 0.37489,0.05338 z"
       style="opacity:0.3;fill:#de5d1c;fill-opacity:1;stroke:#000000;stroke-width:0.0836824;stroke-linecap:butt;stroke-linejoin:miter;stroke-dasharray:none;stroke-opacity:1"
       inkscape:label="golgi2" />
    <path
       sodipodi:nodetypes="zzzzzzzzzzzzz"
       inkscape:connector-curvature="0"
       id="path4377-5-6-3-3"
       d="m 41.535736,71.305764 c 0.121071,-0.0451 0.269357,-0.143519 0.285636,-0.302424 0.01628,-0.158909 -0.134253,-0.33955 -0.285636,-0.462528 -0.151387,-0.12298 -0.406496,-0.184871 -0.589123,-0.213474 -0.182621,-0.02863 -0.332592,-0.02316 -0.482007,0.01778 -0.149414,0.0409 -0.263669,0.0517 -0.39275,0.213476 -0.129083,0.161754 -0.172692,0.54108 -0.214226,0.764945 -0.04151,0.223865 -0.129046,0.433783 -0.05357,0.569267 0.07548,0.135477 0.202434,0.170791 0.321338,0.160106 0.118902,-0.01067 0.174701,-0.12234 0.285634,-0.213474 0.110928,-0.09113 0.245808,-0.243308 0.374896,-0.338001 0.129093,-0.09469 0.2601,-0.202122 0.392752,-0.231262 0.132645,-0.02913 0.235969,0.08073 0.357039,0.03561 z"
       style="opacity:0.508378;fill:#de5d1c;fill-opacity:1;stroke:#000000;stroke-width:0.084357;stroke-linecap:butt;stroke-linejoin:miter;stroke-miterlimit:4;stroke-dasharray:none;stroke-opacity:1"
       inkscape:label="golgi1" />
    <path
       style="fill:none;fill-opacity:1;stroke:#00ff00;stroke-width:0.93649;stroke-linecap:butt;stroke-linejoin:miter;stroke-miterlimit:4;stroke-dasharray:none;stroke-opacity:0.989841"
       d="m 40.71141,68.66024 c -0.247262,-0.177319 -0.650557,-0.144446 -1.008997,-0.196024 -0.365569,-0.05261 -0.789982,-0.148742 -0.992175,-0.03937 -0.585711,0.316814 -1.462826,0.719315 -1.548982,1.207056 -0.07908,0.447667 0.466393,0.934359 0.858873,1.469842 0.446992,0.609861 1.4426,1.294473 1.327367,2.008003 -0.108666,0.672861 -0.412285,1.675349 0.161423,2.234946 1.22035,1.190334 3.67627,2.752925 4.35431,0.456538 0.158838,-0.537952 0.406778,-1.139066 0.533537,-1.665734 0.02314,-0.09614 0.111142,-0.974502 -0.07455,-1.382231 -0.152506,-0.334857 -0.879437,-1.57304 -1.786023,-2.578085 -0.728638,-0.807774 -1.660782,-1.436357 -1.840932,-1.541103"
       id="path618-1-5-7-0-1-2-6"
       inkscape:label="junction_area" />
    <path
       style="fill:none;fill-opacity:1;stroke:#00ff00;stroke-width:0.93649;stroke-linecap:butt;stroke-linejoin:miter;stroke-miterlimit:4;stroke-dasharray:none;stroke-opacity:0.310369"
       d="m 40.906011,68.737469 c 0.559268,-0.520965 1.705523,-0.03295 1.991778,-0.425759 0.306631,-0.420769 0.562821,-1.908217 0.89665,-1.916918 0.403803,-0.01057 1.638177,0.516241 2.865109,1.004828 0.790574,0.314821 1.544047,0.708813 2.183667,0.616124 0.55486,-0.08041 1.517455,-0.708532 1.572708,0.0077 0.05275,0.683771 0.315897,1.175457 0.312386,2.447928 -8.2e-4,0.304897 0.03577,2.069371 -0.05597,2.412116 -0.07211,0.26938 -1.385081,0.233352 -1.664172,0.222266 -0.602552,-0.02393 -1.218798,-0.278467 -1.431238,-0.277166 -0.503916,0.0031 -1.332901,0.04694 -2.781568,0.298051"
       id="path1"
       inkscape:label="junction_area2" />
    <path
       style="fill:none;fill-opacity:1;stroke:#ff0000;stroke-width:0.111536;stroke-linecap:butt;stroke-linejoin:miter;stroke-miterlimit:4;stroke-dasharray:none;stroke-opacity:1"
       d="m 40.88788,68.182602 c -0.564852,-0.162304 -2.065773,-0.341173 -2.670841,-0.01731 -0.701418,0.375441 -1.417752,0.648937 -1.562195,1.313839 -0.1262,0.580929 0.355619,1.180263 0.765614,1.610739 0.410124,0.430612 0.768713,0.661008 1.15118,1.277931 0.110616,0.178423 0.238634,0.290318 0.308581,0.621138 0.08394,0.396977 -0.186968,1.053539 -0.187613,1.376829 -0.0013,0.695869 0.122711,0.971404 0.591783,1.380836 0.794008,0.693053 2.12512,1.810343 3.274129,1.733765 0.335431,-0.02236 0.704839,-0.09123 1.038393,-0.347008 0.346741,-0.265895 0.652457,-0.724095 0.718623,-1.022215 0.141594,-0.637963 0.514562,-1.21889 0.598009,-1.867028 0.06605,-0.512939 0.08396,-1.059976 -0.08356,-1.549265 -0.379562,-1.108591 -1.211044,-2.024952 -2.001852,-2.889628 -0.572402,-0.625867 -1.752284,-1.51209 -1.954206,-1.629494"
       id="path618-1-5-7-0-1-2"
       inkscape:label="junction_perimeter"
       sodipodi:nodetypes="csassssssssaaac" />
    <path
       style="opacity:0.3;fill:none;fill-opacity:1;stroke:#ff0000;stroke-width:0.111536;stroke-linecap:butt;stroke-linejoin:miter;stroke-miterlimit:4;stroke-dasharray:none;stroke-opacity:1"
       d="m 40.988229,68.174344 c 1.291694,-0.263286 1.241528,-0.11861 1.46434,-0.230218 0.679149,-0.340193 0.431918,-1.751112 1.11974,-1.972963 0.901896,-0.2909 2.638251,0.717426 3.893975,1.247345 0.318711,0.134498 0.702006,0.526206 1.046849,0.386696 1.070526,-0.433092 1.997731,-0.69558 2.269066,-0.0072 0.144493,0.366572 0.342054,2.215592 0.400241,3.238012 0.04769,0.837997 0.185027,1.692224 -0.115284,2.303348 -0.08321,0.169324 -0.283496,0.271696 -0.465234,0.322343 -0.962921,0.268344 -2.156135,-0.06507 -2.993011,-0.186874 -0.839233,-0.122147 -1.659439,0.252186 -2.525054,0.311732"
       id="path618-1-5-7-0-1-2-1"
       inkscape:label="junction_perimeter2"
       sodipodi:nodetypes="csssssssasc" />
    <path
       inkscape:connector-curvature="0"
       id="path4369-6-6-6-7"
       d="m 370.48681,80.148634 c -0.23423,-0.961566 -1.96273,0.25601 -2.9441,0.384016 -0.62335,0.08131 -1.24473,0.308256 -1.87006,0.243924 -1.91764,-0.19728 -3.64153,-1.266615 -5.4623,-1.899923 -1.78888,-0.622216 -3.57775,-1.244434 -5.36663,-1.86665 -0.86633,-0.301332 -1.73267,-0.602664 -2.599,-0.903997 -0.33819,-0.117631 -0.6839,-0.49024 -1.01457,-0.352894 -0.30616,0.127163 -0.28763,0.597396 -0.43145,0.896093 -0.57694,1.198259 -1.15388,2.396516 -1.73083,3.594772 -0.18626,0.386842 -0.21766,0.899806 -0.55878,1.160525 -0.53352,0.40777 -1.32057,0.244547 -1.98085,0.36682 -1.22353,0.226576 -3.24988,-0.491326 -3.67058,0.679726 -0.95441,2.656672 3.70387,4.264398 5.44211,6.48866 1.75304,2.2432 2.42036,5.754547 5.0235,6.90726 0.56969,0.252269 1.2388,-0.134649 1.8582,-0.201974 0.76814,-0.08349 1.53628,-0.166984 2.30442,-0.250476 1.8219,-0.198029 3.63653,-0.706555 5.46571,-0.594086 0.75496,0.04642 1.47256,0.346477 2.20884,0.519715 0.44982,0.105837 0.88742,0.309727 1.34946,0.317511 1.71594,0.02891 4.99856,0.70574 5.04856,-1.009708 0.17418,-5.976307 0.0812,-9.746433 -1.07165,-14.479314 z"
       style="opacity:0.3;fill:#477f7c;fill-opacity:1;stroke:none;stroke-width:1.0383px;stroke-linecap:butt;stroke-linejoin:miter;stroke-opacity:1"
       sodipodi:nodetypes="saaaaaaaaaaaaaaaaaass"
       inkscape:path-effect="#path-effect2-1-3"
       inkscape:original-d="m 370.48681,80.148634 c -0.23423,-0.961566 -1.96273,0.25601 -2.9441,0.384016 -0.62335,0.08131 -1.24473,0.308256 -1.87006,0.243924 -1.91764,-0.19728 -3.64153,-1.266615 -5.4623,-1.899923 -1.78888,-0.622216 -3.57775,-1.244434 -5.36663,-1.86665 -0.86633,-0.301332 -1.73267,-0.602664 -2.599,-0.903997 -0.33819,-0.117631 -0.6839,-0.49024 -1.01457,-0.352894 -0.30616,0.127163 -0.28763,0.597396 -0.43145,0.896093 -0.57694,1.198259 -1.15388,2.396516 -1.73083,3.594772 -0.18626,0.386842 -0.21766,0.899806 -0.55878,1.160525 -0.53352,0.40777 -1.32057,0.244547 -1.98085,0.36682 -1.22353,0.226576 -3.24988,-0.491326 -3.67058,0.679726 -0.95441,2.656672 3.70387,4.264398 5.44211,6.48866 1.75304,2.2432 2.42036,5.754547 5.0235,6.90726 0.56969,0.252269 1.2388,-0.134649 1.8582,-0.201974 0.76814,-0.08349 1.53628,-0.166984 2.30442,-0.250476 1.8219,-0.198029 3.63653,-0.706555 5.46571,-0.594086 0.75496,0.04642 1.47256,0.346477 2.20884,0.519715 0.44982,0.105837 0.88742,0.309727 1.34946,0.317511 1.71594,0.02891 4.99856,0.70574 5.04856,-1.009708 0.17418,-5.976307 0.0812,-9.746433 -1.07165,-14.479314 z"
       inkscape:label="cell2"
       transform="matrix(0.35081829,0,0,0.34958736,-68.236607,48.483348)" />
    <path
       inkscape:connector-curvature="0"
       id="path4367-3-3-3-0-5"
       d="m 351.17786,104.54778 1.20585,-4.890396 c 0.31319,-1.27014 1.19115,-2.526656 0.93956,-3.810418 -0.54752,-2.793799 -3.27046,-4.66406 -5.0235,-6.90726 -1.73824,-2.224262 -2.9604,-5.143327 -5.44211,-6.48866 -0.907,-0.491684 -2.04841,-0.248286 -3.07261,-0.372429 -1.02219,-0.123899 -2.04439,-0.247798 -3.06658,-0.371698 -0.25603,-0.03103 -0.51944,-0.161551 -0.76809,-0.0931 -0.1937,0.05332 -0.31795,0.245691 -0.47693,0.368536 -0.59834,0.462356 -1.19669,0.924711 -1.79503,1.387067 -0.6156,0.475693 -1.23121,0.951384 -1.84681,1.427078 -0.16203,0.125205 -0.4539,0.173395 -0.48609,0.375617 -0.0429,0.269613 0.30703,0.451512 0.46055,0.677269 0.50328,0.740106 1.00655,1.480216 1.50982,2.220323 0.92911,1.366338 1.85823,2.732672 2.78735,4.099008 0.66887,0.98362 1.33774,1.967238 2.0066,2.950861 0.11743,0.172692 0.28737,0.319589 0.35229,0.518077 0.22295,0.681636 0.0503,1.433462 0.0754,2.150193 0.0479,1.365521 -0.72751,3.044012 0.14374,4.096562 3.71866,4.49246 11.15253,8.11429 12.49659,2.66337 z"
       style="fill:#477f7c;fill-opacity:1;stroke:none;stroke-width:1.0383px;stroke-linecap:butt;stroke-linejoin:miter;stroke-opacity:1"
       sodipodi:nodetypes="saaaaaaaaaaaaaaaaass"
       inkscape:path-effect="#path-effect1-6-6"
       inkscape:original-d="m 351.17786,104.54778 1.20585,-4.890396 c 0.31319,-1.27014 1.19115,-2.526656 0.93956,-3.810418 -0.54752,-2.793799 -3.27046,-4.66406 -5.0235,-6.90726 -1.73824,-2.224262 -2.9604,-5.143327 -5.44211,-6.48866 -0.907,-0.491684 -2.04841,-0.248286 -3.07261,-0.372429 -1.02219,-0.123899 -2.04439,-0.247798 -3.06658,-0.371698 -0.25603,-0.03103 -0.51944,-0.161551 -0.76809,-0.0931 -0.1937,0.05332 -0.31795,0.245691 -0.47693,0.368536 -0.59834,0.462356 -1.19669,0.924711 -1.79503,1.387067 -0.6156,0.475693 -1.23121,0.951384 -1.84681,1.427078 -0.16203,0.125205 -0.4539,0.173395 -0.48609,0.375617 -0.0429,0.269613 0.30703,0.451512 0.46055,0.677269 0.50328,0.740106 1.00655,1.480216 1.50982,2.220323 0.92911,1.366338 1.85823,2.732672 2.78735,4.099008 0.66887,0.98362 1.33774,1.967238 2.0066,2.950861 0.11743,0.172692 0.28737,0.319589 0.35229,0.518077 0.22295,0.681636 0.0503,1.433462 0.0754,2.150193 0.0479,1.365521 -0.72751,3.044012 0.14374,4.096562 3.71866,4.49246 11.15253,8.11429 12.49659,2.66337 z"
       inkscape:label="cell1"
       transform="matrix(0.35081829,0,0,0.34958736,-68.236607,48.483348)" />
    <path
       sodipodi:nodetypes="zzzzzzzzzzzzzz"
       inkscape:connector-curvature="0"
       id="path4373-5-6-7-3"
       d="m 58.799736,80.288979 c 0.216592,-0.02472 0.59794,-0.09868 0.807735,-0.256104 0.209789,-0.157422 0.325752,-0.367027 0.40386,-0.603672 0.07811,-0.236646 0.10058,-0.497353 0.03668,-0.768314 -0.06388,-0.270957 -0.217873,-0.593835 -0.440578,-0.786608 -0.222704,-0.192768 -0.500439,-0.25388 -0.807739,-0.310981 -0.307302,-0.05706 -0.724114,-0.02964 -1.009665,0 -0.285549,0.02961 -0.50996,0.0073 -0.697585,0.146346 -0.187625,0.139052 -0.291176,0.332811 -0.330435,0.603674 -0.03928,0.27086 0.100316,0.685542 0.201934,0.93295 0.101626,0.247409 0.216595,0.399337 0.348793,0.548792 0.132196,0.149455 0.246391,0.266119 0.422221,0.347573 0.175826,0.08146 0.427945,0.08662 0.6058,0.109759 0.17785,0.02317 0.24238,0.06133 0.458972,0.03656 z"
       style="opacity:0.3;fill:#83cfcb;fill-opacity:1;stroke:#000000;stroke-width:0.0860515;stroke-linecap:butt;stroke-linejoin:miter;stroke-dasharray:none;stroke-opacity:1"
       inkscape:label="nuclei2" />
    <path
       sodipodi:nodetypes="zzzzzzzzzzzz"
       inkscape:connector-curvature="0"
       id="path4375-3-2-5-6-5"
       d="m 52.209358,80.746308 c -0.208649,0.12822 -0.562025,0.362572 -0.734305,0.676847 -0.172284,0.314274 -0.187267,0.734043 -0.201931,1.134171 -0.01466,0.400128 -0.0275,0.905639 0.128501,1.243937 0.15604,0.338291 0.393533,0.532263 0.67923,0.713433 0.285698,0.181163 0.644944,0.410758 0.991314,0.329273 0.346367,-0.08148 0.556314,-0.407601 0.771021,-0.768309 0.214704,-0.360711 0.4024,-0.956124 0.403863,-1.371991 0.0017,-0.415865 -0.135968,-0.680672 -0.293724,-1.024414 -0.157755,-0.343745 -0.399907,-0.840688 -0.66087,-1.006123 -0.260968,-0.165425 -0.457012,-0.111584 -0.642514,-0.09145 -0.185502,0.0201 -0.231936,0.03638 -0.440585,0.164638 z"
       style="opacity:0.505817;fill:#83cfcb;fill-opacity:1;stroke:#000000;stroke-width:0.0860515;stroke-linecap:butt;stroke-linejoin:miter;stroke-dasharray:none;stroke-opacity:1"
       inkscape:label="nuclei1" />
    <path
       sodipodi:nodetypes="ssssssssssss"
       inkscape:connector-curvature="0"
       id="path4379-6-1-5-6"
       d="m 55.678944,79.008463 c 0.149494,-0.06104 0.168399,-0.282566 0.293723,-0.384159 0.121025,-0.0981 0.339047,-0.0697 0.422223,-0.201225 0.08808,-0.139289 0.0059,-0.329386 0,-0.493917 -0.0061,-0.171063 0.0068,-0.346593 -0.03668,-0.512206 -0.02908,-0.110844 -0.04517,-0.257516 -0.146861,-0.310982 -0.16994,-0.08935 -0.40392,-0.0063 -0.569085,0.09146 -0.146234,0.08665 -0.218248,0.261025 -0.312076,0.402444 -0.0967,0.145742 -0.221854,0.286164 -0.257009,0.457332 -0.03455,0.168228 0.01148,0.346084 0.05507,0.512207 0.03537,0.134782 0.05422,0.29941 0.165221,0.384158 0.10302,0.07867 0.265394,0.103928 0.385503,0.0549 z"
       style="opacity:0.3;fill:#de5d1c;fill-opacity:1;stroke:#000000;stroke-width:0.0860515;stroke-linecap:butt;stroke-linejoin:miter;stroke-dasharray:none;stroke-opacity:1"
       inkscape:label="golgi2" />
    <path
       sodipodi:nodetypes="zzzzzzzzzzzzz"
       inkscape:connector-curvature="0"
       id="path4377-5-6-3-3-2"
       d="m 52.668298,80.05117 c 0.124499,-0.04638 0.276983,-0.147582 0.293723,-0.310987 0.01674,-0.163407 -0.138054,-0.349162 -0.293723,-0.475621 -0.155672,-0.126462 -0.418003,-0.190105 -0.6058,-0.219518 -0.187792,-0.02944 -0.342009,-0.02382 -0.495654,0.01829 -0.153644,0.04206 -0.271133,0.05316 -0.403869,0.219519 -0.132736,0.166333 -0.17758,0.556399 -0.22029,0.786601 -0.04268,0.230203 -0.132699,0.446063 -0.05509,0.585383 0.07762,0.139312 0.208166,0.175626 0.330436,0.164639 0.122268,-0.01098 0.179646,-0.125803 0.29372,-0.219518 0.114069,-0.09371 0.252767,-0.250196 0.385509,-0.347569 0.132748,-0.09737 0.267464,-0.207845 0.403871,-0.23781 0.1364,-0.02996 0.24265,0.08301 0.367147,0.03662 z"
       style="opacity:0.508378;fill:#de5d1c;fill-opacity:1;stroke:#000000;stroke-width:0.0867451;stroke-linecap:butt;stroke-linejoin:miter;stroke-miterlimit:4;stroke-dasharray:none;stroke-opacity:1"
       inkscape:label="golgi1" />
    <path
       style="fill:none;fill-opacity:1;stroke:#00ff00;stroke-width:0.963002;stroke-linecap:butt;stroke-linejoin:miter;stroke-miterlimit:4;stroke-dasharray:none;stroke-opacity:0.989841"
       d="m 51.820635,77.33075 c -0.254262,-0.182339 -0.668974,-0.148535 -1.037561,-0.201573 -0.375919,-0.0541 -0.812347,-0.152954 -1.020264,-0.04049 -0.602293,0.325783 -1.504239,0.739679 -1.592835,1.241229 -0.08131,0.46034 0.479597,0.96081 0.883188,1.511453 0.459647,0.627126 1.483441,1.33112 1.364946,2.06485 -0.111743,0.69191 -0.423958,1.722778 0.165993,2.298218 1.254898,1.224033 3.780346,2.830861 4.477582,0.469462 0.163334,-0.553181 0.418293,-1.171312 0.548641,-1.712891 0.0238,-0.09886 0.114288,-1.002091 -0.07667,-1.421362 -0.156823,-0.344337 -0.904334,-1.617573 -1.836585,-2.651071 -0.749266,-0.830643 -1.707799,-1.477021 -1.89305,-1.584733"
       id="path618-1-5-7-0-1-2-6-9"
       inkscape:label="junction_area" />
    <path
       style="fill:none;fill-opacity:1;stroke:#00ff00;stroke-width:0.963002;stroke-linecap:butt;stroke-linejoin:miter;stroke-miterlimit:4;stroke-dasharray:none;stroke-opacity:0.310369"
       d="m 52.020746,77.410165 c 0.575101,-0.535713 1.753807,-0.03389 2.048166,-0.437812 0.315311,-0.432681 0.578755,-1.96224 0.922034,-1.971186 0.415234,-0.01087 1.684554,0.530855 2.946221,1.033275 0.812956,0.323733 1.58776,0.728879 2.245487,0.633566 0.570569,-0.08269 1.560415,-0.72859 1.617232,0.0079 0.05424,0.703129 0.32484,1.208735 0.32123,2.517229 -8.43e-4,0.31353 0.03678,2.127957 -0.05756,2.480404 -0.07415,0.277006 -1.424294,0.239959 -1.711285,0.22856 -0.619612,-0.02461 -1.253303,-0.286352 -1.471757,-0.285013 -0.518182,0.0032 -1.370636,0.04827 -2.860315,0.306488"
       id="path1-1"
       inkscape:label="junction_area2" />
    <circle
       style="fill:#ff0000;fill-opacity:1;stroke:#000000;stroke-width:0.0801027;stroke-linecap:round;stroke-miterlimit:4;stroke-dasharray:none;stroke-dashoffset:0;stroke-opacity:1"
       id="path883"
       cx="51.793266"
       cy="77.346268"
       r="0.39142898" />
    <circle
       style="fill:#ff0000;fill-opacity:1;stroke:#000000;stroke-width:0.0801027;stroke-linecap:round;stroke-miterlimit:4;stroke-dasharray:none;stroke-dashoffset:0;stroke-opacity:1"
       id="path883-0"
       cx="50.138103"
       cy="77.105576"
       r="0.39142898" />
    <circle
       style="fill:#ff0000;fill-opacity:1;stroke:#000000;stroke-width:0.0801027;stroke-linecap:round;stroke-miterlimit:4;stroke-dasharray:none;stroke-dashoffset:0;stroke-opacity:1"
       id="path883-0-9"
       cx="48.20797"
       cy="78.349861"
       r="0.39142898" />
    <circle
       style="fill:#ff0000;fill-opacity:1;stroke:#000000;stroke-width:0.0801027;stroke-linecap:round;stroke-miterlimit:4;stroke-dasharray:none;stroke-dashoffset:0;stroke-opacity:1"
       id="path883-0-3"
       cx="50.436008"
       cy="81.556984"
       r="0.39142898" />
    <circle
       style="fill:#ff0000;fill-opacity:1;stroke:#000000;stroke-width:0.0801027;stroke-linecap:round;stroke-miterlimit:4;stroke-dasharray:none;stroke-dashoffset:0;stroke-opacity:1"
       id="path883-0-6"
       cx="50.352459"
       cy="83.770996"
       r="0.39142898" />
    <circle
       style="fill:#ff0000;fill-opacity:1;stroke:#000000;stroke-width:0.0801027;stroke-linecap:round;stroke-miterlimit:4;stroke-dasharray:none;stroke-dashoffset:0;stroke-opacity:1"
       id="path883-0-0"
       cx="53.980854"
       cy="85.863129"
       r="0.39142898" />
    <circle
       style="fill:#ff0000;fill-opacity:1;stroke:#000000;stroke-width:0.0801027;stroke-linecap:round;stroke-miterlimit:4;stroke-dasharray:none;stroke-dashoffset:0;stroke-opacity:1"
       id="path883-0-62"
       cx="55.549709"
       cy="82.021233"
       r="0.39142898" />
    <circle
       style="opacity:0.3;fill:#ff0000;fill-opacity:1;stroke:#000000;stroke-width:0.0801027;stroke-linecap:round;stroke-miterlimit:4;stroke-dasharray:none;stroke-dashoffset:0;stroke-opacity:1"
       id="path883-6"
       cx="54.952763"
       cy="75.013039"
       r="0.39142898" />
    <circle
       style="opacity:0.3;fill:#ff0000;fill-opacity:1;stroke:#000000;stroke-width:0.0801027;stroke-linecap:round;stroke-miterlimit:4;stroke-dasharray:none;stroke-dashoffset:0;stroke-opacity:1"
       id="path883-1"
       cx="54.006802"
       cy="76.990364"
       r="0.39142898" />
    <circle
       style="opacity:0.3;fill:#ff0000;fill-opacity:1;stroke:#000000;stroke-width:0.0801027;stroke-linecap:round;stroke-miterlimit:4;stroke-dasharray:none;stroke-dashoffset:0;stroke-opacity:1"
       id="path883-8"
       cx="61.505733"
       cy="76.394814"
       r="0.39142898" />
    <circle
       style="opacity:0.3;fill:#ff0000;fill-opacity:1;stroke:#000000;stroke-width:0.0801027;stroke-linecap:round;stroke-miterlimit:4;stroke-dasharray:none;stroke-dashoffset:0;stroke-opacity:1"
       id="path883-7"
       cx="59.866405"
       cy="76.691711"
       r="0.39142898" />
    <circle
       style="opacity:0.3;fill:#ff0000;fill-opacity:1;stroke:#000000;stroke-width:0.0801027;stroke-linecap:round;stroke-miterlimit:4;stroke-dasharray:none;stroke-dashoffset:0;stroke-opacity:1"
       id="path883-9"
       cx="61.814606"
       cy="81.661957"
       r="0.39142898" />
    <path
       style="opacity:0.3;fill:none;fill-opacity:1;stroke:#ff0000;stroke-width:0.114693;stroke-linecap:butt;stroke-linejoin:miter;stroke-miterlimit:4;stroke-dasharray:none;stroke-opacity:1"
       d="m 55.616627,82.105895 6.199717,-0.346938 -0.279365,-5.421019 -1.66857,0.378527 -5.026724,-1.712404 -0.845899,1.998418 -2.170005,0.405708"
       id="path2"
       inkscape:label="linearity2" />
    <path
       style="opacity:1;fill:none;fill-opacity:1;stroke:#ff0000;stroke-width:0.114693;stroke-linecap:butt;stroke-linejoin:miter;stroke-miterlimit:4;stroke-dasharray:none;stroke-opacity:1"
       d="m 50.366366,83.860642 0.178811,-2.238285 -2.406274,-3.205215 1.960638,-1.316384 1.704397,0.282853 3.824495,4.714356 -1.59646,3.832684 -3.677569,-2.112856"
       id="path618-1-5-7-0-1-2-0"
       inkscape:label="linearity" />
  </g>
</svg>
