<?xml version="1.0" encoding="UTF-8" standalone="no"?>
<!-- Created with Inkscape (http://www.inkscape.org/) -->

<svg
   width="26.556017mm"
   height="21.00099mm"
   viewBox="0 0 26.556017 21.00099"
   version="1.1"
   id="svg6653"
   inkscape:version="1.3.1 (91b66b0, 2023-11-16)"
   sodipodi:docname="junction_mean_intensity.svg"
   inkscape:export-filename="junction_mean_intensity.pdf"
   inkscape:export-xdpi="96"
   inkscape:export-ydpi="96"
   xmlns:inkscape="http://www.inkscape.org/namespaces/inkscape"
   xmlns:sodipodi="http://sodipodi.sourceforge.net/DTD/sodipodi-0.dtd"
   xmlns="http://www.w3.org/2000/svg"
   xmlns:svg="http://www.w3.org/2000/svg"
   xmlns:rdf="http://www.w3.org/1999/02/22-rdf-syntax-ns#"
   xmlns:cc="http://creativecommons.org/ns#"
   xmlns:dc="http://purl.org/dc/elements/1.1/">
  <defs
     id="defs6647">
    <inkscape:path-effect
       effect="fillet_chamfer"
       id="path-effect2"
       is_visible="true"
       lpeversion="1"
       nodesatellites_param="F,0,0,1,0,0,0,1 @ F,0,0,1,0,0,0,1 @ F,0,0,1,0,0,0,1 @ F,0,0,1,0,0,0,1 @ F,0,0,1,0,0,0,1 @ F,0,0,1,0,0,0,1 @ F,0,0,1,0,0,0,1 @ F,0,0,1,0,0,0,1 @ F,0,0,1,0,0,0,1 @ F,0,0,1,0,0,0,1 @ F,0,0,1,0,0,0,1 @ F,0,0,1,0,0,0,1 @ F,0,0,1,0,0,0,1 @ F,0,0,1,0,0,0,1 @ F,0,0,1,0,0,0,1 @ F,0,0,1,0,0,0,1 @ F,0,0,1,0,0,0,1 @ F,0,0,1,0,0,0,1 @ F,0,0,1,0,0,0,1 @ F,0,0,1,0,0,0,1"
       radius="0"
       unit="px"
       method="auto"
       mode="F"
       chamfer_steps="1"
       flexible="false"
       use_knot_distance="true"
       apply_no_radius="true"
       apply_with_radius="true"
       only_selected="false"
       hide_knots="false" />
    <inkscape:path-effect
       effect="fillet_chamfer"
       id="path-effect1"
       is_visible="true"
       lpeversion="1"
       nodesatellites_param="F,0,0,1,0,0,0,1 @ F,0,0,1,0,0,0,1 @ F,0,0,1,0,0,0,1 @ F,0,0,1,0,0,0,1 @ F,0,0,1,0,0,0,1 @ F,0,0,1,0,0,0,1 @ F,0,0,1,0,0,0,1 @ F,0,0,1,0,0.60914661,0,1 @ F,0,0,1,0,0,0,1 @ F,0,0,1,0,0,0,1 @ F,0,0,1,0,0,0,1 @ F,0,0,1,0,0.73703677,0,1 @ F,0,0,1,0,0,0,1 @ F,0,0,1,0,0,0,1 @ F,0,0,1,0,0,0,1 @ F,0,0,1,0,0,0,1 @ F,0,0,1,0,0,0,1 @ F,0,0,1,0,0,0,1 @ F,0,0,1,0,0,0,1"
       radius="0"
       unit="px"
       method="auto"
       mode="F"
       chamfer_steps="1"
       flexible="false"
       use_knot_distance="true"
       apply_no_radius="true"
       apply_with_radius="true"
       only_selected="false"
       hide_knots="false" />
    <marker
       style="overflow:visible"
       id="Arrow2Mend"
       refX="0"
       refY="0"
       orient="auto"
       inkscape:stockid="Arrow2Mend"
       inkscape:isstock="true">
      <path
         transform="scale(-0.6)"
         d="M 8.7185878,4.0337352 -2.2072895,0.01601326 8.7185884,-4.0017078 c -1.7454984,2.3720609 -1.7354408,5.6174519 -6e-7,8.035443 z"
         style="fill:context-stroke;fill-rule:evenodd;stroke:context-stroke;stroke-width:0.625;stroke-linejoin:round"
         id="path888" />
    </marker>
    <marker
       style="overflow:visible"
       id="Arrow2Mend-3"
       refX="0"
       refY="0"
       orient="auto"
       inkscape:stockid="Arrow2Mend"
       inkscape:isstock="true">
      <path
         transform="scale(-0.6)"
         d="M 8.7185878,4.0337352 -2.2072895,0.01601326 8.7185884,-4.0017078 c -1.7454984,2.3720609 -1.7354408,5.6174519 -6e-7,8.035443 z"
         style="fill:context-stroke;fill-rule:evenodd;stroke:context-stroke;stroke-width:0.625;stroke-linejoin:round"
         id="path888-6" />
    </marker>
    <inkscape:path-effect
       effect="fillet_chamfer"
       id="path-effect2-1"
       is_visible="true"
       lpeversion="1"
       nodesatellites_param="F,0,0,1,0,0,0,1 @ F,0,0,1,0,0,0,1 @ F,0,0,1,0,0,0,1 @ F,0,0,1,0,0,0,1 @ F,0,0,1,0,0,0,1 @ F,0,0,1,0,0,0,1 @ F,0,0,1,0,0,0,1 @ F,0,0,1,0,0,0,1 @ F,0,0,1,0,0,0,1 @ F,0,0,1,0,0,0,1 @ F,0,0,1,0,0,0,1 @ F,0,0,1,0,0,0,1 @ F,0,0,1,0,0,0,1 @ F,0,0,1,0,0,0,1 @ F,0,0,1,0,0,0,1 @ F,0,0,1,0,0,0,1 @ F,0,0,1,0,0,0,1 @ F,0,0,1,0,0,0,1 @ F,0,0,1,0,0,0,1 @ F,0,0,1,0,0,0,1"
       radius="0"
       unit="px"
       method="auto"
       mode="F"
       chamfer_steps="1"
       flexible="false"
       use_knot_distance="true"
       apply_no_radius="true"
       apply_with_radius="true"
       only_selected="false"
       hide_knots="false" />
    <inkscape:path-effect
       effect="fillet_chamfer"
       id="path-effect1-6"
       is_visible="true"
       lpeversion="1"
       nodesatellites_param="F,0,0,1,0,0,0,1 @ F,0,0,1,0,0,0,1 @ F,0,0,1,0,0,0,1 @ F,0,0,1,0,0,0,1 @ F,0,0,1,0,0,0,1 @ F,0,0,1,0,0,0,1 @ F,0,0,1,0,0,0,1 @ F,0,0,1,0,0,0,1 @ F,0,0,1,0,0,0,1 @ F,0,0,1,0,0,0,1 @ F,0,0,1,0,0,0,1 @ F,0,0,1,0,0,0,1 @ F,0,0,1,0,0,0,1 @ F,0,0,1,0,0,0,1 @ F,0,0,1,0,0,0,1 @ F,0,0,1,0,0,0,1 @ F,0,0,1,0,0,0,1 @ F,0,0,1,0,0,0,1 @ F,0,0,1,0,0,0,1"
       radius="0"
       unit="px"
       method="auto"
       mode="F"
       chamfer_steps="1"
       flexible="false"
       use_knot_distance="true"
       apply_no_radius="true"
       apply_with_radius="true"
       only_selected="false"
       hide_knots="false" />
  </defs>
  <sodipodi:namedview
     id="base"
     pagecolor="#ffffff"
     bordercolor="#666666"
     borderopacity="1.0"
     inkscape:pageopacity="0.0"
     inkscape:pageshadow="2"
     inkscape:zoom="5.6568543"
     inkscape:cx="52.237513"
     inkscape:cy="41.365747"
     inkscape:document-units="mm"
     inkscape:current-layer="layer1"
     showgrid="false"
     fit-margin-top="0"
     fit-margin-left="0"
     fit-margin-right="0"
     fit-margin-bottom="0"
     inkscape:window-width="1846"
     inkscape:window-height="1016"
     inkscape:window-x="74"
     inkscape:window-y="27"
     inkscape:window-maximized="1"
     inkscape:showpageshadow="0"
     inkscape:pagecheckerboard="0"
     inkscape:deskcolor="#505050" />
  <metadata
     id="metadata6650">
    <rdf:RDF>
      <cc:Work
         rdf:about="">
        <dc:format>image/svg+xml</dc:format>
        <dc:type
           rdf:resource="http://purl.org/dc/dcmitype/StillImage" />
      </cc:Work>
    </rdf:RDF>
  </metadata>
  <g
     inkscape:label="Layer 1"
     inkscape:groupmode="layer"
     id="layer1"
     transform="translate(-36.283822,-65.636699)">
    <path
       inkscape:connector-curvature="0"
       id="path4369-6-6-6"
       d="m 370.48681,80.148634 c -0.23423,-0.961566 -1.96273,0.25601 -2.9441,0.384016 -0.62335,0.08131 -1.24473,0.308256 -1.87006,0.243924 -1.91764,-0.19728 -3.64153,-1.266615 -5.4623,-1.899923 -1.78888,-0.622216 -3.57775,-1.244434 -5.36663,-1.86665 -0.86633,-0.301332 -1.73267,-0.602664 -2.599,-0.903997 -0.33819,-0.117631 -0.6839,-0.49024 -1.01457,-0.352894 -0.30616,0.127163 -0.28763,0.597396 -0.43145,0.896093 -0.57694,1.198259 -1.15388,2.396516 -1.73083,3.594772 -0.18626,0.386842 -0.21766,0.899806 -0.55878,1.160525 -0.53352,0.40777 -1.32057,0.244547 -1.98085,0.36682 -1.22353,0.226576 -3.24988,-0.491326 -3.67058,0.679726 -0.95441,2.656672 3.70387,4.264398 5.44211,6.48866 1.75304,2.2432 2.42036,5.754547 5.0235,6.90726 0.56969,0.252269 1.2388,-0.134649 1.8582,-0.201974 0.76814,-0.08349 1.53628,-0.166984 2.30442,-0.250476 1.8219,-0.198029 3.63653,-0.706555 5.46571,-0.594086 0.75496,0.04642 1.47256,0.346477 2.20884,0.519715 0.44982,0.105837 0.88742,0.309727 1.34946,0.317511 1.71594,0.02891 4.99856,0.70574 5.04856,-1.009708 0.17418,-5.976307 0.0812,-9.746433 -1.07165,-14.479314 z"
       style="opacity:0.3;fill:#477f7c;fill-opacity:1;stroke:none;stroke-width:1.0383px;stroke-linecap:butt;stroke-linejoin:miter;stroke-opacity:1"
       sodipodi:nodetypes="saaaaaaaaaaaaaaaaaass"
       inkscape:path-effect="#path-effect2-1"
       inkscape:original-d="m 370.48681,80.148634 c -0.23423,-0.961566 -1.96273,0.25601 -2.9441,0.384016 -0.62335,0.08131 -1.24473,0.308256 -1.87006,0.243924 -1.91764,-0.19728 -3.64153,-1.266615 -5.4623,-1.899923 -1.78888,-0.622216 -3.57775,-1.244434 -5.36663,-1.86665 -0.86633,-0.301332 -1.73267,-0.602664 -2.599,-0.903997 -0.33819,-0.117631 -0.6839,-0.49024 -1.01457,-0.352894 -0.30616,0.127163 -0.28763,0.597396 -0.43145,0.896093 -0.57694,1.198259 -1.15388,2.396516 -1.73083,3.594772 -0.18626,0.386842 -0.21766,0.899806 -0.55878,1.160525 -0.53352,0.40777 -1.32057,0.244547 -1.98085,0.36682 -1.22353,0.226576 -3.24988,-0.491326 -3.67058,0.679726 -0.95441,2.656672 3.70387,4.264398 5.44211,6.48866 1.75304,2.2432 2.42036,5.754547 5.0235,6.90726 0.56969,0.252269 1.2388,-0.134649 1.8582,-0.201974 0.76814,-0.08349 1.53628,-0.166984 2.30442,-0.250476 1.8219,-0.198029 3.63653,-0.706555 5.46571,-0.594086 0.75496,0.04642 1.47256,0.346477 2.20884,0.519715 0.44982,0.105837 0.88742,0.309727 1.34946,0.317511 1.71594,0.02891 4.99856,0.70574 5.04856,-1.009708 0.17418,-5.976307 0.0812,-9.746433 -1.07165,-14.479314 z"
       inkscape:label="cell2"
       transform="matrix(0.54118459,0,0,0.53928571,-140.61355,27.364935)" />
    <path
       inkscape:connector-curvature="0"
       id="path4367-3-3-3-0"
       d="m 351.17786,104.54778 1.20585,-4.890396 c 0.31319,-1.27014 1.19115,-2.526656 0.93956,-3.810418 -0.54752,-2.793799 -3.27046,-4.66406 -5.0235,-6.90726 -1.73824,-2.224262 -2.9604,-5.143327 -5.44211,-6.48866 -0.907,-0.491684 -2.04841,-0.248286 -3.07261,-0.372429 -1.02219,-0.123899 -2.04439,-0.247798 -3.06658,-0.371698 -0.25603,-0.03103 -0.51944,-0.161551 -0.76809,-0.0931 -0.1937,0.05332 -0.31795,0.245691 -0.47693,0.368536 -0.59834,0.462356 -1.19669,0.924711 -1.79503,1.387067 -0.6156,0.475693 -1.23121,0.951384 -1.84681,1.427078 -0.16203,0.125205 -0.4539,0.173395 -0.48609,0.375617 -0.0429,0.269613 0.30703,0.451512 0.46055,0.677269 0.50328,0.740106 1.00655,1.480216 1.50982,2.220323 0.92911,1.366338 1.85823,2.732672 2.78735,4.099008 0.66887,0.98362 1.33774,1.967238 2.0066,2.950861 0.11743,0.172692 0.28737,0.319589 0.35229,0.518077 0.22295,0.681636 0.0503,1.433462 0.0754,2.150193 0.0479,1.365521 -0.72751,3.044012 0.14374,4.096562 3.71866,4.49246 11.15253,8.11429 12.49659,2.66337 z"
       style="fill:#477f7c;fill-opacity:1;stroke:none;stroke-width:1.0383px;stroke-linecap:butt;stroke-linejoin:miter;stroke-opacity:1"
       sodipodi:nodetypes="saaaaaaaaaaaaaaaaass"
       inkscape:path-effect="#path-effect1-6"
       inkscape:original-d="m 351.17786,104.54778 1.20585,-4.890396 c 0.31319,-1.27014 1.19115,-2.526656 0.93956,-3.810418 -0.54752,-2.793799 -3.27046,-4.66406 -5.0235,-6.90726 -1.73824,-2.224262 -2.9604,-5.143327 -5.44211,-6.48866 -0.907,-0.491684 -2.04841,-0.248286 -3.07261,-0.372429 -1.02219,-0.123899 -2.04439,-0.247798 -3.06658,-0.371698 -0.25603,-0.03103 -0.51944,-0.161551 -0.76809,-0.0931 -0.1937,0.05332 -0.31795,0.245691 -0.47693,0.368536 -0.59834,0.462356 -1.19669,0.924711 -1.79503,1.387067 -0.6156,0.475693 -1.23121,0.951384 -1.84681,1.427078 -0.16203,0.125205 -0.4539,0.173395 -0.48609,0.375617 -0.0429,0.269613 0.30703,0.451512 0.46055,0.677269 0.50328,0.740106 1.00655,1.480216 1.50982,2.220323 0.92911,1.366338 1.85823,2.732672 2.78735,4.099008 0.66887,0.98362 1.33774,1.967238 2.0066,2.950861 0.11743,0.172692 0.28737,0.319589 0.35229,0.518077 0.22295,0.681636 0.0503,1.433462 0.0754,2.150193 0.0479,1.365521 -0.72751,3.044012 0.14374,4.096562 3.71866,4.49246 11.15253,8.11429 12.49659,2.66337 z"
       inkscape:label="cell1"
       transform="matrix(0.54118459,0,0,0.53928571,-140.61355,27.364935)" />
    <path
       sodipodi:nodetypes="zzzzzzzzzzzzzz"
       inkscape:connector-curvature="0"
       id="path4373-5-6-7"
       d="m 55.357177,76.429416 c 0.334122,-0.03813 0.922405,-0.15223 1.24604,-0.395076 0.323628,-0.242844 0.502516,-0.566189 0.623011,-0.931245 0.1205,-0.365059 0.155147,-0.767234 0.05659,-1.185229 -0.09855,-0.417987 -0.336097,-0.916069 -0.679652,-1.213448 -0.34355,-0.297371 -0.771995,-0.391644 -1.246045,-0.47973 -0.474056,-0.08804 -1.117043,-0.04573 -1.557545,0 -0.440498,0.04568 -0.786682,0.01127 -1.076119,0.225758 -0.289436,0.214507 -0.449178,0.513406 -0.509742,0.931248 -0.0606,0.417838 0.154746,1.057542 0.311511,1.439203 0.156766,0.381661 0.334128,0.61603 0.538062,0.846585 0.203929,0.230554 0.380091,0.410524 0.651332,0.536178 0.271236,0.125653 0.660164,0.133624 0.934529,0.169319 0.274358,0.03575 0.373904,0.0946 0.708026,0.05639 z"
       style="opacity:0.3;fill:#83cfcb;fill-opacity:1;stroke:#000000;stroke-width:0.132746;stroke-linecap:butt;stroke-linejoin:miter;stroke-dasharray:none;stroke-opacity:1"
       inkscape:label="nuclei2" />
    <path
       sodipodi:nodetypes="zzzzzzzzzzzz"
       inkscape:connector-curvature="0"
       id="path4375-3-2-5-6"
       d="m 45.190629,77.134907 c -0.321869,0.197797 -0.866999,0.559318 -1.132764,1.044129 -0.26577,0.484809 -0.288884,1.13236 -0.311506,1.749611 -0.02262,0.617253 -0.04243,1.397072 0.198231,1.918939 0.240713,0.521861 0.607078,0.821089 1.047803,1.100569 0.44073,0.279468 0.994914,0.633649 1.529236,0.507948 0.534318,-0.125693 0.858189,-0.628781 1.189405,-1.185221 0.33121,-0.556446 0.620755,-1.47495 0.623012,-2.116482 0.0027,-0.641527 -0.209747,-1.050028 -0.453107,-1.580297 -0.24336,-0.530273 -0.616913,-1.296875 -1.019483,-1.55208 -0.402577,-0.25519 -0.705002,-0.172134 -0.991164,-0.141093 -0.286162,0.03101 -0.357793,0.05613 -0.679663,0.253977 z"
       style="opacity:0.505817;fill:#83cfcb;fill-opacity:1;stroke:#000000;stroke-width:0.132746;stroke-linecap:butt;stroke-linejoin:miter;stroke-dasharray:none;stroke-opacity:1"
       inkscape:label="nuclei1" />
    <path
       sodipodi:nodetypes="ssssssssssss"
       inkscape:connector-curvature="0"
       id="path4379-6-1-5"
       d="m 50.542934,74.454045 c 0.230615,-0.09416 0.259779,-0.435894 0.453107,-0.592615 0.186697,-0.151338 0.523027,-0.107526 0.651337,-0.310417 0.135892,-0.214873 0.0091,-0.508123 0,-0.761933 -0.0094,-0.263888 0.01033,-0.534667 -0.05659,-0.790148 -0.04486,-0.170992 -0.06967,-0.397252 -0.226551,-0.479731 -0.262155,-0.137841 -0.623103,-0.0098 -0.877893,0.141099 -0.225582,0.133655 -0.336676,0.402667 -0.481416,0.620824 -0.149178,0.224826 -0.34224,0.441446 -0.396472,0.705496 -0.05331,0.259514 0.0177,0.533881 0.08497,0.790149 0.05455,0.207919 0.08364,0.46188 0.254877,0.592614 0.158935,0.121374 0.409406,0.160322 0.594691,0.08468 z"
       style="opacity:0.3;fill:#de5d1c;fill-opacity:1;stroke:#000000;stroke-width:0.132746;stroke-linecap:butt;stroke-linejoin:miter;stroke-dasharray:none;stroke-opacity:1"
       inkscape:label="golgi2" />
    <path
       sodipodi:nodetypes="zzzzzzzzzzzzz"
       inkscape:connector-curvature="0"
       id="path4377-5-6-3-3"
       d="m 45.898607,76.062561 c 0.192055,-0.07155 0.427282,-0.227663 0.453107,-0.479736 0.02582,-0.252078 -0.212968,-0.538631 -0.453107,-0.733712 -0.240145,-0.195082 -0.644827,-0.293264 -0.934529,-0.338634 -0.289695,-0.04541 -0.527595,-0.03673 -0.764612,0.02821 -0.237017,0.0649 -0.41826,0.08202 -0.623023,0.338639 -0.204763,0.256592 -0.273942,0.858319 -0.339826,1.213437 -0.06584,0.35512 -0.204708,0.688115 -0.08498,0.903032 0.119742,0.214909 0.321123,0.270929 0.509742,0.253979 0.188613,-0.01693 0.27713,-0.19407 0.453101,-0.338636 0.175967,-0.144572 0.389929,-0.38596 0.594702,-0.536173 0.20478,-0.150207 0.412599,-0.320627 0.623023,-0.366854 0.210418,-0.04621 0.374321,0.128053 0.566376,0.05649 z"
       style="opacity:0.508378;fill:#de5d1c;fill-opacity:1;stroke:#000000;stroke-width:0.133816;stroke-linecap:butt;stroke-linejoin:miter;stroke-miterlimit:4;stroke-dasharray:none;stroke-opacity:1"
       inkscape:label="golgi1" />
    <path
       style="fill:none;fill-opacity:1;stroke:#ff0006;stroke-width:1.48556;stroke-linecap:butt;stroke-linejoin:miter;stroke-miterlimit:4;stroke-dasharray:none;stroke-opacity:0.98984098"
       d="m 44.590973,71.865948 c -0.392234,-0.281284 -1.031982,-0.229135 -1.600579,-0.310954 -0.579905,-0.08345 -1.253155,-0.23595 -1.573896,-0.06246 -0.929115,0.502564 -2.32049,1.141055 -2.457162,1.914763 -0.125439,0.710138 0.739843,1.482181 1.362436,2.33162 0.709068,0.967427 2.288407,2.053434 2.105613,3.18531 -0.172378,1.067367 -0.65401,2.657619 0.256067,3.545311 1.93585,1.888238 5.831695,4.366986 6.907274,0.724211 0.251966,-0.853357 0.645275,-1.806908 0.846354,-2.642366 0.03671,-0.152507 0.176304,-1.545861 -0.118268,-2.192645 -0.241922,-0.531183 -1.395059,-2.495323 -2.833183,-4.089635 -1.155844,-1.281374 -2.634511,-2.278499 -2.920285,-2.444659"
       id="path618-1-5-7-0-1-2"
       inkscape:label="junction_area" />
    <path
       style="fill:none;fill-opacity:1;stroke:#ff0000;stroke-width:1.48556;stroke-linecap:butt;stroke-linejoin:miter;stroke-miterlimit:4;stroke-dasharray:none;stroke-opacity:0.31036904"
       d="m 44.899669,71.988455 c 0.887173,-0.826408 2.705486,-0.05227 3.159574,-0.675383 0.486409,-0.667469 0.892807,-3.027019 1.422361,-3.040821 0.640557,-0.0167 2.598652,0.818916 4.544944,1.593966 1.254095,0.499402 2.449334,1.124396 3.463969,0.977362 0.880178,-0.127549 2.407149,-1.123949 2.494798,0.01219 0.08368,1.084671 0.501109,1.864637 0.495539,3.883167 -0.0013,0.483662 0.05675,3.282658 -0.08878,3.826358 -0.114385,0.427319 -2.197165,0.370168 -2.639888,0.352582 -0.955834,-0.03797 -1.933389,-0.441736 -2.270384,-0.439669 -0.799365,0.0048 -2.114391,0.07447 -4.412423,0.472799"
       id="path1"
       inkscape:label="junction_area2" />
    <rect
       style="fill:#ff0000;stroke-width:1.03926;stroke-linecap:round"
       id="rect1"
       width="10.69162"
       height="0.9868024"
       x="36.80949"
       y="67.118256" />
  </g>
</svg>
