<?xml version="1.0" encoding="UTF-8" standalone="no"?>
<!-- Created with Inkscape (http://www.inkscape.org/) -->

<svg
   width="26.556017mm"
   height="21.00099mm"
   viewBox="0 0 26.556017 21.00099"
   version="1.1"
   id="svg6653"
   inkscape:version="1.3.1 (91b66b0, 2023-11-16)"
   sodipodi:docname="junction_interface_occupancy.svg"
   inkscape:export-filename="junction_interface_occupancy.pdf"
   inkscape:export-xdpi="96"
   inkscape:export-ydpi="96"
   xmlns:inkscape="http://www.inkscape.org/namespaces/inkscape"
   xmlns:sodipodi="http://sodipodi.sourceforge.net/DTD/sodipodi-0.dtd"
   xmlns="http://www.w3.org/2000/svg"
   xmlns:svg="http://www.w3.org/2000/svg"
   xmlns:rdf="http://www.w3.org/1999/02/22-rdf-syntax-ns#"
   xmlns:cc="http://creativecommons.org/ns#"
   xmlns:dc="http://purl.org/dc/elements/1.1/">
  <defs
     id="defs6647">
    <inkscape:path-effect
       effect="fillet_chamfer"
       id="path-effect2"
       is_visible="true"
       lpeversion="1"
       nodesatellites_param="F,0,0,1,0,0,0,1 @ F,0,0,1,0,0,0,1 @ F,0,0,1,0,0,0,1 @ F,0,0,1,0,0,0,1 @ F,0,0,1,0,0,0,1 @ F,0,0,1,0,0,0,1 @ F,0,0,1,0,0,0,1 @ F,0,0,1,0,0,0,1 @ F,0,0,1,0,0,0,1 @ F,0,0,1,0,0,0,1 @ F,0,0,1,0,0,0,1 @ F,0,0,1,0,0,0,1 @ F,0,0,1,0,0,0,1 @ F,0,0,1,0,0,0,1 @ F,0,0,1,0,0,0,1 @ F,0,0,1,0,0,0,1 @ F,0,0,1,0,0,0,1 @ F,0,0,1,0,0,0,1 @ F,0,0,1,0,0,0,1 @ F,0,0,1,0,0,0,1"
       radius="0"
       unit="px"
       method="auto"
       mode="F"
       chamfer_steps="1"
       flexible="false"
       use_knot_distance="true"
       apply_no_radius="true"
       apply_with_radius="true"
       only_selected="false"
       hide_knots="false" />
    <inkscape:path-effect
       effect="fillet_chamfer"
       id="path-effect1"
       is_visible="true"
       lpeversion="1"
       nodesatellites_param="F,0,0,1,0,0,0,1 @ F,0,0,1,0,0,0,1 @ F,0,0,1,0,0,0,1 @ F,0,0,1,0,0,0,1 @ F,0,0,1,0,0,0,1 @ F,0,0,1,0,0,0,1 @ F,0,0,1,0,0,0,1 @ F,0,0,1,0,0,0,1 @ F,0,0,1,0,0,0,1 @ F,0,0,1,0,0,0,1 @ F,0,0,1,0,0,0,1 @ F,0,0,1,0,0,0,1 @ F,0,0,1,0,0,0,1 @ F,0,0,1,0,0,0,1 @ F,0,0,1,0,0,0,1 @ F,0,0,1,0,0,0,1 @ F,0,0,1,0,0,0,1 @ F,0,0,1,0,0,0,1 @ F,0,0,1,0,0,0,1"
       radius="0"
       unit="px"
       method="auto"
       mode="F"
       chamfer_steps="1"
       flexible="false"
       use_knot_distance="true"
       apply_no_radius="true"
       apply_with_radius="true"
       only_selected="false"
       hide_knots="false" />
    <inkscape:path-effect
       effect="fillet_chamfer"
       id="path-effect2-5"
       is_visible="true"
       lpeversion="1"
       nodesatellites_param="F,0,0,1,0,0,0,1 @ F,0,0,1,0,0,0,1 @ F,0,0,1,0,0,0,1 @ F,0,0,1,0,0,0,1 @ F,0,0,1,0,0,0,1 @ F,0,0,1,0,0,0,1 @ F,0,0,1,0,0,0,1 @ F,0,0,1,0,0,0,1 @ F,0,0,1,0,0,0,1 @ F,0,0,1,0,0,0,1 @ F,0,0,1,0,0,0,1 @ F,0,0,1,0,0,0,1 @ F,0,0,1,0,0,0,1 @ F,0,0,1,0,0,0,1 @ F,0,0,1,0,0,0,1 @ F,0,0,1,0,0,0,1 @ F,0,0,1,0,0,0,1 @ F,0,0,1,0,0,0,1 @ F,0,0,1,0,0,0,1 @ F,0,0,1,0,0,0,1"
       radius="0"
       unit="px"
       method="auto"
       mode="F"
       chamfer_steps="1"
       flexible="false"
       use_knot_distance="true"
       apply_no_radius="true"
       apply_with_radius="true"
       only_selected="false"
       hide_knots="false" />
    <inkscape:path-effect
       effect="fillet_chamfer"
       id="path-effect1-5"
       is_visible="true"
       lpeversion="1"
       nodesatellites_param="F,0,0,1,0,0,0,1 @ F,0,0,1,0,0,0,1 @ F,0,0,1,0,0,0,1 @ F,0,0,1,0,0,0,1 @ F,0,0,1,0,0,0,1 @ F,0,0,1,0,0,0,1 @ F,0,0,1,0,0,0,1 @ F,0,0,1,0,0,0,1 @ F,0,0,1,0,0,0,1 @ F,0,0,1,0,0,0,1 @ F,0,0,1,0,0,0,1 @ F,0,0,1,0,0,0,1 @ F,0,0,1,0,0,0,1 @ F,0,0,1,0,0,0,1 @ F,0,0,1,0,0,0,1 @ F,0,0,1,0,0,0,1 @ F,0,0,1,0,0,0,1 @ F,0,0,1,0,0,0,1 @ F,0,0,1,0,0,0,1"
       radius="0"
       unit="px"
       method="auto"
       mode="F"
       chamfer_steps="1"
       flexible="false"
       use_knot_distance="true"
       apply_no_radius="true"
       apply_with_radius="true"
       only_selected="false"
       hide_knots="false" />
    <inkscape:path-effect
       effect="fillet_chamfer"
       id="path-effect2-2"
       is_visible="true"
       lpeversion="1"
       nodesatellites_param="F,0,0,1,0,0,0,1 @ F,0,0,1,0,0,0,1 @ F,0,0,1,0,0,0,1 @ F,0,0,1,0,0,0,1 @ F,0,0,1,0,0,0,1 @ F,0,0,1,0,0,0,1 @ F,0,0,1,0,0,0,1 @ F,0,0,1,0,0,0,1 @ F,0,0,1,0,0,0,1 @ F,0,0,1,0,0,0,1 @ F,0,0,1,0,0,0,1 @ F,0,0,1,0,0,0,1 @ F,0,0,1,0,0,0,1 @ F,0,0,1,0,0,0,1 @ F,0,0,1,0,0,0,1 @ F,0,0,1,0,0,0,1 @ F,0,0,1,0,0,0,1 @ F,0,0,1,0,0,0,1 @ F,0,0,1,0,0,0,1 @ F,0,0,1,0,0,0,1"
       radius="0"
       unit="px"
       method="auto"
       mode="F"
       chamfer_steps="1"
       flexible="false"
       use_knot_distance="true"
       apply_no_radius="true"
       apply_with_radius="true"
       only_selected="false"
       hide_knots="false" />
    <inkscape:path-effect
       effect="fillet_chamfer"
       id="path-effect1-54"
       is_visible="true"
       lpeversion="1"
       nodesatellites_param="F,0,0,1,0,0,0,1 @ F,0,0,1,0,0,0,1 @ F,0,0,1,0,0,0,1 @ F,0,0,1,0,0,0,1 @ F,0,0,1,0,0,0,1 @ F,0,0,1,0,0,0,1 @ F,0,0,1,0,0,0,1 @ F,0,0,1,0,0,0,1 @ F,0,0,1,0,0,0,1 @ F,0,0,1,0,0,0,1 @ F,0,0,1,0,0,0,1 @ F,0,0,1,0,0,0,1 @ F,0,0,1,0,0,0,1 @ F,0,0,1,0,0,0,1 @ F,0,0,1,0,0,0,1 @ F,0,0,1,0,0,0,1 @ F,0,0,1,0,0,0,1 @ F,0,0,1,0,0,0,1 @ F,0,0,1,0,0,0,1"
       radius="0"
       unit="px"
       method="auto"
       mode="F"
       chamfer_steps="1"
       flexible="false"
       use_knot_distance="true"
       apply_no_radius="true"
       apply_with_radius="true"
       only_selected="false"
       hide_knots="false" />
  </defs>
  <sodipodi:namedview
     id="base"
     pagecolor="#ffffff"
     bordercolor="#666666"
     borderopacity="1.0"
     inkscape:pageopacity="0.0"
     inkscape:pageshadow="2"
     inkscape:zoom="7.1018121"
     inkscape:cx="59.351049"
     inkscape:cy="36.328756"
     inkscape:document-units="mm"
     inkscape:current-layer="layer1"
     showgrid="false"
     fit-margin-top="0"
     fit-margin-left="0"
     fit-margin-right="0"
     fit-margin-bottom="0"
     inkscape:window-width="1846"
     inkscape:window-height="1016"
     inkscape:window-x="74"
     inkscape:window-y="27"
     inkscape:window-maximized="1"
     inkscape:showpageshadow="0"
     inkscape:pagecheckerboard="0"
     inkscape:deskcolor="#505050" />
  <metadata
     id="metadata6650">
    <rdf:RDF>
      <cc:Work
         rdf:about="">
        <dc:format>image/svg+xml</dc:format>
        <dc:type
           rdf:resource="http://purl.org/dc/dcmitype/StillImage" />
      </cc:Work>
    </rdf:RDF>
  </metadata>
  <g
     inkscape:label="Layer 1"
     inkscape:groupmode="layer"
     id="layer1"
     transform="translate(-36.283822,-65.636699)">
    <path
       inkscape:connector-curvature="0"
       id="path4369-6-6-6"
       d="m 370.48681,80.148634 c -0.23423,-0.961566 -1.96273,0.25601 -2.9441,0.384016 -0.62335,0.08131 -1.24473,0.308256 -1.87006,0.243924 -1.91764,-0.19728 -3.64153,-1.266615 -5.4623,-1.899923 -1.78888,-0.622216 -3.57775,-1.244434 -5.36663,-1.86665 -0.86633,-0.301332 -1.73267,-0.602664 -2.599,-0.903997 -0.33819,-0.117631 -0.6839,-0.49024 -1.01457,-0.352894 -0.30616,0.127163 -0.28763,0.597396 -0.43145,0.896093 -0.57694,1.198259 -1.15388,2.396516 -1.73083,3.594772 -0.18626,0.386842 -0.21766,0.899806 -0.55878,1.160525 -0.53352,0.40777 -1.32057,0.244547 -1.98085,0.36682 -1.22353,0.226576 -3.24988,-0.491326 -3.67058,0.679726 -0.95441,2.656672 3.70387,4.264398 5.44211,6.48866 1.75304,2.2432 2.42036,5.754547 5.0235,6.90726 0.56969,0.252269 1.2388,-0.134649 1.8582,-0.201974 0.76814,-0.08349 1.53628,-0.166984 2.30442,-0.250476 1.8219,-0.198029 3.63653,-0.706555 5.46571,-0.594086 0.75496,0.04642 1.47256,0.346477 2.20884,0.519715 0.44982,0.105837 0.88742,0.309727 1.34946,0.317511 1.71594,0.02891 4.99856,0.70574 5.04856,-1.009708 0.17418,-5.976307 0.0812,-9.746433 -1.07165,-14.479314 z"
       style="opacity:0.3;fill:#477f7c;fill-opacity:1;stroke:none;stroke-width:1.0383px;stroke-linecap:butt;stroke-linejoin:miter;stroke-opacity:1"
       sodipodi:nodetypes="saaaaaaaaaaaaaaaaaass"
       inkscape:path-effect="#path-effect2"
       inkscape:original-d="m 370.48681,80.148634 c -0.23423,-0.961566 -1.96273,0.25601 -2.9441,0.384016 -0.62335,0.08131 -1.24473,0.308256 -1.87006,0.243924 -1.91764,-0.19728 -3.64153,-1.266615 -5.4623,-1.899923 -1.78888,-0.622216 -3.57775,-1.244434 -5.36663,-1.86665 -0.86633,-0.301332 -1.73267,-0.602664 -2.599,-0.903997 -0.33819,-0.117631 -0.6839,-0.49024 -1.01457,-0.352894 -0.30616,0.127163 -0.28763,0.597396 -0.43145,0.896093 -0.57694,1.198259 -1.15388,2.396516 -1.73083,3.594772 -0.18626,0.386842 -0.21766,0.899806 -0.55878,1.160525 -0.53352,0.40777 -1.32057,0.244547 -1.98085,0.36682 -1.22353,0.226576 -3.24988,-0.491326 -3.67058,0.679726 -0.95441,2.656672 3.70387,4.264398 5.44211,6.48866 1.75304,2.2432 2.42036,5.754547 5.0235,6.90726 0.56969,0.252269 1.2388,-0.134649 1.8582,-0.201974 0.76814,-0.08349 1.53628,-0.166984 2.30442,-0.250476 1.8219,-0.198029 3.63653,-0.706555 5.46571,-0.594086 0.75496,0.04642 1.47256,0.346477 2.20884,0.519715 0.44982,0.105837 0.88742,0.309727 1.34946,0.317511 1.71594,0.02891 4.99856,0.70574 5.04856,-1.009708 0.17418,-5.976307 0.0812,-9.746433 -1.07165,-14.479314 z"
       inkscape:label="cell2"
       transform="matrix(0.3508502,0,0,0.34961915,-79.540769,39.560233)" />
    <path
       inkscape:connector-curvature="0"
       id="path4367-3-3-3"
       d="m 351.17786,104.54778 1.20585,-4.890396 c 0.31319,-1.27014 1.19115,-2.526656 0.93956,-3.810418 -0.54752,-2.793799 -3.27046,-4.66406 -5.0235,-6.90726 -1.73824,-2.224262 -2.9604,-5.143327 -5.44211,-6.48866 -0.907,-0.491684 -2.04841,-0.248286 -3.07261,-0.372429 -1.02219,-0.123899 -2.04439,-0.247798 -3.06658,-0.371698 -0.25603,-0.03103 -0.51944,-0.161551 -0.76809,-0.0931 -0.1937,0.05332 -0.31795,0.245691 -0.47693,0.368536 -0.59834,0.462356 -1.19669,0.924711 -1.79503,1.387067 -0.6156,0.475693 -1.23121,0.951384 -1.84681,1.427078 -0.16203,0.125205 -0.4539,0.173395 -0.48609,0.375617 -0.0429,0.269613 0.30703,0.451512 0.46055,0.677269 0.50328,0.740106 1.00655,1.480216 1.50982,2.220323 0.92911,1.366338 1.85823,2.732672 2.78735,4.099008 0.66887,0.98362 1.33774,1.967238 2.0066,2.950861 0.11743,0.172692 0.28737,0.319589 0.35229,0.518077 0.22295,0.681636 0.0503,1.433462 0.0754,2.150193 0.0479,1.365521 -0.72751,3.044012 0.14374,4.096562 3.71866,4.49246 11.15253,8.11429 12.49659,2.66337 z"
       style="fill:#477f7c;fill-opacity:1;stroke:none;stroke-width:1.0383px;stroke-linecap:butt;stroke-linejoin:miter;stroke-opacity:1"
       sodipodi:nodetypes="saaaaaaaaaaaaaaaaass"
       inkscape:path-effect="#path-effect1"
       inkscape:original-d="m 351.17786,104.54778 1.20585,-4.890396 c 0.31319,-1.27014 1.19115,-2.526656 0.93956,-3.810418 -0.54752,-2.793799 -3.27046,-4.66406 -5.0235,-6.90726 -1.73824,-2.224262 -2.9604,-5.143327 -5.44211,-6.48866 -0.907,-0.491684 -2.04841,-0.248286 -3.07261,-0.372429 -1.02219,-0.123899 -2.04439,-0.247798 -3.06658,-0.371698 -0.25603,-0.03103 -0.51944,-0.161551 -0.76809,-0.0931 -0.1937,0.05332 -0.31795,0.245691 -0.47693,0.368536 -0.59834,0.462356 -1.19669,0.924711 -1.79503,1.387067 -0.6156,0.475693 -1.23121,0.951384 -1.84681,1.427078 -0.16203,0.125205 -0.4539,0.173395 -0.48609,0.375617 -0.0429,0.269613 0.30703,0.451512 0.46055,0.677269 0.50328,0.740106 1.00655,1.480216 1.50982,2.220323 0.92911,1.366338 1.85823,2.732672 2.78735,4.099008 0.66887,0.98362 1.33774,1.967238 2.0066,2.950861 0.11743,0.172692 0.28737,0.319589 0.35229,0.518077 0.22295,0.681636 0.0503,1.433462 0.0754,2.150193 0.0479,1.365521 -0.72751,3.044012 0.14374,4.096562 3.71866,4.49246 11.15253,8.11429 12.49659,2.66337 z"
       inkscape:label="cell1"
       transform="matrix(0.3508502,0,0,0.34961915,-79.540769,39.560233)" />
    <path
       sodipodi:nodetypes="zzzzzzzzzzzzzz"
       inkscape:connector-curvature="0"
       id="path4373-5-6-7"
       d="m 47.50712,71.368757 c 0.216611,-0.02472 0.597996,-0.09869 0.807807,-0.256128 0.209809,-0.157435 0.325783,-0.36706 0.4039,-0.603727 0.07812,-0.236667 0.100581,-0.497398 0.03669,-0.768384 -0.0639,-0.270982 -0.217892,-0.593888 -0.440619,-0.786679 -0.222723,-0.192785 -0.500484,-0.253902 -0.807811,-0.311009 -0.307331,-0.05708 -0.724179,-0.02965 -1.009757,0 -0.285575,0.02961 -0.510007,0.0073 -0.697649,0.146359 -0.187641,0.139065 -0.291201,0.332841 -0.330465,0.603729 -0.03928,0.270884 0.100322,0.685605 0.201953,0.933035 0.101631,0.247431 0.216614,0.399373 0.348825,0.548842 0.132208,0.149468 0.246413,0.266143 0.422259,0.347604 0.175843,0.08146 0.427985,0.08663 0.605855,0.10977 0.177867,0.02318 0.242403,0.06133 0.459014,0.03656 z"
       style="opacity:0.3;fill:#83cfcb;fill-opacity:1;stroke:#000000;stroke-width:0.086059;stroke-linecap:butt;stroke-linejoin:miter;stroke-dasharray:none;stroke-opacity:1"
       inkscape:label="nuclei2" />
    <path
       sodipodi:nodetypes="zzzzzzzzzzzz"
       inkscape:connector-curvature="0"
       id="path4375-3-2-5"
       d="m 40.916143,71.826128 c -0.208669,0.128231 -0.562076,0.362605 -0.734372,0.676908 -0.172299,0.314303 -0.187284,0.73411 -0.201949,1.134274 -0.01467,0.400166 -0.02751,0.905722 0.128512,1.244048 0.156055,0.338324 0.39357,0.532313 0.679292,0.7135 0.285726,0.181179 0.645003,0.410795 0.991404,0.329303 0.346399,-0.08149 0.556364,-0.407639 0.771092,-0.768379 0.214723,-0.360744 0.402436,-0.95621 0.403899,-1.372117 0.0018,-0.415901 -0.135979,-0.680732 -0.293749,-1.024506 -0.157771,-0.343776 -0.399945,-0.840765 -0.660933,-1.006214 -0.260989,-0.16544 -0.457051,-0.111595 -0.642571,-0.09147 -0.185519,0.0201 -0.231957,0.03639 -0.440625,0.164653 z"
       style="opacity:0.505817;fill:#83cfcb;fill-opacity:1;stroke:#000000;stroke-width:0.086059;stroke-linecap:butt;stroke-linejoin:miter;stroke-dasharray:none;stroke-opacity:1"
       inkscape:label="nuclei1" />
    <path
       sodipodi:nodetypes="ssssssssssss"
       inkscape:connector-curvature="0"
       id="path4379-6-1-5"
       d="m 44.386044,70.088123 c 0.149508,-0.06104 0.168416,-0.28259 0.293749,-0.384193 0.121037,-0.09811 0.33908,-0.06971 0.422262,-0.201243 0.0881,-0.139302 0.0059,-0.329416 0,-0.493961 -0.0061,-0.171079 0.0067,-0.346625 -0.03669,-0.512253 -0.02908,-0.110854 -0.04517,-0.25754 -0.146874,-0.311009 -0.169955,-0.08937 -0.403958,-0.0064 -0.569138,0.09147 -0.146245,0.08665 -0.218267,0.261048 -0.312102,0.402479 -0.09671,0.145756 -0.221875,0.286191 -0.257033,0.457375 -0.03456,0.168242 0.01147,0.346114 0.05509,0.512253 0.03536,0.134794 0.05423,0.299437 0.165236,0.384192 0.103038,0.07869 0.265419,0.103937 0.385539,0.0549 z"
       style="opacity:0.3;fill:#de5d1c;fill-opacity:1;stroke:#000000;stroke-width:0.086059;stroke-linecap:butt;stroke-linejoin:miter;stroke-dasharray:none;stroke-opacity:1"
       inkscape:label="golgi2" />
    <path
       sodipodi:nodetypes="zzzzzzzzzzzzz"
       inkscape:connector-curvature="0"
       id="path4377-5-6-3"
       d="m 41.375125,71.130925 c 0.124509,-0.04639 0.277007,-0.147594 0.293749,-0.311013 0.01673,-0.163422 -0.138066,-0.349194 -0.293749,-0.475666 -0.155687,-0.126472 -0.418042,-0.190122 -0.605856,-0.219537 -0.187809,-0.02944 -0.34204,-0.02381 -0.495697,0.01829 -0.15366,0.04208 -0.271159,0.05317 -0.403907,0.21954 -0.132747,0.166349 -0.177597,0.55645 -0.220309,0.786672 -0.04269,0.230224 -0.132713,0.446106 -0.0551,0.585436 0.07763,0.139325 0.208185,0.175643 0.330467,0.164655 0.122278,-0.01098 0.179663,-0.125816 0.293745,-0.219538 0.114079,-0.09373 0.252791,-0.250218 0.385546,-0.347601 0.132758,-0.09738 0.267488,-0.207862 0.403905,-0.237831 0.136415,-0.02997 0.242673,0.08302 0.367183,0.03661 z"
       style="opacity:0.508378;fill:#de5d1c;fill-opacity:1;stroke:#000000;stroke-width:0.0867531;stroke-linecap:butt;stroke-linejoin:miter;stroke-miterlimit:4;stroke-dasharray:none;stroke-opacity:1"
       inkscape:label="golgi1" />
    <path
       style="fill:none;fill-opacity:1;stroke:#00ff00;stroke-width:0.963087;stroke-linecap:butt;stroke-linejoin:miter;stroke-miterlimit:4;stroke-dasharray:none;stroke-opacity:0.462245"
       d="m 40.527387,68.410259 c -0.254286,-0.182357 -0.669034,-0.148548 -1.037656,-0.201592 -0.375953,-0.0541 -0.812421,-0.152966 -1.020357,-0.04049 -0.602346,0.325812 -1.504376,0.739746 -1.59298,1.241341 -0.08132,0.460383 0.47964,0.960898 0.883268,1.51159 0.459689,0.627183 1.483576,1.331243 1.36507,2.065038 -0.111753,0.691974 -0.423995,1.722936 0.166009,2.298427 1.255012,1.224145 3.78069,2.831119 4.477988,0.469506 0.163349,-0.553231 0.418331,-1.171419 0.548691,-1.713047 0.0238,-0.09887 0.114298,-1.002182 -0.07667,-1.421492 -0.156839,-0.344367 -0.904418,-1.617721 -1.836754,-2.651314 -0.749334,-0.830715 -1.707955,-1.477151 -1.893222,-1.584874"
       id="path618-1-5-7-0-1"
       inkscape:label="junction_area" />
    <path
       style="opacity:0.3;fill:none;fill-opacity:1;stroke:#00ff00;stroke-width:0.963087;stroke-linecap:butt;stroke-linejoin:miter;stroke-miterlimit:4;stroke-dasharray:none;stroke-opacity:0.462245"
       d="m 40.727514,68.48968 c 0.575156,-0.53576 1.753968,-0.03389 2.048354,-0.437851 0.315338,-0.432721 0.578807,-1.962418 0.922117,-1.971366 0.415273,-0.01082 1.684708,0.530904 2.946489,1.033369 0.813031,0.323763 1.587904,0.728946 2.245693,0.633625 0.570619,-0.08269 1.560555,-0.728657 1.617378,0.0079 0.05425,0.703192 0.324869,1.208845 0.321258,2.517459 -8.39e-4,0.313558 0.0368,2.128148 -0.05756,2.480629 -0.07415,0.277031 -1.424423,0.23998 -1.711441,0.228579 -0.619667,-0.02462 -1.253416,-0.286377 -1.471891,-0.285038 -0.518228,0.0031 -1.37076,0.04828 -2.860575,0.306516"
       id="path1"
       inkscape:label="junction_area2" />
    <path
       id="rect2"
       style="opacity:1;fill:#ff0000;stroke-width:0.995468;stroke-linecap:round;stroke-opacity:0.462245"
       d="m 40.580332,68.151545 c 0.173302,-0.105254 0.441263,0.03762 0.57902,0.186399 0.08531,0.09213 0.01622,0.263045 0.08755,0.366382 0.177544,0.257206 0.520861,0.345764 0.775418,0.527088 0.118976,0.08474 0.245454,0.16131 0.351267,0.262014 0.09473,0.09016 0.188897,0.186784 0.249828,0.302496 0.09075,0.17235 0.04385,0.406093 0.160942,0.561754 0.106092,0.141033 0.331929,0.148791 0.448588,0.281217 0.113641,0.128998 0.142405,0.312978 0.216657,0.468031 0.09631,0.201106 0.143539,0.437518 0.296782,0.59949 0.132146,0.139674 0.383181,0.132968 0.502001,0.28414 0.211695,0.269334 0.262194,0.646592 0.280597,0.988669 0.04002,0.743958 -0.191222,1.481494 -0.376054,2.203236 -0.128685,0.502492 -0.157075,1.08873 -0.50772,1.470968 -0.347406,0.378705 -0.895159,0.606464 -1.40868,0.626573 -0.556336,0.02178 -1.089266,-0.284452 -1.574538,-0.55739 -0.38687,-0.217592 -0.720049,-0.525818 -1.031667,-0.841899 -0.291823,-0.296002 -0.640767,-0.583709 -0.7746,-0.97724 -0.186301,-0.547817 0.12741,-1.16614 0.02537,-1.735701 -0.07409,-0.413533 -0.237692,-0.81576 -0.454782,-1.175441 -0.242361,-0.401547 -0.65217,-0.678852 -0.924519,-1.060695 -0.33385,-0.468076 -0.888585,-0.920683 -0.860324,-1.494924 0.0051,-0.102373 0.121894,-0.164914 0.178803,-0.25016 0.109353,-0.163801 0.171761,-0.363553 0.312208,-0.501623 0.306323,-0.301137 0.698774,-0.524068 1.105524,-0.662165 0.2497,-0.08477 0.522181,-0.09225 0.785876,-0.09073 0.404714,0.0023 0.806064,0.08188 1.20447,0.153112 0.14412,0.02577 0.355244,-0.02809 0.427913,0.099 0.07225,0.126377 -0.0063,0.341592 -0.131002,0.416614 -0.37025,0.222654 -0.842419,-0.229728 -1.274411,-0.236258 -0.410523,-0.0062 -0.863692,-0.0208 -1.217308,0.187817 -0.397252,0.234368 -0.836684,0.633795 -0.84602,1.094936 -0.0037,0.181929 0.21137,0.296261 0.316012,0.445129 0.269181,0.382944 0.539108,0.765416 0.802157,1.152596 0.351102,0.516782 0.870468,0.959597 1.035811,1.56209 0.115518,0.420938 -0.118703,0.874662 -0.06525,1.307878 0.04882,0.395673 0.124442,0.81424 0.348164,1.144225 0.227269,0.335216 0.627076,0.512934 0.948859,0.758854 0.291989,0.223151 0.54182,0.533915 0.890504,0.64999 0.436489,0.145305 0.945037,0.166589 1.380015,0.01682 0.265143,-0.09128 0.512857,-0.285156 0.656577,-0.525946 0.539688,-0.904195 0.709353,-2.064044 0.568082,-3.107536 -0.04319,-0.319058 -0.277507,-0.581094 -0.420084,-0.869774 -0.09043,-0.183082 -0.172725,-0.37074 -0.2761,-0.546832 -0.09065,-0.15442 -0.189635,-0.304686 -0.300707,-0.445137 -0.140141,-0.177208 -0.354056,-0.298592 -0.459077,-0.498623 -0.08119,-0.154641 0.01148,-0.391399 -0.115784,-0.511026 -0.102096,-0.09597 -0.308005,0.02318 -0.414926,-0.06737 -0.07894,-0.06687 -0.02625,-0.220903 -0.09947,-0.293993 -0.07906,-0.07892 -0.230084,-0.03748 -0.317642,-0.106859 -0.115602,-0.0916 -0.12083,-0.280522 -0.233235,-0.37602 -0.1529,-0.129904 -0.415891,-0.08688 -0.556034,-0.23046 -0.06543,-0.06703 -0.05221,-0.182336 -0.101278,-0.262116 -0.06824,-0.110926 -0.225383,-0.164986 -0.261779,-0.290029 -0.03794,-0.130349 -0.04804,-0.331089 0.068,-0.401562 z"
       sodipodi:nodetypes="aaaaaaaaaaaaaaaaaaaaaaaaaaaaaaaaaaaaaaaaaaaaaaaaaaaaaaa"
       inkscape:label="protein_area" />
    <path
       style="opacity:0.3;fill:#ff0000;fill-opacity:0.526004;stroke-width:0.995468;stroke-linecap:round;stroke-opacity:0.462245"
       d="m 42.538604,68.133367 c -0.07026,0.445014 -1.297154,0.45883 -1.351529,0.0116 -0.05108,-0.420184 0.886374,-0.05423 1.235404,-0.293685 0.618322,-0.424215 0.585495,-1.555476 1.273072,-1.85467 0.141908,-0.06175 0.308554,0.03311 0.45918,0.06864 0.55913,0.131902 1.09322,0.353535 1.63866,0.53387 0.709301,0.234512 1.397513,0.542123 2.124819,0.712799 0.294322,0.06907 0.719646,0.450448 1.029553,0.415481 0.502204,-0.05666 0.891697,-0.555035 1.350502,-0.383615 0.118569,0.0443 0.211611,0.148328 0.283767,0.252322 0.25218,0.36346 0.404627,0.80162 0.47888,1.237722 0.141209,0.829336 -0.05,1.681813 -0.08042,2.522536 -0.01882,0.520475 0.261232,1.153728 -0.06318,1.561171 -0.177177,0.222527 -0.540604,0.19258 -0.823236,0.224649 -0.603643,0.06849 -1.21362,-0.06387 -1.821056,-0.07367 -0.699517,-0.0113 -1.400169,-0.02069 -2.098754,0.01711 -0.523469,0.02833 -1.12327,0.439493 -1.564847,0.156953 -0.08964,-0.05735 -0.160621,-0.21156 -0.104188,-0.301785 0.223616,-0.357515 0.836315,-0.109924 1.255891,-0.152066 0.783393,-0.07868 1.573873,-0.290624 2.354501,-0.188082 0.390574,0.0513 0.720297,0.376153 1.113768,0.395148 0.391432,0.01889 0.814944,-0.06671 1.140711,-0.284543 0.164966,-0.110309 0.295453,-0.289116 0.353847,-0.478778 0.226182,-0.734651 -0.02958,-1.537991 -0.0902,-2.304278 -0.04369,-0.552236 0.02213,-1.141367 -0.196928,-1.650176 -0.103709,-0.240885 -0.257095,-0.514642 -0.503432,-0.604637 -0.310435,-0.113413 -0.623375,0.15902 -0.976205,0.173549 -0.216963,0.0089 -0.77832,-0.03247 -0.985949,-0.09634 -0.412242,-0.126818 -0.464607,-0.12026 -0.871301,-0.263367 -0.829236,-0.291789 -1.616616,-0.702196 -2.459611,-0.951463 -0.226986,-0.06712 -0.463172,-0.19244 -0.695107,-0.145177 -0.156483,0.03189 -0.293634,0.148833 -0.393253,0.273651 -0.109888,0.137686 -0.156226,0.318834 -0.198147,0.489937 -0.05956,0.243074 0.08568,0.553079 -0.07212,0.74732 -0.163615,0.20139 -0.740593,-0.02758 -0.743093,0.231879 l 10e-7,1e-6 z"
       id="rect2-2"
       inkscape:label="protein_area2"
       sodipodi:nodetypes="aaaaaasssaaaaaaaaaaaaaaaaasssaaaaaaaa" />
    <rect
       style="fill:#ff0000;stroke-width:1.16042;stroke-linecap:round"
       id="rect1"
       width="21.283276"
       height="0.61804074"
       x="8.6506805"
       y="-88.611946"
       transform="rotate(135)" />
    <path
       inkscape:connector-curvature="0"
       id="path4369-6-6-6-7"
       d="m 370.48681,80.148634 c -0.23423,-0.961566 -1.96273,0.25601 -2.9441,0.384016 -0.62335,0.08131 -1.24473,0.308256 -1.87006,0.243924 -1.91764,-0.19728 -3.64153,-1.266615 -5.4623,-1.899923 -1.78888,-0.622216 -3.57775,-1.244434 -5.36663,-1.86665 -0.86633,-0.301332 -1.73267,-0.602664 -2.599,-0.903997 -0.33819,-0.117631 -0.6839,-0.49024 -1.01457,-0.352894 -0.30616,0.127163 -0.28763,0.597396 -0.43145,0.896093 -0.57694,1.198259 -1.15388,2.396516 -1.73083,3.594772 -0.18626,0.386842 -0.21766,0.899806 -0.55878,1.160525 -0.53352,0.40777 -1.32057,0.244547 -1.98085,0.36682 -1.22353,0.226576 -3.24988,-0.491326 -3.67058,0.679726 -0.95441,2.656672 3.70387,4.264398 5.44211,6.48866 1.75304,2.2432 2.42036,5.754547 5.0235,6.90726 0.56969,0.252269 1.2388,-0.134649 1.8582,-0.201974 0.76814,-0.08349 1.53628,-0.166984 2.30442,-0.250476 1.8219,-0.198029 3.63653,-0.706555 5.46571,-0.594086 0.75496,0.04642 1.47256,0.346477 2.20884,0.519715 0.44982,0.105837 0.88742,0.309727 1.34946,0.317511 1.71594,0.02891 4.99856,0.70574 5.04856,-1.009708 0.17418,-5.976307 0.0812,-9.746433 -1.07165,-14.479314 z"
       style="opacity:0.3;fill:#477f7c;fill-opacity:1;stroke:none;stroke-width:1.0383px;stroke-linecap:butt;stroke-linejoin:miter;stroke-opacity:1"
       sodipodi:nodetypes="saaaaaaaaaaaaaaaaaass"
       inkscape:path-effect="#path-effect2-2"
       inkscape:original-d="m 370.48681,80.148634 c -0.23423,-0.961566 -1.96273,0.25601 -2.9441,0.384016 -0.62335,0.08131 -1.24473,0.308256 -1.87006,0.243924 -1.91764,-0.19728 -3.64153,-1.266615 -5.4623,-1.899923 -1.78888,-0.622216 -3.57775,-1.244434 -5.36663,-1.86665 -0.86633,-0.301332 -1.73267,-0.602664 -2.599,-0.903997 -0.33819,-0.117631 -0.6839,-0.49024 -1.01457,-0.352894 -0.30616,0.127163 -0.28763,0.597396 -0.43145,0.896093 -0.57694,1.198259 -1.15388,2.396516 -1.73083,3.594772 -0.18626,0.386842 -0.21766,0.899806 -0.55878,1.160525 -0.53352,0.40777 -1.32057,0.244547 -1.98085,0.36682 -1.22353,0.226576 -3.24988,-0.491326 -3.67058,0.679726 -0.95441,2.656672 3.70387,4.264398 5.44211,6.48866 1.75304,2.2432 2.42036,5.754547 5.0235,6.90726 0.56969,0.252269 1.2388,-0.134649 1.8582,-0.201974 0.76814,-0.08349 1.53628,-0.166984 2.30442,-0.250476 1.8219,-0.198029 3.63653,-0.706555 5.46571,-0.594086 0.75496,0.04642 1.47256,0.346477 2.20884,0.519715 0.44982,0.105837 0.88742,0.309727 1.34946,0.317511 1.71594,0.02891 4.99856,0.70574 5.04856,-1.009708 0.17418,-5.976307 0.0812,-9.746433 -1.07165,-14.479314 z"
       inkscape:label="cell2"
       transform="matrix(0.3508502,0,0,0.34961915,-67.956143,48.747157)" />
    <path
       inkscape:connector-curvature="0"
       id="path4367-3-3-3-4"
       d="m 351.17786,104.54778 1.20585,-4.890396 c 0.31319,-1.27014 1.19115,-2.526656 0.93956,-3.810418 -0.54752,-2.793799 -3.27046,-4.66406 -5.0235,-6.90726 -1.73824,-2.224262 -2.9604,-5.143327 -5.44211,-6.48866 -0.907,-0.491684 -2.04841,-0.248286 -3.07261,-0.372429 -1.02219,-0.123899 -2.04439,-0.247798 -3.06658,-0.371698 -0.25603,-0.03103 -0.51944,-0.161551 -0.76809,-0.0931 -0.1937,0.05332 -0.31795,0.245691 -0.47693,0.368536 -0.59834,0.462356 -1.19669,0.924711 -1.79503,1.387067 -0.6156,0.475693 -1.23121,0.951384 -1.84681,1.427078 -0.16203,0.125205 -0.4539,0.173395 -0.48609,0.375617 -0.0429,0.269613 0.30703,0.451512 0.46055,0.677269 0.50328,0.740106 1.00655,1.480216 1.50982,2.220323 0.92911,1.366338 1.85823,2.732672 2.78735,4.099008 0.66887,0.98362 1.33774,1.967238 2.0066,2.950861 0.11743,0.172692 0.28737,0.319589 0.35229,0.518077 0.22295,0.681636 0.0503,1.433462 0.0754,2.150193 0.0479,1.365521 -0.72751,3.044012 0.14374,4.096562 3.71866,4.49246 11.15253,8.11429 12.49659,2.66337 z"
       style="fill:#477f7c;fill-opacity:1;stroke:none;stroke-width:1.0383px;stroke-linecap:butt;stroke-linejoin:miter;stroke-opacity:1"
       sodipodi:nodetypes="saaaaaaaaaaaaaaaaass"
       inkscape:path-effect="#path-effect1-54"
       inkscape:original-d="m 351.17786,104.54778 1.20585,-4.890396 c 0.31319,-1.27014 1.19115,-2.526656 0.93956,-3.810418 -0.54752,-2.793799 -3.27046,-4.66406 -5.0235,-6.90726 -1.73824,-2.224262 -2.9604,-5.143327 -5.44211,-6.48866 -0.907,-0.491684 -2.04841,-0.248286 -3.07261,-0.372429 -1.02219,-0.123899 -2.04439,-0.247798 -3.06658,-0.371698 -0.25603,-0.03103 -0.51944,-0.161551 -0.76809,-0.0931 -0.1937,0.05332 -0.31795,0.245691 -0.47693,0.368536 -0.59834,0.462356 -1.19669,0.924711 -1.79503,1.387067 -0.6156,0.475693 -1.23121,0.951384 -1.84681,1.427078 -0.16203,0.125205 -0.4539,0.173395 -0.48609,0.375617 -0.0429,0.269613 0.30703,0.451512 0.46055,0.677269 0.50328,0.740106 1.00655,1.480216 1.50982,2.220323 0.92911,1.366338 1.85823,2.732672 2.78735,4.099008 0.66887,0.98362 1.33774,1.967238 2.0066,2.950861 0.11743,0.172692 0.28737,0.319589 0.35229,0.518077 0.22295,0.681636 0.0503,1.433462 0.0754,2.150193 0.0479,1.365521 -0.72751,3.044012 0.14374,4.096562 3.71866,4.49246 11.15253,8.11429 12.49659,2.66337 z"
       inkscape:label="cell1"
       transform="matrix(0.3508502,0,0,0.34961915,-67.956143,48.747157)" />
    <path
       sodipodi:nodetypes="zzzzzzzzzzzzzz"
       inkscape:connector-curvature="0"
       id="path4373-5-6-7-4"
       d="m 59.091746,80.555681 c 0.216611,-0.02472 0.597996,-0.09869 0.807807,-0.256128 0.209809,-0.157435 0.325783,-0.36706 0.4039,-0.603727 0.07812,-0.236667 0.100581,-0.497398 0.03669,-0.768384 -0.0639,-0.270982 -0.217892,-0.593888 -0.440619,-0.786679 -0.222723,-0.192785 -0.500484,-0.253902 -0.807811,-0.311009 -0.307331,-0.05708 -0.724179,-0.02965 -1.009757,0 -0.285575,0.02961 -0.510007,0.0073 -0.697649,0.146359 -0.187641,0.139065 -0.291201,0.332841 -0.330465,0.603729 -0.03928,0.270884 0.100322,0.685605 0.201953,0.933035 0.101631,0.247431 0.216614,0.399373 0.348825,0.548842 0.132208,0.149468 0.246413,0.266143 0.422259,0.347604 0.175843,0.08146 0.427985,0.08663 0.605855,0.10977 0.177867,0.02318 0.242403,0.06133 0.459014,0.03656 z"
       style="opacity:0.3;fill:#83cfcb;fill-opacity:1;stroke:#000000;stroke-width:0.086059;stroke-linecap:butt;stroke-linejoin:miter;stroke-dasharray:none;stroke-opacity:1"
       inkscape:label="nuclei2" />
    <path
       sodipodi:nodetypes="zzzzzzzzzzzz"
       inkscape:connector-curvature="0"
       id="path4375-3-2-5-3"
       d="m 52.500769,81.013052 c -0.208669,0.128231 -0.562076,0.362605 -0.734372,0.676908 -0.172299,0.314303 -0.187284,0.73411 -0.201949,1.134274 -0.01467,0.400166 -0.02751,0.905722 0.128512,1.244048 0.156055,0.338324 0.39357,0.532313 0.679292,0.7135 0.285726,0.181179 0.645003,0.410795 0.991404,0.329303 0.346399,-0.08149 0.556364,-0.407639 0.771092,-0.768379 0.214723,-0.360744 0.402436,-0.95621 0.403899,-1.372117 0.0018,-0.415901 -0.135979,-0.680732 -0.293749,-1.024506 -0.157771,-0.343776 -0.399945,-0.840765 -0.660933,-1.006214 -0.260989,-0.16544 -0.457051,-0.111595 -0.642571,-0.09147 -0.185519,0.0201 -0.231957,0.03639 -0.440625,0.164653 z"
       style="opacity:0.505817;fill:#83cfcb;fill-opacity:1;stroke:#000000;stroke-width:0.086059;stroke-linecap:butt;stroke-linejoin:miter;stroke-dasharray:none;stroke-opacity:1"
       inkscape:label="nuclei1" />
    <path
       sodipodi:nodetypes="ssssssssssss"
       inkscape:connector-curvature="0"
       id="path4379-6-1-5-0"
       d="m 55.97067,79.275047 c 0.149508,-0.06104 0.168416,-0.28259 0.293749,-0.384193 0.121037,-0.09811 0.33908,-0.06971 0.422262,-0.201243 0.0881,-0.139302 0.0059,-0.329416 0,-0.493961 -0.0061,-0.171079 0.0067,-0.346625 -0.03669,-0.512253 -0.02908,-0.110854 -0.04517,-0.25754 -0.146874,-0.311009 -0.169955,-0.08937 -0.403958,-0.0064 -0.569138,0.09147 -0.146245,0.08665 -0.218267,0.261048 -0.312102,0.402479 -0.09671,0.145756 -0.221875,0.286191 -0.257033,0.457375 -0.03456,0.168242 0.01147,0.346114 0.05509,0.512253 0.03536,0.134794 0.05423,0.299437 0.165236,0.384192 0.103038,0.07869 0.265419,0.103937 0.385539,0.0549 z"
       style="opacity:0.3;fill:#de5d1c;fill-opacity:1;stroke:#000000;stroke-width:0.086059;stroke-linecap:butt;stroke-linejoin:miter;stroke-dasharray:none;stroke-opacity:1"
       inkscape:label="golgi2" />
    <path
       sodipodi:nodetypes="zzzzzzzzzzzzz"
       inkscape:connector-curvature="0"
       id="path4377-5-6-3-7"
       d="m 52.959751,80.317849 c 0.124509,-0.04639 0.277007,-0.147594 0.293749,-0.311013 0.01673,-0.163422 -0.138066,-0.349194 -0.293749,-0.475666 -0.155687,-0.126472 -0.418042,-0.190122 -0.605856,-0.219537 -0.187809,-0.02944 -0.34204,-0.02381 -0.495697,0.01829 -0.15366,0.04208 -0.271159,0.05317 -0.403907,0.21954 -0.132747,0.166349 -0.177597,0.55645 -0.220309,0.786672 -0.04269,0.230224 -0.132713,0.446106 -0.0551,0.585436 0.07763,0.139325 0.208185,0.175643 0.330467,0.164655 0.122278,-0.01098 0.179663,-0.125816 0.293745,-0.219538 0.114079,-0.09373 0.252791,-0.250218 0.385546,-0.347601 0.132758,-0.09738 0.267488,-0.207862 0.403905,-0.237831 0.136415,-0.02997 0.242673,0.08302 0.367183,0.03661 z"
       style="opacity:0.508378;fill:#de5d1c;fill-opacity:1;stroke:#000000;stroke-width:0.0867531;stroke-linecap:butt;stroke-linejoin:miter;stroke-miterlimit:4;stroke-dasharray:none;stroke-opacity:1"
       inkscape:label="golgi1" />
    <path
       style="fill:none;fill-opacity:1;stroke:#00ff00;stroke-width:0.963087;stroke-linecap:butt;stroke-linejoin:miter;stroke-miterlimit:4;stroke-dasharray:none;stroke-opacity:1"
       d="m 52.112013,77.597183 c -0.254286,-0.182357 -0.669034,-0.148548 -1.037656,-0.201592 -0.375953,-0.0541 -0.812421,-0.152966 -1.020357,-0.04049 -0.602346,0.325812 -1.504376,0.739746 -1.59298,1.241341 -0.08132,0.460383 0.47964,0.960898 0.883268,1.51159 0.459689,0.627183 1.483576,1.331243 1.36507,2.065038 -0.111753,0.691974 -0.423995,1.722936 0.166009,2.298427 1.255012,1.224145 3.78069,2.831119 4.477988,0.469506 0.163349,-0.553231 0.418331,-1.171419 0.548691,-1.713047 0.0238,-0.09887 0.114298,-1.002182 -0.07667,-1.421492 C 55.668537,81.462097 54.920958,80.188743 53.988622,79.15515 53.239288,78.324435 52.280667,77.677999 52.0954,77.570276"
       id="path618-1-5-7-0-1-8"
       inkscape:label="junction_area" />
    <path
       style="opacity:0.3;fill:none;fill-opacity:1;stroke:#00ff00;stroke-width:0.963087;stroke-linecap:butt;stroke-linejoin:miter;stroke-miterlimit:4;stroke-dasharray:none;stroke-opacity:1"
       d="m 52.31214,77.676604 c 0.575156,-0.53576 1.753968,-0.03389 2.048354,-0.437851 0.315338,-0.432721 0.578807,-1.962418 0.922117,-1.971366 0.415273,-0.01082 1.684708,0.530904 2.946489,1.033369 0.813031,0.323763 1.587904,0.728946 2.245693,0.633625 0.570619,-0.08269 1.560555,-0.728657 1.617378,0.0079 0.05425,0.703192 0.324869,1.208845 0.321258,2.517459 -8.39e-4,0.313558 0.0368,2.128148 -0.05756,2.480629 -0.07415,0.277031 -1.424423,0.23998 -1.711441,0.228579 -0.619667,-0.02462 -1.253416,-0.286377 -1.471891,-0.285038 -0.518228,0.0031 -1.37076,0.04828 -2.860575,0.306516"
       id="path1-6"
       inkscape:label="junction_area2" />
    <text
       xml:space="preserve"
       style="font-style:italic;font-variant:normal;font-weight:normal;font-stretch:normal;font-size:2.68892px;line-height:1;font-family:Sans;-inkscape-font-specification:'Sans Italic';text-align:center;text-anchor:middle;fill:#ff0000;stroke-width:0.142152;stroke-linecap:round;stroke-miterlimit:8"
       x="39.453781"
       y="67.698204"
       id="text1-4"><tspan
         sodipodi:role="line"
         id="tspan1-3"
         style="font-style:italic;font-variant:normal;font-weight:normal;font-stretch:normal;font-family:Sans;-inkscape-font-specification:'Sans Italic';fill:#ff0000;fill-opacity:1;stroke-width:0.142152"
         x="39.453781"
         y="67.698204">A</tspan></text>
    <text
       xml:space="preserve"
       style="font-style:italic;font-variant:normal;font-weight:normal;font-stretch:normal;font-size:2.68892px;line-height:1;font-family:Sans;-inkscape-font-specification:'Sans Italic';text-align:center;text-anchor:middle;fill:#ff0000;stroke-width:0.142152;stroke-linecap:round;stroke-miterlimit:8"
       x="51.095165"
       y="76.720863"
       id="text1-4-1"><tspan
         sodipodi:role="line"
         id="tspan1-3-4"
         style="font-style:italic;font-variant:normal;font-weight:normal;font-stretch:normal;font-family:Sans;-inkscape-font-specification:'Sans Italic';fill:#ff0000;fill-opacity:1;stroke-width:0.142152"
         x="51.095165"
         y="76.720863">A</tspan></text>
  </g>
</svg>
