<?xml version="1.0" encoding="UTF-8" standalone="no"?>
<!-- Created with Inkscape (http://www.inkscape.org/) -->

<svg
   width="31.567299mm"
   height="12.165771mm"
   viewBox="0 0 31.5673 12.165771"
   version="1.1"
   id="svg2262"
   inkscape:version="1.3.1 (91b66b0, 2023-11-16)"
   sodipodi:docname="marker_sum_expression.svg"
   xml:space="preserve"
   inkscape:export-filename="marker_mean_expression.pdf"
   inkscape:export-xdpi="96"
   inkscape:export-ydpi="96"
   xmlns:inkscape="http://www.inkscape.org/namespaces/inkscape"
   xmlns:sodipodi="http://sodipodi.sourceforge.net/DTD/sodipodi-0.dtd"
   xmlns="http://www.w3.org/2000/svg"
   xmlns:svg="http://www.w3.org/2000/svg"
   xmlns:rdf="http://www.w3.org/1999/02/22-rdf-syntax-ns#"
   xmlns:cc="http://creativecommons.org/ns#"
   xmlns:dc="http://purl.org/dc/elements/1.1/"><defs
     id="defs2256"><marker
       inkscape:isstock="true"
       style="overflow:visible"
       id="marker1413"
       refX="0"
       refY="0"
       orient="auto"
       inkscape:stockid="TriangleOutL"><path
         transform="scale(0.8)"
         style="fill:#ffffff;fill-opacity:1;fill-rule:evenodd;stroke:#ffffff;stroke-width:1.00000003pt;stroke-opacity:1"
         d="M 5.77,0 -2.88,5 V -5 Z"
         id="path1411"
         inkscape:connector-curvature="0" /></marker><marker
       inkscape:stockid="TriangleOutM"
       orient="auto"
       refY="0"
       refX="0"
       id="TriangleOutM-1"
       style="overflow:visible"
       inkscape:isstock="true"><path
         inkscape:connector-curvature="0"
         id="path1819-8"
         d="M 5.77,0 -2.88,5 V -5 Z"
         style="fill:#ffffff;fill-opacity:1;fill-rule:evenodd;stroke:#ffffff;stroke-width:1.00000003pt;stroke-opacity:1"
         transform="scale(0.4)" /></marker><marker
       inkscape:stockid="TriangleOutM"
       orient="auto"
       refY="0"
       refX="0"
       id="TriangleOutM"
       style="overflow:visible"
       inkscape:isstock="true"><path
         id="path1819"
         d="M 5.77,0 -2.88,5 V -5 Z"
         style="fill:#ffffff;fill-opacity:1;fill-rule:evenodd;stroke:#ffffff;stroke-width:1.00000003pt;stroke-opacity:1"
         transform="scale(0.4)"
         inkscape:connector-curvature="0" /></marker><style
       type="text/css"
       id="style1">
   <![CDATA[
    .fil0 {fill:none}
    .fil2 {fill:black;fill-rule:nonzero}
    .fil1 {fill:#CCCCCC;fill-rule:nonzero}
   ]]>
  </style></defs><sodipodi:namedview
     id="base"
     pagecolor="#ffffff"
     bordercolor="#666666"
     borderopacity="1.0"
     inkscape:pageopacity="0.0"
     inkscape:pageshadow="2"
     inkscape:zoom="5.4920505"
     inkscape:cx="57.992912"
     inkscape:cy="-0.91040678"
     inkscape:document-units="mm"
     inkscape:current-layer="layer1"
     showgrid="false"
     fit-margin-top="0"
     fit-margin-left="0"
     fit-margin-right="0"
     fit-margin-bottom="0"
     inkscape:window-width="1846"
     inkscape:window-height="1016"
     inkscape:window-x="74"
     inkscape:window-y="27"
     inkscape:window-maximized="1"
     inkscape:showpageshadow="0"
     inkscape:pagecheckerboard="0"
     inkscape:deskcolor="#505050" /><metadata
     id="metadata2259"><rdf:RDF><cc:Work
         rdf:about=""><dc:format>image/svg+xml</dc:format><dc:type
           rdf:resource="http://purl.org/dc/dcmitype/StillImage" /></cc:Work></rdf:RDF></metadata><g
     inkscape:label="Layer 1"
     inkscape:groupmode="layer"
     id="layer1"
     transform="translate(-38.262486,-57.520648)"><g
       transform="matrix(-0.26090298,0,0,0.26090298,190.65936,51.695703)"
       id="g476"
       style="display:none;opacity:0.5;stroke:none"><path
         d="m 504.55046,53.037043 c -1.01377,-1.711426 -0.40776,-4.832112 0.42145,-6.364063 0.82922,-1.531951 1.84586,-1.805338 3.29706,-2.687584 1.4512,-0.882246 3.11627,-1.218917 5.53132,-1.785092 2.41506,-0.566174 6.54618,-0.905876 8.29581,0.04304 1.74964,0.948915 2.42668,1.176781 2.9552,2.239536 0.52852,1.062755 1.35703,2.407717 1.13015,3.92245 -0.22687,1.514734 -0.89134,3.502098 -2.21237,4.904828 -1.32103,1.402731 -2.94993,1.965946 -4.36131,2.619271 -1.41138,0.653326 -3.70276,0.707066 -5.00977,0.678253 -1.30701,-0.02881 -3.28327,0.169932 -4.77158,-0.521808 -1.48832,-0.69174 -4.26218,-1.337404 -5.27596,-3.048831 z"
         style="fill:#00c800;fill-opacity:1;fill-rule:nonzero;stroke:none;stroke-width:0.549861;stroke-linecap:butt;stroke-linejoin:miter;stroke-miterlimit:4;stroke-dasharray:none;stroke-opacity:1"
         id="path478"
         inkscape:connector-curvature="0"
         sodipodi:nodetypes="ssssssssssss" /></g><path
       sodipodi:nodetypes="ccccccccccccccccscccccccccccscccc"
       inkscape:connector-curvature="0"
       id="path474"
       style="opacity:1;fill:#00c800;fill-opacity:1;fill-rule:nonzero;stroke:#000000;stroke-width:0.0964664;stroke-linecap:butt;stroke-linejoin:miter;stroke-miterlimit:4;stroke-dasharray:none;stroke-opacity:0.999382"
       d="m 42.755383,66.035326 c -0.198572,-0.0077 -0.416045,0.08557 -0.59472,0 -0.498597,-0.237838 -0.606812,-0.946576 -1.04022,-1.287865 -0.459068,-0.358893 -1.461011,-0.172154 -1.582835,-0.741209 -0.100422,-0.469135 0.87485,-0.616372 0.938783,-1.091295 0.05006,-0.380551 -0.495568,-1.040207 -0.495568,-1.040207 0,0 1.213361,-0.481724 1.783433,-0.79633 0.310826,-0.17115 0.642042,-0.334236 0.88794,-0.590953 0.398156,-0.418809 0.513177,-1.05103 0.892711,-1.48644 0.278123,-0.319642 0.57787,-0.693141 0.987865,-0.797344 0.538859,-0.136664 1.092315,0.208396 1.640984,0.301776 1.038186,0.177942 2.094003,0.25772 3.120377,0.495568 0.65688,0.152522 1.288857,0.392367 1.931917,0.594724 0.414014,0.129873 0.835578,0.237086 1.23879,0.396399 0.969477,0.382307 1.982007,1.039957 2.823632,1.336948 0.842388,0.297994 3.059467,0.967471 4.607831,1.387273 1.016547,0.276096 2.675135,0.743225 3.071278,0.743225 0.396413,0 2.384209,0.21922 3.566885,0.396149 0.880873,0.131889 2.010684,-0.148491 2.626054,0.495567 0.241879,0.253698 0.327439,0.739193 0.148502,1.040216 -0.387355,0.651602 -1.414721,0.543627 -2.130507,0.793301 -0.655884,0.228028 -1.295919,0.53483 -1.980995,0.644058 -1.223949,0.19355 0.02432,1.130316 -1.177228,1.432333 -0.508168,0.127606 -1.182438,1.835273 -3.210261,0.678111 -0.268295,0.228027 -1.039569,-0.219346 -1.359965,-0.07013 -0.71782,0.337256 -1.601481,-0.3898 -2.377157,-0.554903 -0.660665,-0.139686 -1.231991,-0.565286 -1.882844,-0.742215 -0.709737,-0.194804 -1.44719,-0.289187 -2.180576,-0.347077 -0.64207,-0.05113 -1.287866,0 -1.931941,0 -0.445223,0 -1.556161,-0.09338 -2.328064,-0.198576 -0.799358,-0.108226 -1.584867,-0.300011 -2.378154,-0.445482 -0.824776,-0.152263 -1.64578,-0.33524 -2.476583,-0.446234 -0.378522,-0.05006 -0.758817,-0.08258 -1.139364,-0.09941 z" /><polygon
       class="fil2"
       points="1678,1993 4943,5466 1678,9306 7085,9306 7085,10436 307,10436 307,9116 3434,5466 307,2136 307,864 6817,864 6817,1993 "
       id="polygon1"
       style="clip-rule:evenodd;display:inline;fill:#af0000;fill-opacity:1;fill-rule:evenodd;image-rendering:optimizeQuality;shape-rendering:geometricPrecision;text-rendering:geometricPrecision"
       transform="matrix(5.4357852e-4,0,0,5.4357852e-4,50.39905,60.748966)" /><rect
       style="display:none;fill:#ff0000;stroke-width:1.37504;stroke-linecap:round"
       id="rect1"
       width="27.960394"
       height="0.66057211"
       x="40.17461"
       y="58.325134" /></g></svg>
