<?xml version="1.0" encoding="UTF-8" standalone="no"?>
<!-- Created with Inkscape (http://www.inkscape.org/) -->

<svg
   width="31.567299mm"
   height="12.165771mm"
   viewBox="0 0 31.5673 12.165771"
   version="1.1"
   id="svg2262"
   inkscape:version="1.3.1 (91b66b0, 2023-11-16)"
   sodipodi:docname="marker_sum_expression_cytosol.svg"
   inkscape:export-filename="marker_sum_expression_cytosol.pdf"
   inkscape:export-xdpi="96"
   inkscape:export-ydpi="96"
   xmlns:inkscape="http://www.inkscape.org/namespaces/inkscape"
   xmlns:sodipodi="http://sodipodi.sourceforge.net/DTD/sodipodi-0.dtd"
   xmlns:xlink="http://www.w3.org/1999/xlink"
   xmlns="http://www.w3.org/2000/svg"
   xmlns:svg="http://www.w3.org/2000/svg"
   xmlns:rdf="http://www.w3.org/1999/02/22-rdf-syntax-ns#"
   xmlns:cc="http://creativecommons.org/ns#"
   xmlns:dc="http://purl.org/dc/elements/1.1/">
  <defs
     id="defs2256">
    <linearGradient
       id="linearGradient1"
       inkscape:collect="always">
      <stop
         style="stop-color:#00c800;stop-opacity:1;"
         offset="0"
         id="stop1" />
      <stop
         style="stop-color:#00c800;stop-opacity:0;"
         offset="1"
         id="stop2" />
    </linearGradient>
    <marker
       inkscape:isstock="true"
       style="overflow:visible"
       id="marker1413"
       refX="0"
       refY="0"
       orient="auto"
       inkscape:stockid="TriangleOutL">
      <path
         transform="scale(0.8)"
         style="fill:#ffffff;fill-opacity:1;fill-rule:evenodd;stroke:#ffffff;stroke-width:1.00000003pt;stroke-opacity:1"
         d="M 5.77,0 -2.88,5 V -5 Z"
         id="path1411"
         inkscape:connector-curvature="0" />
    </marker>
    <marker
       inkscape:stockid="TriangleOutM"
       orient="auto"
       refY="0"
       refX="0"
       id="TriangleOutM-1"
       style="overflow:visible"
       inkscape:isstock="true">
      <path
         inkscape:connector-curvature="0"
         id="path1819-8"
         d="M 5.77,0 -2.88,5 V -5 Z"
         style="fill:#ffffff;fill-opacity:1;fill-rule:evenodd;stroke:#ffffff;stroke-width:1.00000003pt;stroke-opacity:1"
         transform="scale(0.4)" />
    </marker>
    <marker
       inkscape:stockid="TriangleOutM"
       orient="auto"
       refY="0"
       refX="0"
       id="TriangleOutM"
       style="overflow:visible"
       inkscape:isstock="true">
      <path
         id="path1819"
         d="M 5.77,0 -2.88,5 V -5 Z"
         style="fill:#ffffff;fill-opacity:1;fill-rule:evenodd;stroke:#ffffff;stroke-width:1.00000003pt;stroke-opacity:1"
         transform="scale(0.4)"
         inkscape:connector-curvature="0" />
    </marker>
    <linearGradient
       inkscape:collect="always"
       xlink:href="#linearGradient1"
       id="linearGradient2"
       x1="39.768879"
       y1="63.608368"
       x2="66.88694"
       y2="65.529976"
       gradientUnits="userSpaceOnUse"
       gradientTransform="matrix(0.99924472,0,0,0.99924472,0.07127602,0.10907175)" />
  </defs>
  <sodipodi:namedview
     id="base"
     pagecolor="#ffffff"
     bordercolor="#666666"
     borderopacity="1.0"
     inkscape:pageopacity="0.0"
     inkscape:pageshadow="2"
     inkscape:zoom="5.4920505"
     inkscape:cx="54.351285"
     inkscape:cy="13.291939"
     inkscape:document-units="mm"
     inkscape:current-layer="layer1"
     showgrid="false"
     fit-margin-top="0"
     fit-margin-left="0"
     fit-margin-right="0"
     fit-margin-bottom="0"
     inkscape:window-width="1846"
     inkscape:window-height="1016"
     inkscape:window-x="74"
     inkscape:window-y="27"
     inkscape:window-maximized="1"
     inkscape:showpageshadow="0"
     inkscape:pagecheckerboard="0"
     inkscape:deskcolor="#505050" />
  <metadata
     id="metadata2259">
    <rdf:RDF>
      <cc:Work
         rdf:about="">
        <dc:format>image/svg+xml</dc:format>
        <dc:type
           rdf:resource="http://purl.org/dc/dcmitype/StillImage" />
      </cc:Work>
    </rdf:RDF>
  </metadata>
  <g
     inkscape:label="Layer 1"
     inkscape:groupmode="layer"
     id="layer1"
     transform="translate(-38.262486,-57.520648)">
    <path
       id="path474"
       style="opacity:1;fill:url(#linearGradient2);fill-rule:nonzero;stroke:#000000;stroke-width:0.0999244;stroke-linecap:butt;stroke-linejoin:miter;stroke-miterlimit:4;stroke-dasharray:none;stroke-opacity:1"
       d="m 43.994272,57.887837 c -0.0702,0.0035 -0.139876,0.0138 -0.209648,0.0315 -0.424692,0.107934 -0.735359,0.494582 -1.023453,0.825681 -0.393138,0.451019 -0.512398,1.106007 -0.924826,1.539828 -0.254714,0.265919 -0.597693,0.435133 -0.919662,0.612419 -0.590506,0.325884 -1.847071,0.824649 -1.847071,0.824649 0,0 0.565137,0.683481 0.513277,1.077673 -0.06623,0.491948 -1.076356,0.64439 -0.972334,1.130343 0.126193,0.589454 1.163966,0.39609 1.639488,0.767847 0.448946,0.353524 0.560686,1.087432 1.077157,1.333795 0.185078,0.08863 0.410345,-0.008 0.616034,0 0.394189,0.01743 0.78834,0.0509 1.180431,0.102755 0.860585,0.114972 1.711005,0.30495 2.565347,0.462669 0.821724,0.150687 1.635606,0.349019 2.46362,0.461124 0.799573,0.108964 1.950283,0.206033 2.411466,0.206033 0.667163,0 1.335865,-0.05296 2.000951,0 0.759674,0.05995 1.523439,0.157608 2.25862,0.359396 0.674183,0.183271 1.265996,0.62419 1.950344,0.76888 0.803482,0.171021 1.719035,0.92407 2.462587,0.574725 0.331882,-0.154563 1.130755,0.30901 1.408669,0.07282 2.100514,1.198643 2.799064,-0.570604 3.325448,-0.702786 1.244618,-0.312841 -0.04866,-1.283053 1.219159,-1.483542 0.709634,-0.113145 1.372675,-0.430953 2.052071,-0.667155 0.741443,-0.258624 1.805742,-0.146591 2.206983,-0.821551 0.18535,-0.311814 0.09667,-0.814882 -0.153881,-1.077672 -0.637428,-0.667145 -1.807808,-0.376659 -2.720258,-0.513276 -1.22507,-0.183271 -3.284034,-0.410518 -3.694655,-0.410518 -0.410345,0 -2.128395,-0.48392 -3.181381,-0.769913 C 58.094887,62.15871 55.798494,61.465168 54.92591,61.156493 54.054116,60.848855 53.005397,60.167587 52.001168,59.771577 51.583502,59.606552 51.146832,59.495588 50.717978,59.36106 50.051865,59.151447 49.39694,58.903017 48.716512,58.745025 47.653345,58.498651 46.55993,58.41607 45.484527,58.231749 44.987233,58.147109 44.485709,57.862746 43.994272,57.887845 Z m 11.344737,4.736184 c 0.447147,-0.0037 0.942454,0.06053 1.296615,0.143551 0.629617,0.147605 1.063896,0.235245 1.442233,0.465252 0.378336,0.230008 0.643579,0.301333 0.859763,0.70072 0.216179,0.399388 0.373767,1.212932 0.109474,1.65911 -0.264299,0.446179 -0.98709,0.614875 -1.375104,0.795217 -0.388011,0.18034 -0.9032,0.128295 -1.243945,0.135805 -0.340745,0.0075 -0.938471,-0.0062 -1.306427,-0.176599 -0.367953,-0.170326 -0.792655,-0.317463 -1.137055,-0.683163 -0.3444,-0.3657 -0.517643,-0.883643 -0.576789,-1.278542 -0.05915,-0.3949 0.157061,-0.745872 0.294849,-1.022937 0.137789,-0.277067 0.31429,-0.336115 0.77043,-0.583503 0.19956,-0.108233 0.518178,-0.152098 0.865959,-0.154911 z" />
    <polygon
       class="fil2"
       points="3434,5466 307,2136 307,864 6817,864 6817,1993 1678,1993 4943,5466 1678,9306 7085,9306 7085,10436 307,10436 307,9116 "
       id="polygon1"
       style="clip-rule:evenodd;display:inline;fill:#af0000;fill-opacity:1;fill-rule:evenodd;image-rendering:optimizeQuality;shape-rendering:geometricPrecision;text-rendering:geometricPrecision"
       transform="matrix(5.4357852e-4,0,0,5.4357852e-4,48.266522,60.15819)" />
  </g>
</svg>
