<?xml version="1.0" encoding="UTF-8" standalone="no"?>
<!-- Created with Inkscape (http://www.inkscape.org/) -->

<svg
   width="31.567299mm"
   height="12.165771mm"
   viewBox="0 0 31.5673 12.165771"
   version="1.1"
   id="svg2262"
   inkscape:version="1.3.1 (91b66b0, 2023-11-16)"
   sodipodi:docname="marker_mean_expression_cytosol.svg"
   inkscape:export-filename="marker_mean_expression_cytosol.pdf"
   inkscape:export-xdpi="96"
   inkscape:export-ydpi="96"
   xmlns:inkscape="http://www.inkscape.org/namespaces/inkscape"
   xmlns:sodipodi="http://sodipodi.sourceforge.net/DTD/sodipodi-0.dtd"
   xmlns:xlink="http://www.w3.org/1999/xlink"
   xmlns="http://www.w3.org/2000/svg"
   xmlns:svg="http://www.w3.org/2000/svg"
   xmlns:rdf="http://www.w3.org/1999/02/22-rdf-syntax-ns#"
   xmlns:cc="http://creativecommons.org/ns#"
   xmlns:dc="http://purl.org/dc/elements/1.1/">
  <defs
     id="defs2256">
    <linearGradient
       id="linearGradient1"
       inkscape:collect="always">
      <stop
         style="stop-color:#00c800;stop-opacity:1;"
         offset="0"
         id="stop1" />
      <stop
         style="stop-color:#00c800;stop-opacity:0;"
         offset="1"
         id="stop2" />
    </linearGradient>
    <marker
       inkscape:isstock="true"
       style="overflow:visible"
       id="marker1413"
       refX="0"
       refY="0"
       orient="auto"
       inkscape:stockid="TriangleOutL">
      <path
         transform="scale(0.8)"
         style="fill:#ffffff;fill-opacity:1;fill-rule:evenodd;stroke:#ffffff;stroke-width:1.00000003pt;stroke-opacity:1"
         d="M 5.77,0 -2.88,5 V -5 Z"
         id="path1411"
         inkscape:connector-curvature="0" />
    </marker>
    <marker
       inkscape:stockid="TriangleOutM"
       orient="auto"
       refY="0"
       refX="0"
       id="TriangleOutM-1"
       style="overflow:visible"
       inkscape:isstock="true">
      <path
         inkscape:connector-curvature="0"
         id="path1819-8"
         d="M 5.77,0 -2.88,5 V -5 Z"
         style="fill:#ffffff;fill-opacity:1;fill-rule:evenodd;stroke:#ffffff;stroke-width:1.00000003pt;stroke-opacity:1"
         transform="scale(0.4)" />
    </marker>
    <marker
       inkscape:stockid="TriangleOutM"
       orient="auto"
       refY="0"
       refX="0"
       id="TriangleOutM"
       style="overflow:visible"
       inkscape:isstock="true">
      <path
         id="path1819"
         d="M 5.77,0 -2.88,5 V -5 Z"
         style="fill:#ffffff;fill-opacity:1;fill-rule:evenodd;stroke:#ffffff;stroke-width:1.00000003pt;stroke-opacity:1"
         transform="scale(0.4)"
         inkscape:connector-curvature="0" />
    </marker>
    <linearGradient
       inkscape:collect="always"
       xlink:href="#linearGradient1"
       id="linearGradient2"
       x1="39.768879"
       y1="63.608368"
       x2="66.88694"
       y2="65.529976"
       gradientUnits="userSpaceOnUse"
       gradientTransform="matrix(0.9028263,0,0,0.9028263,5.7229766,6.8090061)" />
  </defs>
  <sodipodi:namedview
     id="base"
     pagecolor="#ffffff"
     bordercolor="#666666"
     borderopacity="1.0"
     inkscape:pageopacity="0.0"
     inkscape:pageshadow="2"
     inkscape:zoom="5.4920505"
     inkscape:cx="69.8282"
     inkscape:cy="13.291939"
     inkscape:document-units="mm"
     inkscape:current-layer="layer1"
     showgrid="false"
     fit-margin-top="0"
     fit-margin-left="0"
     fit-margin-right="0"
     fit-margin-bottom="0"
     inkscape:window-width="1846"
     inkscape:window-height="1016"
     inkscape:window-x="74"
     inkscape:window-y="27"
     inkscape:window-maximized="1"
     inkscape:showpageshadow="0"
     inkscape:pagecheckerboard="0"
     inkscape:deskcolor="#505050" />
  <metadata
     id="metadata2259">
    <rdf:RDF>
      <cc:Work
         rdf:about="">
        <dc:format>image/svg+xml</dc:format>
        <dc:type
           rdf:resource="http://purl.org/dc/dcmitype/StillImage" />
      </cc:Work>
    </rdf:RDF>
  </metadata>
  <g
     inkscape:label="Layer 1"
     inkscape:groupmode="layer"
     id="layer1"
     transform="translate(-38.262486,-57.520648)">
    <path
       id="path474"
       style="opacity:1;fill:url(#linearGradient2);fill-rule:nonzero;stroke:#000000;stroke-width:0.0902826;stroke-linecap:butt;stroke-linejoin:miter;stroke-miterlimit:4;stroke-dasharray:none;stroke-opacity:1"
       d="m 45.407786,59.012624 c -0.06343,0.0032 -0.126379,0.01247 -0.189419,0.02846 -0.383713,0.09752 -0.664403,0.446859 -0.924699,0.74601 -0.355203,0.4075 -0.462956,0.999287 -0.835588,1.391248 -0.230136,0.24026 -0.540021,0.393147 -0.830923,0.553326 -0.533527,0.294439 -1.668844,0.745078 -1.668844,0.745078 0,0 0.510606,0.617531 0.46375,0.973687 -0.05984,0.444479 -0.972497,0.582212 -0.878512,1.021274 0.114016,0.532577 1.051653,0.357871 1.481291,0.693757 0.405627,0.319412 0.506585,0.982504 0.973221,1.205095 0.16722,0.08008 0.37075,-0.0072 0.556592,0 0.356153,0.01575 0.712272,0.04599 1.06653,0.09284 0.777546,0.103878 1.545908,0.275525 2.317813,0.418026 0.742435,0.136147 1.477784,0.315341 2.225902,0.416629 0.722421,0.09845 1.762098,0.186153 2.178781,0.186153 0.602787,0 1.206965,-0.04785 1.807876,0 0.686372,0.05417 1.376441,0.1424 2.040683,0.324717 0.60913,0.165587 1.143839,0.563961 1.762153,0.69469 0.725953,0.154519 1.553163,0.834905 2.224969,0.519269 0.299858,-0.139649 1.021647,0.279193 1.272744,0.06579 1.897833,1.082984 2.528979,-0.515546 3.004572,-0.634973 1.124523,-0.282655 -0.04397,-1.15925 1.10152,-1.340393 0.641161,-0.102228 1.240224,-0.38937 1.854064,-0.602781 0.669901,-0.233669 1.631504,-0.132446 1.994029,-0.742278 0.167465,-0.281727 0.08734,-0.736253 -0.139033,-0.973686 -0.575922,-0.602772 -1.63337,-0.340315 -2.457777,-0.46375 -1.106861,-0.165587 -2.967153,-0.370906 -3.338153,-0.370906 -0.37075,0 -1.923023,-0.437226 -2.874405,-0.695623 -1.449109,-0.392892 -3.52392,-1.019513 -4.312307,-1.298404 -0.787674,-0.277953 -1.7352,-0.893485 -2.64253,-1.251283 -0.377365,-0.149102 -0.7719,-0.249359 -1.159373,-0.370906 -0.601839,-0.189387 -1.19357,-0.413846 -1.808342,-0.556593 -0.960581,-0.222601 -1.948491,-0.297214 -2.920127,-0.463749 -0.449309,-0.07647 -0.902441,-0.333398 -1.346458,-0.310721 z m 10.250068,4.279183 c 0.404002,-0.0033 0.851516,0.05469 1.171503,0.1297 0.568865,0.133362 0.96124,0.212546 1.30307,0.420359 0.34183,0.207814 0.58148,0.272257 0.776804,0.633107 0.195319,0.36085 0.337701,1.095894 0.09891,1.49902 -0.238796,0.403127 -0.891844,0.555545 -1.242418,0.718485 -0.350571,0.162939 -0.816049,0.115916 -1.123915,0.122701 -0.307866,0.0068 -0.847917,-0.0056 -1.180368,-0.159558 -0.332449,-0.153891 -0.716171,-0.286831 -1.027339,-0.617244 -0.311169,-0.330413 -0.467695,-0.798379 -0.521134,-1.155174 -0.05344,-0.356795 0.141906,-0.673902 0.266398,-0.924232 0.124494,-0.250333 0.283964,-0.303683 0.696091,-0.5272 0.180304,-0.09779 0.468178,-0.137422 0.782401,-0.139964 z" />
    <rect
       style="fill:#ff0000;stroke-width:1.37504;stroke-linecap:round"
       id="rect1"
       width="27.960394"
       height="0.66057211"
       x="40.713039"
       y="57.973907" />
  </g>
</svg>
