<?xml version="1.0" encoding="UTF-8" standalone="no"?>
<!-- Created with Inkscape (http://www.inkscape.org/) -->

<svg
   width="31.567299mm"
   height="12.165771mm"
   viewBox="0 0 31.5673 12.165771"
   version="1.1"
   id="svg2262"
   inkscape:version="1.3.1 (91b66b0, 2023-11-16)"
   sodipodi:docname="marker_mean_expression.svg"
   xml:space="preserve"
   inkscape:export-filename="marker_mean_expression.pdf"
   inkscape:export-xdpi="96"
   inkscape:export-ydpi="96"
   xmlns:inkscape="http://www.inkscape.org/namespaces/inkscape"
   xmlns:sodipodi="http://sodipodi.sourceforge.net/DTD/sodipodi-0.dtd"
   xmlns="http://www.w3.org/2000/svg"
   xmlns:svg="http://www.w3.org/2000/svg"
   xmlns:rdf="http://www.w3.org/1999/02/22-rdf-syntax-ns#"
   xmlns:cc="http://creativecommons.org/ns#"
   xmlns:dc="http://purl.org/dc/elements/1.1/"><defs
     id="defs2256"><marker
       inkscape:isstock="true"
       style="overflow:visible"
       id="marker1413"
       refX="0"
       refY="0"
       orient="auto"
       inkscape:stockid="TriangleOutL"><path
         transform="scale(0.8)"
         style="fill:#ffffff;fill-opacity:1;fill-rule:evenodd;stroke:#ffffff;stroke-width:1.00000003pt;stroke-opacity:1"
         d="M 5.77,0 -2.88,5 V -5 Z"
         id="path1411"
         inkscape:connector-curvature="0" /></marker><marker
       inkscape:stockid="TriangleOutM"
       orient="auto"
       refY="0"
       refX="0"
       id="TriangleOutM-1"
       style="overflow:visible"
       inkscape:isstock="true"><path
         inkscape:connector-curvature="0"
         id="path1819-8"
         d="M 5.77,0 -2.88,5 V -5 Z"
         style="fill:#ffffff;fill-opacity:1;fill-rule:evenodd;stroke:#ffffff;stroke-width:1.00000003pt;stroke-opacity:1"
         transform="scale(0.4)" /></marker><marker
       inkscape:stockid="TriangleOutM"
       orient="auto"
       refY="0"
       refX="0"
       id="TriangleOutM"
       style="overflow:visible"
       inkscape:isstock="true"><path
         id="path1819"
         d="M 5.77,0 -2.88,5 V -5 Z"
         style="fill:#ffffff;fill-opacity:1;fill-rule:evenodd;stroke:#ffffff;stroke-width:1.00000003pt;stroke-opacity:1"
         transform="scale(0.4)"
         inkscape:connector-curvature="0" /></marker><style
       type="text/css"
       id="style1">
   <![CDATA[
    .fil0 {fill:none}
    .fil2 {fill:black;fill-rule:nonzero}
    .fil1 {fill:#CCCCCC;fill-rule:nonzero}
   ]]>
  </style></defs><sodipodi:namedview
     id="base"
     pagecolor="#ffffff"
     bordercolor="#666666"
     borderopacity="1.0"
     inkscape:pageopacity="0.0"
     inkscape:pageshadow="2"
     inkscape:zoom="5.4920505"
     inkscape:cx="57.992912"
     inkscape:cy="-0.91040678"
     inkscape:document-units="mm"
     inkscape:current-layer="layer1"
     showgrid="false"
     fit-margin-top="0"
     fit-margin-left="0"
     fit-margin-right="0"
     fit-margin-bottom="0"
     inkscape:window-width="1846"
     inkscape:window-height="1016"
     inkscape:window-x="74"
     inkscape:window-y="27"
     inkscape:window-maximized="1"
     inkscape:showpageshadow="0"
     inkscape:pagecheckerboard="0"
     inkscape:deskcolor="#505050" /><metadata
     id="metadata2259"><rdf:RDF><cc:Work
         rdf:about=""><dc:format>image/svg+xml</dc:format><dc:type
           rdf:resource="http://purl.org/dc/dcmitype/StillImage" /></cc:Work></rdf:RDF></metadata><g
     inkscape:label="Layer 1"
     inkscape:groupmode="layer"
     id="layer1"
     transform="translate(-38.262486,-57.520648)"><g
       transform="matrix(-0.26090298,0,0,0.26090298,190.65936,51.695703)"
       id="g476"
       style="display:none;opacity:0.5;stroke:none"><path
         d="m 504.55046,53.037043 c -1.01377,-1.711426 -0.40776,-4.832112 0.42145,-6.364063 0.82922,-1.531951 1.84586,-1.805338 3.29706,-2.687584 1.4512,-0.882246 3.11627,-1.218917 5.53132,-1.785092 2.41506,-0.566174 6.54618,-0.905876 8.29581,0.04304 1.74964,0.948915 2.42668,1.176781 2.9552,2.239536 0.52852,1.062755 1.35703,2.407717 1.13015,3.92245 -0.22687,1.514734 -0.89134,3.502098 -2.21237,4.904828 -1.32103,1.402731 -2.94993,1.965946 -4.36131,2.619271 -1.41138,0.653326 -3.70276,0.707066 -5.00977,0.678253 -1.30701,-0.02881 -3.28327,0.169932 -4.77158,-0.521808 -1.48832,-0.69174 -4.26218,-1.337404 -5.27596,-3.048831 z"
         style="fill:#00c800;fill-opacity:1;fill-rule:nonzero;stroke:none;stroke-width:0.549861;stroke-linecap:butt;stroke-linejoin:miter;stroke-miterlimit:4;stroke-dasharray:none;stroke-opacity:1"
         id="path478"
         inkscape:connector-curvature="0"
         sodipodi:nodetypes="ssssssssssss" /></g><path
       sodipodi:nodetypes="ccccccccccccccccscccccccccccscccc"
       inkscape:connector-curvature="0"
       id="path474"
       style="opacity:1;fill:#00c800;fill-opacity:1;fill-rule:nonzero;stroke:#000000;stroke-width:0.091296;stroke-linecap:butt;stroke-linejoin:miter;stroke-miterlimit:4;stroke-dasharray:none;stroke-opacity:0.999382"
       d="m 43.345372,66.625307 c -0.187929,-0.0073 -0.393746,0.08098 -0.562844,0 -0.471874,-0.225091 -0.574289,-0.895842 -0.984467,-1.218839 -0.434463,-0.339657 -1.382704,-0.162927 -1.497999,-0.701482 -0.09504,-0.44399 0.82796,-0.583336 0.888467,-1.032804 0.04738,-0.360154 -0.469007,-0.984454 -0.469007,-0.984454 0,0 1.148328,-0.455905 1.687845,-0.753649 0.294167,-0.161977 0.60763,-0.316322 0.840349,-0.559279 0.376815,-0.396362 0.485672,-0.994698 0.844863,-1.406771 0.263217,-0.30251 0.546898,-0.65599 0.934918,-0.754608 0.509978,-0.129339 1.03377,0.197227 1.553031,0.285602 0.982542,0.168404 1.98177,0.243906 2.953133,0.469006 0.621673,0.144348 1.219777,0.371337 1.828371,0.562849 0.391823,0.122912 0.790793,0.224378 1.172393,0.375153 0.917516,0.361816 1.875777,0.984217 2.672293,1.26529 0.797238,0.282023 2.895486,0.915617 4.360862,1.312919 0.962062,0.261298 2.531754,0.70339 2.906665,0.70339 0.375166,0 2.256421,0.20747 3.375708,0.374916 0.833661,0.12482 1.902916,-0.140532 2.485304,0.469006 0.228915,0.2401 0.309889,0.699574 0.140543,0.984463 -0.366594,0.616678 -1.338896,0.51449 -2.016317,0.750782 -0.62073,0.215806 -1.226461,0.506164 -1.874819,0.609538 -1.158348,0.183176 0.02302,1.069734 -1.114131,1.355563 -0.480931,0.120767 -1.119062,1.736907 -3.038199,0.641766 -0.253915,0.215805 -0.98385,-0.207589 -1.287074,-0.06637 -0.679346,0.31918 -1.515645,-0.368908 -2.249747,-0.525162 -0.625255,-0.132199 -1.165959,-0.534988 -1.781928,-0.702434 -0.671697,-0.184363 -1.369624,-0.273687 -2.063702,-0.328474 -0.607657,-0.04839 -1.21884,0 -1.828394,0 -0.42136,0 -1.472755,-0.08838 -2.203285,-0.187933 -0.756515,-0.102425 -1.499922,-0.283931 -2.250691,-0.421605 -0.78057,-0.144102 -1.55757,-0.317272 -2.343844,-0.422317 -0.358234,-0.04738 -0.718146,-0.07815 -1.078297,-0.09408 z" /><polygon
       class="fil2"
       points="6817,1993 1678,1993 4943,5466 1678,9306 7085,9306 7085,10436 307,10436 307,9116 3434,5466 307,2136 307,864 6817,864 "
       id="polygon1"
       style="clip-rule:evenodd;display:none;fill:#af0000;fill-opacity:1;fill-rule:evenodd;image-rendering:optimizeQuality;shape-rendering:geometricPrecision;text-rendering:geometricPrecision"
       transform="matrix(5.4357852e-4,0,0,5.4357852e-4,50.39905,60.748966)" /><rect
       style="fill:#ff0000;stroke-width:1.37504;stroke-linecap:round"
       id="rect1"
       width="27.960394"
       height="0.66057211"
       x="40.17461"
       y="58.325134" /></g></svg>
