<?xml version="1.0" encoding="UTF-8" standalone="no"?>
<!-- Created with Inkscape (http://www.inkscape.org/) -->

<svg
   width="31.567299mm"
   height="12.165771mm"
   viewBox="0 0 31.5673 12.165771"
   version="1.1"
   id="svg2262"
   inkscape:version="1.3.1 (91b66b0, 2023-11-16)"
   sodipodi:docname="marker_sum_expression_membrane.svg"
   inkscape:export-filename="marker_sum_expression_membrane.pdf"
   inkscape:export-xdpi="96"
   inkscape:export-ydpi="96"
   xmlns:inkscape="http://www.inkscape.org/namespaces/inkscape"
   xmlns:sodipodi="http://sodipodi.sourceforge.net/DTD/sodipodi-0.dtd"
   xmlns:xlink="http://www.w3.org/1999/xlink"
   xmlns="http://www.w3.org/2000/svg"
   xmlns:svg="http://www.w3.org/2000/svg"
   xmlns:rdf="http://www.w3.org/1999/02/22-rdf-syntax-ns#"
   xmlns:cc="http://creativecommons.org/ns#"
   xmlns:dc="http://purl.org/dc/elements/1.1/">
  <defs
     id="defs2256">
    <marker
       inkscape:isstock="true"
       style="overflow:visible"
       id="marker1205"
       refX="0.0"
       refY="0.0"
       orient="auto"
       inkscape:stockid="TriangleOutL">
      <path
         transform="scale(0.8)"
         style="fill-rule:evenodd;stroke:#ff0000;stroke-width:1pt;stroke-opacity:1;fill:#ff0000;fill-opacity:1"
         d="M 5.77,0.0 L -2.88,5.0 L -2.88,-5.0 L 5.77,0.0 z "
         id="path1203" />
    </marker>
    <linearGradient
       inkscape:collect="always"
       id="linearGradient875">
      <stop
         style="stop-color:#00c800;stop-opacity:1;"
         offset="0"
         id="stop871" />
      <stop
         style="stop-color:#00c800;stop-opacity:0;"
         offset="1"
         id="stop873" />
    </linearGradient>
    <marker
       inkscape:isstock="true"
       style="overflow:visible"
       id="marker1413"
       refX="0"
       refY="0"
       orient="auto"
       inkscape:stockid="TriangleOutL">
      <path
         transform="scale(0.8)"
         style="fill:#ffffff;fill-opacity:1;fill-rule:evenodd;stroke:#ffffff;stroke-width:1.00000003pt;stroke-opacity:1"
         d="M 5.77,0 -2.88,5 V -5 Z"
         id="path1411"
         inkscape:connector-curvature="0" />
    </marker>
    <marker
       inkscape:stockid="TriangleOutM"
       orient="auto"
       refY="0"
       refX="0"
       id="TriangleOutM-1"
       style="overflow:visible"
       inkscape:isstock="true">
      <path
         inkscape:connector-curvature="0"
         id="path1819-8"
         d="M 5.77,0 -2.88,5 V -5 Z"
         style="fill:#ffffff;fill-opacity:1;fill-rule:evenodd;stroke:#ffffff;stroke-width:1.00000003pt;stroke-opacity:1"
         transform="scale(0.4)" />
    </marker>
    <marker
       inkscape:stockid="TriangleOutM"
       orient="auto"
       refY="0"
       refX="0"
       id="TriangleOutM"
       style="overflow:visible"
       inkscape:isstock="true">
      <path
         id="path1819"
         d="M 5.77,0 -2.88,5 V -5 Z"
         style="fill:#ffffff;fill-opacity:1;fill-rule:evenodd;stroke:#ffffff;stroke-width:1.00000003pt;stroke-opacity:1"
         transform="scale(0.4)"
         inkscape:connector-curvature="0" />
    </marker>
    <linearGradient
       inkscape:collect="always"
       xlink:href="#linearGradient875"
       id="linearGradient877"
       x1="38.461279"
       y1="63.6074"
       x2="72.887932"
       y2="64.434647"
       gradientUnits="userSpaceOnUse"
       gradientTransform="matrix(0.93887257,0,0,0.93887257,3.2486236,3.933783)" />
  </defs>
  <sodipodi:namedview
     id="base"
     pagecolor="#ffffff"
     bordercolor="#666666"
     borderopacity="1.0"
     inkscape:pageopacity="0.0"
     inkscape:pageshadow="2"
     inkscape:zoom="5.4144905"
     inkscape:cx="52.174808"
     inkscape:cy="35.829779"
     inkscape:document-units="mm"
     inkscape:current-layer="layer1"
     showgrid="false"
     fit-margin-top="0"
     fit-margin-left="0"
     fit-margin-right="0"
     fit-margin-bottom="0"
     inkscape:window-width="1846"
     inkscape:window-height="1016"
     inkscape:window-x="74"
     inkscape:window-y="27"
     inkscape:window-maximized="1"
     inkscape:showpageshadow="0"
     inkscape:pagecheckerboard="0"
     inkscape:deskcolor="#505050" />
  <metadata
     id="metadata2259">
    <rdf:RDF>
      <cc:Work
         rdf:about="">
        <dc:format>image/svg+xml</dc:format>
        <dc:type
           rdf:resource="http://purl.org/dc/dcmitype/StillImage" />
      </cc:Work>
    </rdf:RDF>
  </metadata>
  <g
     inkscape:label="Layer 1"
     inkscape:groupmode="layer"
     id="layer1"
     transform="translate(-38.262486,-57.520648)">
    <path
       sodipodi:nodetypes="ccccccccccccccccscccccccccccscccc"
       inkscape:connector-curvature="0"
       id="path474"
       style="opacity:1;fill:none;fill-opacity:1;fill-rule:nonzero;stroke:url(#linearGradient877);stroke-width:0.751099;stroke-linecap:butt;stroke-linejoin:miter;stroke-miterlimit:4;stroke-dasharray:none;stroke-opacity:1"
       d="m 42.590957,65.873437 c -0.193263,-0.0075 -0.404922,0.08328 -0.57882,0 -0.485266,-0.231478 -0.590588,-0.921269 -1.012409,-1.253432 -0.446793,-0.349298 -1.421948,-0.167552 -1.540515,-0.721392 -0.09774,-0.456592 0.851459,-0.599894 0.913684,-1.062119 0.04873,-0.370376 -0.482321,-1.012396 -0.482321,-1.012396 0,0 1.180923,-0.468844 1.735753,-0.775039 0.302516,-0.166574 0.624877,-0.325301 0.864201,-0.575153 0.38751,-0.407612 0.499455,-1.02293 0.868842,-1.4467 0.270688,-0.311094 0.56242,-0.674607 0.961453,-0.776025 0.524453,-0.133011 1.063112,0.202825 1.59711,0.293708 1.010431,0.173185 2.03802,0.250829 3.036952,0.482317 0.639319,0.148445 1.254398,0.381877 1.880266,0.578825 0.402945,0.1264 0.813238,0.230746 1.205669,0.385801 0.943558,0.372085 1.929017,1.012152 2.74814,1.301203 0.819867,0.290027 2.977669,0.941603 4.484636,1.350183 0.989368,0.268715 2.603613,0.723354 2.989165,0.723354 0.385814,0 2.320465,0.213359 3.47152,0.385557 0.857322,0.128364 1.956927,-0.14452 2.555845,0.482319 0.235412,0.246913 0.318684,0.719429 0.144531,1.012405 -0.376999,0.63418 -1.376898,0.529092 -2.073545,0.77209 -0.638349,0.221931 -1.261273,0.52053 -1.928032,0.626839 -1.191226,0.188376 0.02368,1.100096 -1.145754,1.394038 -0.494582,0.124194 -1.150824,1.786205 -3.124432,0.65998 -0.261121,0.221931 -1.011773,-0.213479 -1.323604,-0.06826 -0.698628,0.32824 -1.558664,-0.379379 -2.313602,-0.540067 -0.643001,-0.13595 -1.199052,-0.550171 -1.832504,-0.722369 -0.690762,-0.189596 -1.408498,-0.281456 -2.122276,-0.337797 -0.624903,-0.04976 -1.253435,0 -1.880289,0 -0.43332,0 -1.514557,-0.09088 -2.265821,-0.193267 -0.777987,-0.105333 -1.542494,-0.291989 -2.314573,-0.433572 -0.802724,-0.14819 -1.601776,-0.326276 -2.410368,-0.434303 -0.368402,-0.04873 -0.738529,-0.08037 -1.108902,-0.09676 z" />
    <polygon
       class="fil2"
       points="3434,5466 307,2136 307,864 6817,864 6817,1993 1678,1993 4943,5466 1678,9306 7085,9306 7085,10436 307,10436 307,9116 "
       id="polygon1"
       style="clip-rule:evenodd;display:inline;fill:#af0000;fill-opacity:1;fill-rule:evenodd;image-rendering:optimizeQuality;shape-rendering:geometricPrecision;text-rendering:geometricPrecision"
       transform="matrix(5.4357852e-4,0,0,5.4357852e-4,46.465075,59.865918)" />
  </g>
</svg>
