<?xml version="1.0" encoding="UTF-8" standalone="no"?>
<!-- Created with Inkscape (http://www.inkscape.org/) -->

<svg
   version="1.1"
   id="svg2"
   xml:space="preserve"
   width="117.62451"
   height="44.322933"
   viewBox="0 0 117.62451 44.322933"
   sodipodi:docname="moran_i.svg"
   inkscape:version="1.3.1 (91b66b0, 2023-11-16)"
   inkscape:export-filename="mroan_i.pdf"
   inkscape:export-xdpi="96"
   inkscape:export-ydpi="96"
   xmlns:inkscape="http://www.inkscape.org/namespaces/inkscape"
   xmlns:sodipodi="http://sodipodi.sourceforge.net/DTD/sodipodi-0.dtd"
   xmlns="http://www.w3.org/2000/svg"
   xmlns:svg="http://www.w3.org/2000/svg"
   xmlns:rdf="http://www.w3.org/1999/02/22-rdf-syntax-ns#"
   xmlns:cc="http://creativecommons.org/ns#"
   xmlns:dc="http://purl.org/dc/elements/1.1/"><metadata
     id="metadata8"><rdf:RDF><cc:Work
         rdf:about=""><dc:format>image/svg+xml</dc:format><dc:type
           rdf:resource="http://purl.org/dc/dcmitype/StillImage" /></cc:Work></rdf:RDF></metadata><defs
     id="defs6"><style
       type="text/css"
       id="style1">
   <![CDATA[
    .fil0 {fill:none}
    .fil2 {fill:black;fill-rule:nonzero}
    .fil1 {fill:#CCCCCC;fill-rule:nonzero}
   ]]>
  </style></defs><sodipodi:namedview
     pagecolor="#ffffff"
     bordercolor="#666666"
     borderopacity="1"
     objecttolerance="10"
     gridtolerance="10"
     guidetolerance="10"
     inkscape:pageopacity="0"
     inkscape:pageshadow="2"
     inkscape:window-width="1452"
     inkscape:window-height="752"
     id="namedview4"
     showgrid="false"
     showguides="false"
     inkscape:zoom="3.8834676"
     inkscape:cx="55.491644"
     inkscape:cy="30.900219"
     inkscape:window-x="252"
     inkscape:window-y="228"
     inkscape:window-maximized="0"
     inkscape:current-layer="g14"
     inkscape:showpageshadow="0"
     inkscape:pagecheckerboard="0"
     inkscape:deskcolor="#505050" /><g
     id="g10"
     inkscape:groupmode="layer"
     inkscape:label="cell_centroid"
     transform="matrix(1.3333333,0,0,1.3333333,0,1.1080733e-6)"><g
       id="g14"><path
         style="fill:#477f7c;fill-opacity:1;stroke:#000000;stroke-width:0.236191;stroke-linecap:butt;stroke-linejoin:miter;stroke-miterlimit:4;stroke-dasharray:none;stroke-opacity:1"
         d="m 68.616105,14.370965 c 1.129289,0.640609 2.130785,1.64 3.404326,1.892497 1.75103,0.347167 3.649421,-1.250155 5.319391,-0.619406 1.152886,0.435445 1.48378,2.013164 2.47268,2.748598 0.952814,0.708605 2.232016,1.391674 3.444742,1.932996 1.239299,0.553183 2.409186,0.958334 3.0904,1.091418 2.198245,0.429486 -3.924407,2.085757 -6.08016,2.414557 -2.490613,0.379871 -5.049249,-0.169467 -7.536826,-0.568702 -3.326141,-0.533803 -6.619237,-1.348808 -9.809319,-2.431174 -2.212785,-0.750781 -4.229264,-2.00458 -6.425543,-2.802355 -1.65996,-0.602974 -3.406477,-0.939317 -5.083638,-1.492649 -2.502606,-0.825657 -6.158188,-0.411364 -7.421792,-2.723959 -0.713323,-1.305495 -0.172084,-5.3108561 0.969114,-4.3564937 1.545548,1.2925037 3.339477,2.6604297 5.345611,2.7939657 2.351541,0.15652 4.308714,-2.103961 6.644757,-2.4156589 1.639319,-0.2187339 4.896094,-0.9945996 4.944309,0.4132909 0.06546,1.911154 2.154654,1.440975 3.258896,2.118863 1.136647,0.69777 2.302981,1.346134 3.463052,2.004212"
         id="path262"
         sodipodi:nodetypes="cssscssssssscsscsc" /><path
         style="fill:#477f7c;fill-opacity:1;stroke:#000000;stroke-width:0.236191;stroke-linecap:butt;stroke-linejoin:miter;stroke-miterlimit:4;stroke-dasharray:none;stroke-opacity:1"
         d="m 36.029869,22.463022 c 0.332917,0.801641 -1.839481,1.182355 -1.635827,2.02615 0.240387,0.995975 1.996112,0.624075 2.809163,1.247532 0.742141,0.569076 1.743291,1.24595 1.765,2.180903 0.01649,0.709052 -0.701837,1.277107 -1.260306,1.714291 -1.79365,1.404119 -4.041274,2.716666 -6.31654,2.607637 -4.785884,-0.22934 -9.864346,-2.868976 -12.701101,-6.730334 -0.971286,-1.322095 -1.068818,-3.207061 -0.899012,-4.838776 0.183627,-1.764461 0.649707,-3.80417 2.028719,-4.920133 1.11755,-0.904387 3.082416,-1.434496 7.915405,0.06599 4.8022,1.483017 6.893817,3.274 8.294499,6.64674 z"
         id="path262-4"
         sodipodi:nodetypes="saaaaaaaacs" /><path
         inkscape:connector-curvature="0"
         id="path16"
         style="fill:#477f7c;fill-opacity:1;fill-rule:nonzero;stroke:#000000;stroke-width:0.242165;stroke-linecap:butt;stroke-linejoin:miter;stroke-miterlimit:4;stroke-dasharray:none;stroke-opacity:1"
         d="m 39.828526,27.775536 c -0.324214,-0.01281 -0.68074,0.139268 -0.972645,0 -0.816109,-0.389392 -0.994372,-1.549213 -1.703522,-2.108512 -0.750931,-0.58771 -2.391505,-0.280764 -2.589822,-1.214415 -0.16545,-0.765972 1.432229,-1.007183 1.536401,-1.784297 0.083,-0.624476 -0.811652,-1.703522 -0.811652,-1.703522 0,0 1.986514,-0.787698 2.920165,-1.303546 0.509163,-0.280763 1.051192,-0.546485 1.453954,-0.968188 0.650659,-0.685755 0.839506,-1.719121 1.460083,-2.433285 0.454569,-0.521975 0.946463,-1.133639 1.616618,-1.303546 0.883515,-0.223942 1.788755,0.339813 2.68731,0.494122 1.699622,0.289677 3.427656,0.420032 5.107224,0.809424 1.075146,0.250682 2.110741,0.642303 3.161933,0.974873 0.67907,0.211131 1.368723,0.387722 2.028294,0.648431 1.588209,0.625033 3.24438,1.701851 4.622016,2.189288 1.379308,0.487436 5.00918,1.582081 7.543852,2.269506 1.662856,0.452898 4.378576,1.216642 5.027006,1.216642 0.64843,0 3.901723,0.358753 5.838101,0.648431 1.442813,0.215586 3.292845,-0.241769 4.300029,0.811652 0.396077,0.415574 0.535345,1.209957 0.241768,1.704078 -0.633389,1.066234 -2.315743,0.889643 -3.486148,1.296861 -1.075146,0.374352 -2.121882,0.87683 -3.24438,1.055092 -2.002112,0.31586 0.04122,1.850032 -1.925794,2.343597 -0.831149,0.208901 -1.936934,3.005397 -5.255405,1.109684 -0.439528,0.374352 -1.70185,-0.358753 -2.226054,-0.113085 -1.174862,0.550943 -2.622132,-0.639517 -3.890581,-0.909139 -1.081832,-0.228956 -2.017154,-0.925294 -3.083944,-1.214414 -1.161492,-0.319759 -2.367551,-0.474625 -3.568595,-0.568213 -1.050635,-0.08467 -2.108513,0 -3.161934,0 -0.728648,0 -2.548041,-0.15208 -3.812034,-0.326443 -1.308002,-0.176034 -2.594278,-0.489665 -3.893367,-0.728649 -1.348669,-0.248453 -2.693994,-0.548714 -4.053804,-0.729205 -0.617791,-0.08245 -1.240597,-0.134811 -1.865073,-0.163222 z" /><path
         style="fill:#477f7c;fill-opacity:1;stroke:#000000;stroke-width:0.236191;stroke-linecap:butt;stroke-linejoin:miter;stroke-miterlimit:4;stroke-dasharray:none;stroke-opacity:1"
         d="m 44.065243,8.9625358 c 0.403865,0.4936459 -0.307621,1.2427402 -0.36809,1.8776712 -0.115168,1.209251 0.750232,2.678419 0.0134,3.644145 -0.467606,0.612863 -1.645539,0.103146 -2.232757,0.602577 -0.707724,0.601923 -0.54332,1.834785 -1.148785,2.539483 -1.187766,1.382435 -2.763334,3.0166 -4.585544,2.97826 -1.93146,-0.04064 -0.707516,-1.13926 -2.359601,-2.403054 -1.531365,-1.171447 -5.980977,-2.447531 -6.742027,-4.068484 -0.387068,-0.82441 -0.06148,-1.853469 0.204153,-2.724625 0.291434,-0.955761 0.614418,-2.109983 1.482028,-2.605631 2.017433,-1.152519 4.646151,0.08374 6.96945,0.1086058 2.922474,0.031278 6.917124,-2.2110092 8.767776,0.051052 z"
         id="path262-4-8"
         sodipodi:nodetypes="aaaaasssaaaa" /><path
         style="fill:#477f7c;fill-opacity:1;stroke:#000000;stroke-width:0.236191;stroke-linecap:butt;stroke-linejoin:miter;stroke-miterlimit:4;stroke-dasharray:none;stroke-opacity:1"
         d="m 81.11369,9.5824184 c 0.530672,0.1603333 1.203919,-0.494019 1.654302,-0.170791 0.438987,0.3150506 0.573808,1.0853546 0.358403,1.5809026 -0.808789,1.860653 -3.443876,2.157502 -5.258316,3.065234 -1.490267,0.745554 -2.938724,1.990515 -4.604503,1.946604 -2.962432,-0.07809 -5.196692,-2.912755 -7.994922,-3.888466 C 64.437048,11.825931 63.36965,12.102813 62.689246,11.543617 62.051693,11.019636 61.707605,10.101451 61.694981,9.2763012 61.678778,8.2170089 62.038843,6.969715 62.881745,6.3279361 63.57959,5.7966014 64.6203,6.077051 65.49615,6.0302319 c 2.418226,-0.1292677 4.858427,-0.2234001 7.264877,0.047751 1.902965,0.2144197 3.88804,0.4021362 5.609253,1.2415872 1.065449,0.5196296 1.60866,1.9200046 2.74341,2.2628483 z"
         id="path262-4-8-0"
         sodipodi:nodetypes="aaaaaaaaaaaaa" /><path
         style="fill:#477f7c;fill-opacity:1;stroke:#000000;stroke-width:0.236191;stroke-linecap:butt;stroke-linejoin:miter;stroke-miterlimit:4;stroke-dasharray:none;stroke-opacity:1"
         d="m 59.438373,5.3834473 c 1.021557,0.3455918 2.726646,-0.4185389 3.211945,0.3879807 0.261406,0.4344293 -0.897865,3.0655387 -1.138587,3.5790312 -0.26867,0.5731086 -0.319758,-0.16822 -0.88509,-0.1434147 -1.114861,0.048917 -3.293895,0.2982125 -5.084473,0.9158805 -1.575267,0.543396 -2.938725,1.990515 -4.604503,1.946604 C 47.975232,11.991436 45.822272,8.8813594 42.942742,8.1810638 41.642934,7.8649531 39.806374,8.1784498 38.930858,8.0829484 36.660777,7.8353281 35.563645,9.2511879 32.859263,8.4629565 31.305713,8.010152 28.946296,8.2645743 28.727903,6.7956873 28.544252,5.5604697 26.868795,2.503107 28.015194,3.1319084 30.06715,4.2574099 35.383244,2.5664642 37.540385,1.8800557 42.765122,0.21752929 48.33728,-0.43980165 53.346108,1.2092933 c 1.097385,0.3613008 1.748242,1.5179736 2.69826,2.175438 1.079611,0.7471498 2.150312,1.5779765 3.394005,1.998716 z"
         id="path262-4-8-0-9"
         sodipodi:nodetypes="assssaasssssaaa" /><path
         style="fill:#477f7c;fill-opacity:1;stroke:#000000;stroke-width:0.236191;stroke-linecap:butt;stroke-linejoin:miter;stroke-miterlimit:4;stroke-dasharray:none;stroke-opacity:1"
         d="m 27.23999,3.1755076 c 0.798188,0.6599802 0.8521,1.8901736 1.205495,2.863719 0.238653,0.6574509 0.859318,1.3500673 0.616021,2.0058139 -0.239926,0.6466627 -1.327741,0.5582364 -1.750656,1.1031035 -1.191816,1.53549 -0.203601,4.423877 -1.787541,5.550504 -1.252876,0.891148 -3.11943,-0.476702 -4.611248,-0.104783 -0.918523,0.228993 -1.573365,1.673071 -2.476618,1.389774 -1.261034,-0.39551 -1.263291,-2.330991 -1.730198,-3.567371 -0.695632,-1.842049 -1.720986,-3.7282438 -1.578937,-5.6921364 0.06966,-0.9630382 0.42479,-2.0342702 1.167892,-2.6507887 0.336907,-0.2795174 0.871863,-0.1374453 1.278907,-0.2985399 1.201462,-0.4754988 2.079408,-1.7381807 3.355555,-1.940811 2.124165,-0.337281 4.653782,-0.029023 6.311328,1.3415156 z"
         id="path262-4-8-0-3"
         sodipodi:nodetypes="aaaaaaaaaaaaa" /><path
         style="fill:#477f7c;fill-opacity:1;stroke:#000000;stroke-width:0.236191;stroke-linecap:butt;stroke-linejoin:miter;stroke-miterlimit:4;stroke-dasharray:none;stroke-opacity:1"
         d="m 15.758104,3.9821361 c 1.010601,-0.033746 -1.430619,2.9447295 -0.891367,3.6408544 1.838197,2.3729445 0.692731,1.8872658 1.830376,5.1409605 0.147938,0.423109 0.415339,2.59775 1.951177,3.675398 0.780777,0.547846 -0.430475,1.954748 -0.728625,2.668407 -0.331,0.792291 0.128721,5.464602 -1.248617,5.329384 -1.044657,-0.102557 -3.71881,0.807708 -5.406642,0.173254 C 10.340999,24.263286 9.8636383,23.216733 9.1013152,22.590611 8.4666427,22.069333 7.4955912,21.871592 7.1018463,21.150825 6.5561119,20.151835 6.6970107,18.85693 6.92006,17.740661 7.1340574,16.669693 7.8769109,15.776997 8.3383864,14.787145 8.8970989,13.588721 9.2808532,12.299401 9.9732613,11.172924 11.584171,8.5521406 12.87719,4.0783359 15.758104,3.9821361 Z"
         id="path262-4-8-0-3-6"
         sodipodi:nodetypes="ssssssaaaaaas" /><text
         xml:space="preserve"
         style="font-style:italic;font-variant:normal;font-weight:normal;font-stretch:normal;font-size:22.1772px;line-height:1.25;font-family:Sans;-inkscape-font-specification:'Sans Italic';text-align:center;text-anchor:middle;fill:#ff0000;stroke:none;stroke-width:0.541084;stroke-linecap:round;fill-opacity:1"
         x="4.4719601"
         y="18.276741"
         id="text1"
         transform="scale(1.3026495,0.76766621)"><tspan
           sodipodi:role="line"
           id="tspan1"
           style="font-style:italic;font-variant:normal;font-weight:normal;font-stretch:normal;font-family:Sans;-inkscape-font-specification:'Sans Italic';stroke-width:0.541084;fill:#ff0000;fill-opacity:1;stroke:none"
           x="4.4719601"
           y="18.276741">I</tspan></text></g></g></svg>
