<?xml version="1.0" encoding="UTF-8" standalone="no"?>
<!-- Created with Inkscape (http://www.inkscape.org/) -->

<svg
   version="1.1"
   id="svg2"
   xml:space="preserve"
   width="117.62451"
   height="44.322933"
   viewBox="0 0 117.62451 44.322933"
   sodipodi:docname="neighbors_mean_diff_1st.svg"
   inkscape:version="1.3.1 (91b66b0, 2023-11-16)"
   inkscape:export-filename="neighbors_mean_diff_1st.pdf"
   inkscape:export-xdpi="96"
   inkscape:export-ydpi="96"
   xmlns:inkscape="http://www.inkscape.org/namespaces/inkscape"
   xmlns:sodipodi="http://sodipodi.sourceforge.net/DTD/sodipodi-0.dtd"
   xmlns="http://www.w3.org/2000/svg"
   xmlns:svg="http://www.w3.org/2000/svg"
   xmlns:rdf="http://www.w3.org/1999/02/22-rdf-syntax-ns#"
   xmlns:cc="http://creativecommons.org/ns#"
   xmlns:dc="http://purl.org/dc/elements/1.1/"><metadata
     id="metadata8"><rdf:RDF><cc:Work
         rdf:about=""><dc:format>image/svg+xml</dc:format><dc:type
           rdf:resource="http://purl.org/dc/dcmitype/StillImage" /></cc:Work></rdf:RDF></metadata><defs
     id="defs6" /><sodipodi:namedview
     pagecolor="#ffffff"
     bordercolor="#666666"
     borderopacity="1"
     objecttolerance="10"
     gridtolerance="10"
     guidetolerance="10"
     inkscape:pageopacity="0"
     inkscape:pageshadow="2"
     inkscape:window-width="1452"
     inkscape:window-height="752"
     id="namedview4"
     showgrid="false"
     showguides="false"
     inkscape:zoom="5.4920526"
     inkscape:cx="42.51598"
     inkscape:cy="22.031836"
     inkscape:window-x="253"
     inkscape:window-y="188"
     inkscape:window-maximized="0"
     inkscape:current-layer="g14"
     inkscape:showpageshadow="0"
     inkscape:pagecheckerboard="0"
     inkscape:deskcolor="#505050" /><g
     id="g10"
     inkscape:groupmode="layer"
     inkscape:label="cell_centroid"
     transform="matrix(1.3333333,0,0,1.3333333,0,1.1080733e-6)"><g
       id="g14"><path
         style="fill:#477f7c;fill-opacity:1;stroke:#000000;stroke-width:0.28294;stroke-linecap:butt;stroke-linejoin:miter;stroke-miterlimit:4;stroke-dasharray:none;stroke-opacity:1"
         d="m 63.345111,10.303604 c 1.352807,0.767404 2.552528,1.964603 4.07814,2.267077 2.097609,0.415881 4.371746,-1.497597 6.372251,-0.742005 1.381075,0.521633 1.777463,2.411628 2.962095,3.292625 1.141403,0.848858 2.673796,1.667126 4.126555,2.315592 1.484592,0.662673 2.886034,1.148016 3.702079,1.307441 2.633342,0.514493 -4.70116,2.498588 -7.283598,2.892467 C 74.319056,22.09186 71.253992,21.433792 68.274052,20.955536 64.289572,20.316079 60.344678,19.33976 56.523186,18.043163 53.872427,17.143781 51.456829,15.641819 48.825843,14.686141 46.83733,13.963822 44.745127,13.560907 42.736007,12.898054 39.738063,11.908976 35.358936,12.40527 33.845229,9.6349455 32.990719,8.0710552 33.639084,3.2729184 35.006158,4.4161766 c 1.851457,1.5483281 4.000456,3.1870061 6.403662,3.3469721 2.816978,0.1875 5.161532,-2.5203959 7.959945,-2.8937876 1.963788,-0.2620276 5.865172,-1.1914595 5.92293,0.4950929 0.07842,2.2894259 2.581123,1.7261851 3.903926,2.5382469 1.361622,0.8358788 2.758807,1.6125721 4.14849,2.4009031"
         id="path262"
         sodipodi:nodetypes="cssscssssssscsscsc" /><path
         style="fill:#477f7c;fill-opacity:1;stroke:#000000;stroke-width:0.28294;stroke-linecap:butt;stroke-linejoin:miter;stroke-miterlimit:4;stroke-dasharray:none;stroke-opacity:1"
         d="m 24.30912,19.997312 c 0.398811,0.960309 -2.203567,1.416377 -1.959604,2.427183 0.287967,1.193108 2.3912,0.747598 3.365177,1.494455 0.889032,0.681712 2.088339,1.492559 2.114345,2.612567 0.01975,0.849393 -0.840751,1.529883 -1.509757,2.053598 -2.148665,1.682035 -4.841159,3.254373 -7.566766,3.123763 C 13.019367,31.434145 6.9357307,28.27205 3.5375009,23.646418 2.3739692,22.062642 2.2571329,19.804587 2.4605487,17.849908 2.6805211,15.73621 3.2388502,13.292784 4.8908082,11.95594 c 1.3387461,-1.083392 3.6925161,-1.718424 9.4820928,0.07905 5.752694,1.776549 8.258302,3.922018 9.936219,7.96232 z"
         id="path262-4"
         sodipodi:nodetypes="saaaaaaaacs" /><path
         inkscape:connector-curvature="0"
         id="path16"
         style="fill:#477f7c;fill-opacity:1;fill-rule:nonzero;stroke:#000000;stroke-width:0.290097;stroke-linecap:butt;stroke-linejoin:miter;stroke-miterlimit:4;stroke-dasharray:none;stroke-opacity:1"
         d="m 28.859641,26.361326 c -0.388386,-0.01535 -0.815478,0.166833 -1.16516,0 -0.97764,-0.466464 -1.191186,-1.855847 -2.040698,-2.525848 -0.899562,-0.704034 -2.864852,-0.336335 -3.102422,-1.454782 -0.198197,-0.91758 1.715708,-1.206534 1.840499,-2.137461 0.09943,-0.748078 -0.972301,-2.040698 -0.972301,-2.040698 0,0 2.379702,-0.943606 3.498149,-1.561555 0.609941,-0.336335 1.259254,-0.654651 1.741734,-1.159821 0.779443,-0.821485 1.005668,-2.059384 1.749075,-2.914902 0.544542,-0.625289 1.133795,-1.358019 1.936594,-1.561555 1.058387,-0.268267 2.1428,0.407072 3.219205,0.591923 2.036027,0.347012 4.106088,0.503168 6.118091,0.969632 1.287949,0.300299 2.528517,0.769433 3.787771,1.167829 0.813477,0.252919 1.639632,0.464463 2.429752,0.776774 1.902561,0.748745 3.886536,2.038696 5.536846,2.622611 1.652312,0.583914 6.000641,1.89522 9.036997,2.718706 1.991983,0.54254 5.245222,1.457451 6.021995,1.457451 0.776773,0 4.673987,0.429761 6.993629,0.776774 1.728388,0.258257 3.944594,-0.289622 5.151129,0.972301 0.474472,0.497829 0.641305,1.449443 0.289621,2.041365 -0.758755,1.277272 -2.774095,1.065728 -4.176157,1.553547 -1.287949,0.448447 -2.541864,1.050379 -3.886536,1.263925 -2.398388,0.378377 0.04938,2.216206 -2.306964,2.807462 -0.995658,0.250249 -2.32031,3.600251 -6.295601,1.329323 -0.526524,0.448447 -2.038696,-0.429761 -2.666654,-0.135468 -1.407402,0.65999 -3.141128,-0.766096 -4.66064,-1.089084 -1.295957,-0.274273 -2.416406,-1.108437 -3.694345,-1.454782 -1.391385,-0.383048 -2.836157,-0.568566 -4.274923,-0.680678 -1.258586,-0.101434 -2.525848,0 -3.787771,0 -0.872869,0 -3.052372,-0.182181 -4.566546,-0.391056 -1.566893,-0.210876 -3.10776,-0.586584 -4.663976,-0.872869 -1.615609,-0.297629 -3.227213,-0.657321 -4.856168,-0.873536 -0.74007,-0.09877 -1.486147,-0.161494 -2.234225,-0.195528 z" /><path
         style="fill:#477f7c;fill-opacity:1;stroke:#000000;stroke-width:0.28294;stroke-linecap:butt;stroke-linejoin:miter;stroke-miterlimit:4;stroke-dasharray:none;stroke-opacity:1"
         d="m 33.934926,3.8246914 c 0.483802,0.5913527 -0.368508,1.4887145 -0.440946,2.2493158 -0.137963,1.4485973 0.898725,3.2085557 0.01605,4.3654268 -0.560158,0.734166 -1.971238,0.123561 -2.674683,0.721844 -0.847804,0.721061 -0.650859,2.197942 -1.376163,3.04212 -1.422859,1.656059 -3.310278,3.613672 -5.493155,3.567743 -2.313752,-0.04868 -0.847554,-1.364752 -2.826634,-2.878688 -1.834466,-1.40331 -7.164785,-2.931967 -8.076469,-4.873753 -0.46368,-0.9875845 -0.07365,-2.2203249 0.244561,-3.2639064 0.349117,-1.144934 0.736029,-2.5276098 1.775364,-3.1213608 2.416741,-1.3806358 5.565758,0.1003148 8.348905,0.1301019 3.500916,0.037469 8.286222,-2.6486315 10.503171,0.061157 z"
         id="path262-4-8"
         sodipodi:nodetypes="aaaaasssaaaa" /><text
         xml:space="preserve"
         style="font-size:17.982px;line-height:1;font-family:Sans;-inkscape-font-specification:Sans;text-align:center;text-anchor:middle;fill:#00ff00;stroke-width:2.02299;stroke-linecap:round;stroke-miterlimit:8"
         x="45.201229"
         y="22.462612"
         id="text1-7"><tspan
           sodipodi:role="line"
           id="tspan1-5"
           style="font-size:17.982px;fill:#00ff00;fill-opacity:1;stroke-width:2.02299"
           x="45.201229"
           y="22.462612">.</tspan></text><text
         xml:space="preserve"
         style="font-size:17.982px;line-height:1;font-family:Sans;-inkscape-font-specification:Sans;text-align:center;text-anchor:middle;fill:#000000;stroke-width:2.02299;stroke-linecap:round;stroke-miterlimit:8"
         x="23.954002"
         y="10.698635"
         id="text1-7-6"><tspan
           sodipodi:role="line"
           id="tspan1-5-2"
           style="font-size:17.982px;fill:#ff0000;fill-opacity:1;stroke-width:2.02299"
           x="23.954002"
           y="10.698635">.</tspan></text><text
         xml:space="preserve"
         style="font-size:17.982px;line-height:1;font-family:Sans;-inkscape-font-specification:Sans;text-align:center;text-anchor:middle;fill:#000000;stroke-width:2.02299;stroke-linecap:round;stroke-miterlimit:8"
         x="15.984289"
         y="21.317793"
         id="text1-7-9"><tspan
           sodipodi:role="line"
           id="tspan1-5-1"
           style="font-size:17.982px;fill:#ff0000;fill-opacity:1;stroke-width:2.02299"
           x="15.984289"
           y="21.317793">.</tspan></text><text
         xml:space="preserve"
         style="font-size:17.982px;line-height:1;font-family:Sans;-inkscape-font-specification:Sans;text-align:center;text-anchor:middle;fill:#000000;stroke-width:2.02299;stroke-linecap:round;stroke-miterlimit:8"
         x="52.497314"
         y="11.885022"
         id="text1-7-2"><tspan
           sodipodi:role="line"
           id="tspan1-5-7"
           style="font-size:17.982px;fill:#ff0000;fill-opacity:1;stroke-width:2.02299"
           x="52.497314"
           y="11.885022">.</tspan></text><polygon
         class="fil2"
         points="3434,5466 307,2136 307,864 6817,864 6817,1993 1678,1993 4943,5466 1678,9306 7085,9306 7085,10436 307,10436 307,9116 "
         id="polygon1"
         style="clip-rule:evenodd;display:inline;fill:#ff0000;fill-opacity:1;fill-rule:evenodd;image-rendering:optimizeQuality;shape-rendering:geometricPrecision;text-rendering:geometricPrecision"
         transform="matrix(0.00100096,0,0,0.00100096,5.2206888,4.5849997)" /><rect
         style="fill:#ff0000;stroke-width:1.4458;stroke-linecap:round"
         id="rect1"
         width="10.905092"
         height="1.8724879"
         x="3.3131218"
         y="2.5409238" /></g></g></svg>
