<?xml version="1.0" encoding="UTF-8" standalone="no"?>
<!-- Created with Inkscape (http://www.inkscape.org/) -->

<svg
   width="40.330681mm"
   height="19.476879mm"
   viewBox="0 0 40.330681 19.476879"
   version="1.1"
   id="svg1192"
   inkscape:version="1.3.1 (91b66b0, 2023-11-16)"
   sodipodi:docname="nucleus_shape_orientation.svg"
   inkscape:export-filename="nucleus_shape_orientation.pdf"
   inkscape:export-xdpi="96"
   inkscape:export-ydpi="96"
   xmlns:inkscape="http://www.inkscape.org/namespaces/inkscape"
   xmlns:sodipodi="http://sodipodi.sourceforge.net/DTD/sodipodi-0.dtd"
   xmlns="http://www.w3.org/2000/svg"
   xmlns:svg="http://www.w3.org/2000/svg"
   xmlns:rdf="http://www.w3.org/1999/02/22-rdf-syntax-ns#"
   xmlns:cc="http://creativecommons.org/ns#"
   xmlns:dc="http://purl.org/dc/elements/1.1/">
  <defs
     id="defs1186">
    <marker
       style="overflow:visible"
       id="Triangle"
       refX="0"
       refY="0"
       orient="auto-start-reverse"
       inkscape:stockid="Triangle arrow"
       markerWidth="0.5"
       markerHeight="0.5"
       viewBox="0 0 1 1"
       inkscape:isstock="true"
       inkscape:collect="always"
       preserveAspectRatio="none">
      <path
         transform="scale(0.5)"
         style="fill:context-stroke;fill-rule:evenodd;stroke:context-stroke;stroke-width:1pt"
         d="M 5.77,0 -2.88,5 V -5 Z"
         id="path135" />
    </marker>
    <marker
       style="overflow:visible"
       id="marker3"
       refX="0"
       refY="0"
       orient="auto-start-reverse"
       inkscape:stockid="Triangle arrow"
       markerWidth="0.5"
       markerHeight="0.5"
       viewBox="0 0 1 1"
       inkscape:isstock="true"
       inkscape:collect="always"
       preserveAspectRatio="none">
      <path
         transform="scale(0.5)"
         style="fill:context-stroke;fill-rule:evenodd;stroke:context-stroke;stroke-width:1pt"
         d="M 5.77,0 -2.88,5 V -5 Z"
         id="path3" />
    </marker>
  </defs>
  <sodipodi:namedview
     id="base"
     pagecolor="#ffffff"
     bordercolor="#666666"
     borderopacity="1.0"
     inkscape:pageopacity="0.0"
     inkscape:pageshadow="2"
     inkscape:zoom="8.1234933"
     inkscape:cx="54.040791"
     inkscape:cy="39.63812"
     inkscape:document-units="mm"
     inkscape:current-layer="layer1"
     showgrid="false"
     fit-margin-top="0"
     fit-margin-left="0"
     fit-margin-right="0"
     fit-margin-bottom="0"
     inkscape:window-width="1846"
     inkscape:window-height="1016"
     inkscape:window-x="74"
     inkscape:window-y="27"
     inkscape:window-maximized="1"
     inkscape:showpageshadow="0"
     inkscape:pagecheckerboard="0"
     inkscape:deskcolor="#505050" />
  <metadata
     id="metadata1189">
    <rdf:RDF>
      <cc:Work
         rdf:about="">
        <dc:format>image/svg+xml</dc:format>
        <dc:type
           rdf:resource="http://purl.org/dc/dcmitype/StillImage" />
        <dc:title />
      </cc:Work>
    </rdf:RDF>
  </metadata>
  <g
     inkscape:label="Layer 1"
     inkscape:groupmode="layer"
     id="layer1"
     transform="translate(-64.118913,-31.536428)">
    <g
       transform="matrix(-0.33604093,-0.02939978,-0.02939978,0.33604093,253.28425,18.861682)"
       id="g650">
      <path
         d="m 539.383,121.336 c 0.789,-0.035 1.652,0.34 2.363,0 1.977,-0.945 2.406,-3.766 4.133,-5.117 1.824,-1.43 5.805,-0.684 6.289,-2.949 0.398,-1.864 -3.477,-2.446 -3.73,-4.336 -0.2,-1.512 1.968,-4.133 1.968,-4.133 0,0 -4.82,-1.91 -7.086,-3.16 -1.238,-0.684 -2.55,-1.329 -3.527,-2.352 -1.586,-1.66 -2.039,-4.172 -3.547,-5.906 -1.105,-1.266 -2.297,-2.75 -3.926,-3.164 -2.14,-0.543 -4.34,0.824 -6.519,1.199 -4.125,0.703 -8.324,1.02 -12.399,1.965 -2.609,0.605 -5.125,1.562 -7.679,2.363 -1.641,0.516 -3.317,0.942 -4.918,1.574 -3.852,1.52 -7.875,4.133 -11.223,5.317 -3.344,1.179 -12.156,3.843 -18.305,5.511 -4.039,1.094 -10.629,2.954 -12.203,2.954 -1.574,0 -9.472,0.871 -14.172,1.574 -3.5,0.523 -7.988,-0.59 -10.433,1.969 -0.961,1.003 -1.301,2.937 -0.59,4.132 1.535,2.586 5.621,2.161 8.461,3.149 2.609,0.91 5.148,2.129 7.875,2.558 4.859,0.77 9.992,-1.195 14.762,0 2.023,0.508 3.925,1.602 5.511,2.954 1.071,0.91 1.289,2.75 2.559,3.347 2.855,1.336 6.367,0.258 9.449,-0.394 2.625,-0.555 4.895,-2.246 7.481,-2.953 2.82,-0.77 5.746,-1.149 8.66,-1.379 2.551,-0.2 5.121,0 7.679,0 1.77,0 6.184,-0.368 9.25,-0.786 3.176,-0.433 6.297,-1.191 9.45,-1.773 3.277,-0.602 6.535,-1.332 9.839,-1.77 1.504,-0.199 3.016,-0.328 4.528,-0.394 z"
         style="fill:#477f7c;fill-opacity:1;fill-rule:nonzero;stroke:#000000;stroke-width:0.587793;stroke-linecap:butt;stroke-linejoin:miter;stroke-miterlimit:4;stroke-dasharray:none;stroke-opacity:1"
         id="path652"
         inkscape:connector-curvature="0" />
    </g>
    <g
       transform="matrix(-0.33604093,-0.02939978,-0.02939978,0.33604093,255.48375,18.839233)"
       id="g654">
      <path
         d="m 499.645,115.652 c -1.02,-2.132 2.566,-5.632 3.871,-7.601 0.75,-1.133 2.472,-1.125 3.691,-1.723 2.039,-1.008 3.801,-2.828 6.051,-3.152 2.996,-0.426 6.387,0.097 8.906,1.773 1.024,0.68 1.621,1.906 2.07,3.051 0.477,1.219 0.899,2.613 0.59,3.887 -0.461,1.906 -1.98,3.468 -3.445,4.773 -1.613,1.434 -3.629,2.418 -5.66,3.149 -1.098,0.398 -2.285,0.769 -3.446,0.64 -1.613,-0.179 -3.07,-1.105 -4.476,-1.918 -1.633,-0.945 -7.336,-1.176 -8.152,-2.879 z"
         style="fill:#83cfcb;fill-opacity:1;fill-rule:nonzero;stroke:#000000;stroke-width:0.587793;stroke-linecap:butt;stroke-linejoin:miter;stroke-miterlimit:4;stroke-dasharray:none;stroke-opacity:1"
         id="path656"
         inkscape:connector-curvature="0" />
    </g>
    <g
       transform="matrix(-0.33604093,-0.02939978,-0.02939978,0.33604093,255.46121,18.857366)"
       id="g666">
      <path
         d="m 487.738,119.277 49.117,-15.453"
         style="fill:none;stroke:#ff0000;stroke-width:1.46069;stroke-linecap:butt;stroke-linejoin:miter;stroke-miterlimit:4;stroke-dasharray:5.84275, 5.84275;stroke-dashoffset:0;stroke-opacity:1"
         id="path668"
         inkscape:connector-curvature="0" />
    </g>
    <path
       id="rect1"
       style="fill:#ff0000;fill-opacity:1;stroke:none;stroke-width:0.467159;stroke-linecap:round;stroke-miterlimit:8;stroke-opacity:0.991289"
       d="m 79.697039,41.411529 10e-7,-0.541569 -5.477185,-2.191081 -0.171566,0.472323 z" />
    <path
       style="fill:none;stroke:#000000;stroke-width:0.124434px;stroke-linecap:butt;stroke-linejoin:miter;stroke-opacity:1;marker-start:url(#marker3)"
       d="m 79.69704,36.250215 4e-6,8.86385"
       id="path859-8" />
    <path
       id="path1-5"
       style="fill:#ff0000;stroke-width:0.186031;stroke-linecap:round"
       d="M 79.573784 37.735533 A 3.7949542 3.7949542 0 0 0 76.285612 39.674949 L 76.522807 39.674949 A 3.5896814 3.5896814 0 0 1 79.573784 37.940688 A 3.5896814 3.5896814 0 0 1 83.159094 41.37097 L 83.364767 41.37097 A 3.7949542 3.7949542 0 0 0 79.573784 37.735533 z " />
    <path
       style="fill:none;stroke:#000000;stroke-width:0.132061;stroke-linecap:butt;stroke-linejoin:miter;stroke-dasharray:none;stroke-opacity:1;marker-end:url(#Triangle)"
       d="m 69.970265,41.308102 19.159653,-4e-6"
       id="path859" />
    <circle
       style="fill:#00ff00;fill-opacity:1;stroke:#000000;stroke-width:0.0756602;stroke-linecap:round;stroke-miterlimit:4;stroke-dasharray:none;stroke-dashoffset:0;stroke-opacity:1"
       id="path883"
       cx="79.65934"
       cy="41.281494"
       r="0.36972031" />
    <text
       xml:space="preserve"
       style="font-size:2.67422px;line-height:1.25;font-family:Sans;-inkscape-font-specification:Sans;text-align:center;text-anchor:middle;fill:#ff0000;stroke-width:0.186262;stroke-linecap:round"
       x="76.344337"
       y="38.195896"
       id="text2"><tspan
         sodipodi:role="line"
         id="tspan2"
         style="fill:#ff0000;stroke-width:0.186262"
         x="76.344337"
         y="38.195896">Φ</tspan></text>
  </g>
</svg>
